<svg width="1920" height="315" viewBox="0 0 1920 315" fill="none" xmlns="http://www.w3.org/2000/svg">
<rect x="0.301758" width="1919.7" height="314.159" fill="white"/>
<mask id="mask0" mask-type="alpha" maskUnits="userSpaceOnUse" x="0" y="0" width="1920" height="315">
<rect x="0.301758" width="1919.7" height="314.159" fill="white"/>
</mask>
<g mask="url(#mask0)">
<g opacity="0.5">
<path opacity="0.5" fill-rule="evenodd" clip-rule="evenodd" d="M1623.27 -75.8948C1627.48 -81.8868 1635.28 -97.1046 1641.19 -99.2457C1645 -100.625 1643.89 -86.3592 1643.94 -83.6391C1644.12 -73.1154 1643.09 -62.6584 1641.83 -52.223C1639.55 -33.4028 1632.1 -16.642 1621.87 -0.624084C1616.61 7.6181 1610.44 15.9602 1601.9 21.103C1597.96 23.4713 1593.23 23.8678 1589.35 25.9084C1584.82 28.2838 1587.29 26.3635 1585.25 31.0781C1582.41 37.6238 1581.51 46.0684 1580.2 53.0528C1574.18 85.1152 1559.62 254.605 1562.14 287.219C1562.37 290.109 1558.34 290.801 1558.14 287.272C1557.07 268.56 1566.32 138.983 1570.99 96.6073C1575.66 54.2318 1580.39 16.7951 1585.12 2.13454C1590.87 -15.6519 1601.25 -37.0414 1609.89 -53.6281C1613.91 -61.3338 1618.28 -68.7741 1623.27 -75.8948Z" fill="#69A1AC"/>
<path opacity="0.5" fill-rule="evenodd" clip-rule="evenodd" d="M1654.47 131.938C1665.4 123.91 1677.24 139.062 1667.34 147.091C1661.87 151.529 1656.15 149.95 1652.93 146.252C1650.84 148.799 1648.89 151.463 1647.01 153.713C1641.28 160.569 1635.87 167.589 1630.7 174.772C1619.95 189.695 1610.74 205.461 1601.11 220.939C1591.61 236.215 1582.18 251.569 1573.57 267.231C1566.27 280.501 1556.55 296.113 1554.05 310.661C1557.84 279.807 1572.22 250.151 1589.35 222.951C1606.34 195.975 1625.83 166.513 1652.13 145.224C1649.46 141.288 1649.38 135.669 1654.47 131.938Z" fill="#C1DEE2"/>
<path opacity="0.5" fill-rule="evenodd" clip-rule="evenodd" d="M1446.96 56.6914C1453.08 57.8881 1463.08 71.7308 1468.13 77.005C1474.12 83.2726 1479.56 89.953 1484.69 96.9524C1495.72 112.018 1505.59 128.036 1513.99 144.741C1527.67 171.972 1538.63 199.925 1546.58 229.578C1551.45 247.73 1554.61 266.544 1556.48 285.226C1556.83 288.749 1560.52 315.914 1555.2 316.646C1550.41 317.305 1551.89 296.019 1551.66 293.124C1549.05 260.458 1541.23 228.675 1530.35 197.887C1527.98 191.18 1525.78 182.965 1521.99 176.929C1519.26 172.582 1521.97 174.098 1517.17 172.453C1513.06 171.039 1508.36 171.384 1504.15 169.654C1494.99 165.897 1487.65 158.604 1481.22 151.269C1468.73 137.012 1458.83 121.589 1453.66 103.321C1450.8 93.1922 1448.17 83.0045 1446.71 72.5625C1446.33 69.8635 1443.02 55.9206 1446.96 56.6914Z" fill="#69A1AC"/>
<path opacity="0.5" fill-rule="evenodd" clip-rule="evenodd" d="M1471.11 -173.623C1494.16 -133.649 1513.1 -89.7381 1525.34 -45.2631C1532.75 -18.3162 1537.93 9.3353 1543.08 36.7871C1551.05 79.2927 1558.59 121.795 1560.73 165.056C1562.89 208.567 1567.16 258.752 1552.91 300.661C1560.03 258.112 1553.25 212.823 1552.05 170.01C1551.48 149.573 1549.82 129.334 1547.64 109.016C1545.53 89.3058 1542.07 69.6896 1538.85 50.1344C1537.29 40.6107 1535.64 31.1013 1533.96 21.5972C1533.46 18.7616 1533.25 10.3474 1531.45 8.41031C1529.64 6.46045 1520.41 5.66556 1517.51 4.23486C1511.67 1.35327 1506.17 -2.73984 1501.31 -7.06471C1491.99 -15.3554 1483.89 -26.1882 1477.49 -36.8669C1462.68 -61.5756 1456.76 -91.7293 1457.06 -120.345C1457.12 -125.901 1466.06 -185.729 1462.47 -186.553C1462.68 -186.806 1462.89 -187.068 1463.08 -187.339C1465.8 -182.791 1468.46 -178.211 1471.11 -173.623Z" fill="#89C5CC"/>
<path opacity="0.5" fill-rule="evenodd" clip-rule="evenodd" d="M1719.9 -29.4521C1720.25 -29.9651 1722.57 -33.5327 1721.4 -33.3047C1723.78 -33.7689 1718.14 -29.37 1724.05 -32.0691C1721.24 -29.4174 1722.86 -25.9729 1722.9 -22.404C1722.96 -16.6097 1721.99 -10.8629 1720.9 -5.19296C1719.18 3.76951 1716.61 12.4837 1712.88 20.8198C1704.75 38.9863 1690.95 56.4748 1674.57 67.8323C1666.48 73.44 1658.56 75.3492 1649.33 77.9307C1643.5 79.5617 1643.04 82.5756 1639.95 88.2295C1633.51 100.005 1627.19 111.739 1621.51 123.912C1614.73 138.448 1608.15 153 1601.94 167.792C1581.02 217.618 1564 269.239 1555.06 322.661C1554.84 291.179 1562.12 258.756 1571.31 228.749C1578 206.886 1586.71 185.812 1596 164.95C1598.25 159.896 1601.67 153.395 1602.62 147.815C1603.29 143.906 1601.24 140.146 1600.31 136.028C1596.65 119.99 1596.91 102.023 1600.12 85.9001C1603.66 68.1213 1613.89 59.8695 1631.2 57.3512C1637.53 56.4301 1645.57 56.7677 1651.37 54.0691C1657.7 51.1304 1660.31 41.4709 1663.9 35.2702C1673.56 18.614 1685.03 2.63973 1698.21 -11.3945C1701.85 -15.2808 1705.78 -18.8661 1709.94 -22.1893C1712.56 -24.286 1718.11 -26.8692 1719.9 -29.4521Z" fill="#89C5CC"/>
<path opacity="0.5" fill-rule="evenodd" clip-rule="evenodd" d="M1525.84 288.661H1587.26C1590.02 288.661 1592.26 290.899 1592.26 293.661C1592.26 293.905 1592.24 294.149 1592.21 294.39L1587.46 326.579C1586.01 336.391 1577.59 343.661 1567.67 343.661H1545.43C1535.51 343.661 1527.09 336.391 1525.64 326.579L1520.9 294.39C1520.49 291.658 1522.38 289.117 1525.11 288.714C1525.36 288.679 1525.6 288.661 1525.84 288.661Z" fill="#C1DEE2"/>
</g>
<path fill-rule="evenodd" clip-rule="evenodd" d="M1864.81 108.429C1867.67 108.079 1870.73 108.203 1873.4 109.333C1879.06 111.738 1880.67 118.43 1880.59 123.869C1880.51 129.724 1879.27 136.119 1883.72 140.836C1885.76 143.004 1888.31 144.664 1890.32 146.872C1892.46 149.233 1894.15 151.933 1895.4 154.833C1897.69 160.159 1898.81 166.423 1896.72 172.01C1894.87 176.929 1890.23 181.37 1891.24 186.963C1892.28 192.799 1898.16 197.26 1901.84 201.606C1906 206.525 1909.84 212.812 1910.47 219.262C1911.07 225.444 1908.38 231.696 1904.25 236.369C1896 245.707 1883.6 250.284 1871.09 250.256C1865.78 250.243 1859.77 250.004 1855.19 247.15C1853.77 246.268 1853.03 245.279 1852.18 243.904C1851.43 242.67 1850.43 241.868 1849.28 240.995C1846.74 239.078 1844.91 236.495 1843.74 233.603C1839.2 222.37 1842.83 208.474 1849.18 198.499C1850.69 196.135 1851.92 193.861 1851.19 191.044C1850.43 188.104 1848.55 185.452 1846.89 182.924C1845.25 180.426 1843.38 178.043 1842.1 175.342C1840.76 172.513 1840.38 169.55 1840.62 166.454C1841.06 160.637 1843.57 155.269 1847.13 150.591C1850.55 146.086 1854.57 141.774 1854.58 135.87C1854.59 129.613 1850.41 124.047 1852.19 117.685C1852.93 115.051 1854.41 112.348 1856.8 110.768C1859.09 109.254 1862.12 108.758 1864.81 108.429Z" fill="#DDE3E9"/>
<path fill-rule="evenodd" clip-rule="evenodd" d="M1862.94 118.432C1862.99 117.592 1863.99 117.088 1864.77 117.307C1865.81 117.596 1865.79 118.561 1865.76 119.421C1865.68 122.064 1866.06 124.633 1866.69 127.197C1868.01 132.529 1870.45 137.442 1872.39 142.564C1874.32 147.681 1875.23 152.965 1874.09 158.38C1873.02 163.486 1871.35 168.459 1870.25 173.571C1869.29 178.077 1868.26 182.828 1869.73 187.323C1871.14 191.649 1874.27 195.172 1876.51 199.081C1881.17 207.174 1883.23 216.152 1883.51 225.391C1883.64 229.681 1883.52 234.011 1882.53 238.219C1881.95 240.642 1881.18 243.916 1879.11 245.589C1878.15 246.36 1876.51 246.627 1875.71 245.485C1874.95 244.413 1875.61 242.755 1875.85 241.613C1876.89 236.669 1877.1 231.617 1876.85 226.598C1876.61 221.735 1876.04 216.881 1874.51 212.238C1873.09 207.929 1870.93 204.058 1868.39 200.288C1865.8 196.447 1863.11 192.597 1862.04 188.045C1860.96 183.422 1861.84 178.718 1863.02 174.183C1864.27 169.386 1865.9 164.728 1867.59 160.061C1869.24 155.514 1869.82 151.211 1868.91 146.452C1867.12 137.049 1862.31 128.224 1862.94 118.432Z" fill="#C5CFD6"/>
<path fill-rule="evenodd" clip-rule="evenodd" d="M1940.44 119.838C1943.99 120.914 1947.51 122.651 1950.04 125.374C1955.41 131.165 1953.76 139.917 1950.79 146.309C1947.6 153.189 1942.76 160.105 1945.49 167.999C1946.74 171.628 1948.85 174.915 1950.04 178.572C1951.31 182.48 1951.86 186.55 1951.79 190.628C1951.66 198.118 1949.67 206.111 1944.26 211.629C1939.5 216.488 1931.71 219.325 1929.93 226.462C1928.07 233.907 1932.61 242.244 1934.63 249.297C1936.91 257.28 1938.08 266.709 1935.41 274.665C1932.85 282.29 1926.39 288.284 1919.08 291.662C1904.47 298.412 1887.5 297.373 1872.85 290.834C1866.63 288.057 1859.7 284.646 1855.84 278.888C1854.64 277.109 1854.29 275.55 1854.03 273.485C1853.79 271.634 1853.05 270.167 1852.16 268.534C1850.2 264.948 1849.41 260.94 1849.57 256.912C1850.19 241.267 1861.79 226.72 1874.51 218.228C1877.52 216.216 1880.17 214.167 1880.8 210.456C1881.46 206.581 1880.66 202.469 1880.05 198.617C1879.45 194.81 1878.52 191.018 1878.44 187.158C1878.36 183.114 1879.49 179.413 1881.4 175.875C1885 169.227 1890.78 164.186 1897.42 160.503C1903.82 156.956 1910.81 153.948 1913.94 146.971C1917.26 139.576 1915.3 130.817 1920.75 124.22C1923.01 121.489 1926.18 119.063 1929.81 118.438C1933.3 117.839 1937.11 118.826 1940.44 119.838Z" fill="#DDE3E9"/>
<path fill-rule="evenodd" clip-rule="evenodd" d="M1933.2 132.067C1933.71 131.1 1935.14 131.025 1935.94 131.696C1936.99 132.58 1936.47 133.712 1935.98 134.716C1934.5 137.803 1933.6 141.045 1933 144.415C1931.76 151.422 1932.04 158.518 1931.61 165.597C1931.19 172.67 1929.49 179.403 1925.33 185.221C1921.4 190.708 1916.83 195.718 1912.88 201.198C1909.39 206.029 1905.71 211.119 1905.07 217.21C1904.45 223.073 1906.26 228.882 1906.84 234.69C1908.04 246.713 1905.76 258.427 1901.24 269.513C1899.14 274.661 1896.74 279.728 1893.37 284.189C1891.43 286.758 1888.82 290.233 1885.52 291.125C1883.99 291.537 1881.94 290.995 1881.59 289.219C1881.27 287.554 1882.91 285.938 1883.79 284.711C1887.6 279.402 1890.49 273.529 1892.83 267.454C1895.09 261.57 1896.96 255.52 1897.6 249.219C1898.2 243.372 1897.7 237.657 1896.71 231.862C1895.7 225.956 1894.57 219.987 1895.7 214.036C1896.85 207.992 1900.35 202.884 1904.1 198.132C1908.07 193.106 1912.42 188.446 1916.84 183.805C1921.15 179.283 1924.09 174.494 1925.52 168.381C1928.34 156.305 1927.34 143.334 1933.2 132.067Z" fill="#C5CFD6"/>
<path fill-rule="evenodd" clip-rule="evenodd" d="M1830.86 164.256C1836.75 164.256 1841.93 167.38 1845.5 171.814C1849.68 177.004 1850.53 183.342 1852.23 189.528C1853.07 192.606 1854.52 195.662 1857.07 197.754C1859.38 199.656 1862.32 200.036 1865.1 200.966C1870.63 202.823 1875.11 207.296 1876.87 212.755C1879.03 219.414 1876.75 226.129 1877.14 232.877C1877.5 239.075 1883.61 242.941 1888.53 245.912C1893.37 248.841 1897.74 251.584 1899.2 257.291C1900.75 263.343 1901.27 270.1 1899.12 276.079C1895.55 286.035 1885.1 290.419 1875.01 291.098C1865.84 291.715 1854.32 290.747 1847.44 284.096C1843.32 280.115 1841.83 274.549 1842.02 269.011C1842.13 265.567 1842.82 262.155 1843.7 258.827C1844.32 256.469 1845.17 254.12 1845.41 251.683C1846.05 245.198 1840.05 243.953 1834.95 242.172C1828.47 239.909 1823.93 235.636 1820.78 229.681C1817.84 224.137 1816.6 217.914 1818.37 211.81C1819.27 208.693 1820.9 205.866 1823.11 203.46C1824.09 202.402 1825.46 201.519 1826.34 200.407C1827.16 199.368 1826.98 198.022 1826.7 196.806C1825.39 191.186 1821.31 186.533 1819.86 180.924C1818.54 175.861 1819.32 169.56 1823.95 166.294C1825.95 164.882 1828.41 164.271 1830.86 164.256Z" fill="#C5CFD6"/>
<path fill-rule="evenodd" clip-rule="evenodd" d="M1838.89 178.897C1845.14 185.552 1846.83 194.581 1847.33 203.332C1847.61 208.239 1847.32 213.415 1848.76 218.175C1850 222.249 1852.89 225.363 1855.87 228.306C1861.87 234.231 1868.56 240.255 1870.32 248.83C1871.35 253.862 1870.65 259.059 1872.08 264.036C1873.37 268.56 1875.65 273.004 1878.42 276.824C1880.65 279.9 1883.56 282.256 1885.99 285.123C1886.74 285.998 1887.8 287.287 1887.5 288.523C1887.14 289.97 1885.29 290.428 1883.99 290.201C1880.94 289.671 1878.37 286.759 1876.38 284.642C1873.46 281.547 1870.98 278.218 1868.97 274.483C1866.73 270.336 1864.94 265.935 1864.17 261.282C1863.37 256.454 1863.77 251.424 1861.94 246.791C1858.88 238.996 1851.44 234.396 1846.06 228.32C1839.36 220.75 1840.36 211.327 1841.05 202.015C1841.42 196.897 1841.8 191.118 1839.21 186.445C1838.22 184.662 1836.02 182.999 1835.6 180.971C1835.21 179.114 1837.33 177.237 1838.89 178.897Z" fill="#AFB9C5"/>
<path fill-rule="evenodd" clip-rule="evenodd" d="M1845.55 288.256C1845.55 326.314 1851.76 346.256 1884.55 346.256C1917.34 346.256 1923.55 326.314 1923.55 288.256H1845.55Z" fill="#89C5CC"/>
<path fill-rule="evenodd" clip-rule="evenodd" d="M1792.81 134.221C1795.67 133.871 1798.73 133.995 1801.4 135.126C1807.06 137.53 1808.67 144.222 1808.59 149.662C1808.51 155.516 1807.27 161.911 1811.72 166.628C1813.76 168.797 1816.31 170.456 1818.32 172.665C1820.46 175.025 1822.15 177.725 1823.4 180.625C1825.69 185.952 1826.81 192.215 1824.72 197.803C1822.87 202.722 1818.23 207.162 1819.24 212.756C1820.28 218.591 1826.16 223.052 1829.84 227.399C1834 232.318 1837.84 238.604 1838.47 245.055C1839.07 251.237 1836.38 257.489 1832.25 262.162C1824 271.499 1811.6 276.077 1799.09 276.048C1793.78 276.036 1787.77 275.796 1783.19 272.943C1781.77 272.061 1781.03 271.072 1780.18 269.696C1779.43 268.463 1778.43 267.66 1777.28 266.788C1774.74 264.871 1772.91 262.287 1771.74 259.395C1767.2 248.162 1770.83 234.266 1777.18 224.291C1778.69 221.928 1779.92 219.654 1779.19 216.837C1778.43 213.897 1776.55 211.244 1774.89 208.717C1773.25 206.219 1771.38 203.836 1770.1 201.135C1768.76 198.305 1768.38 195.343 1768.62 192.246C1769.06 186.429 1771.57 181.062 1775.13 176.384C1778.55 171.878 1782.57 167.567 1782.58 161.663C1782.59 155.405 1778.41 149.839 1780.19 143.477C1780.93 140.843 1782.41 138.14 1784.8 136.561C1787.09 135.046 1790.12 134.551 1792.81 134.221Z" fill="#DDE3E9"/>
<path fill-rule="evenodd" clip-rule="evenodd" d="M1790.94 144.225C1790.99 143.384 1791.99 142.88 1792.77 143.1C1793.81 143.388 1793.79 144.354 1793.76 145.214C1793.68 147.857 1794.06 150.425 1794.69 152.99C1796.01 158.322 1798.45 163.234 1800.39 168.356C1802.32 173.474 1803.23 178.758 1802.09 184.173C1801.02 189.278 1799.35 194.252 1798.25 199.364C1797.29 203.869 1796.26 208.621 1797.73 213.115C1799.14 217.441 1802.27 220.964 1804.51 224.874C1809.17 232.966 1811.23 241.944 1811.51 251.184C1811.64 255.474 1811.52 259.804 1810.53 264.011C1809.95 266.434 1809.18 269.709 1807.11 271.382C1806.15 272.153 1804.51 272.42 1803.71 271.277C1802.95 270.206 1803.61 268.547 1803.85 267.405C1804.89 262.462 1805.1 257.41 1804.85 252.39C1804.61 247.528 1804.04 242.674 1802.51 238.03C1801.09 233.721 1798.93 229.851 1796.39 226.081C1793.8 222.239 1791.11 218.389 1790.04 213.838C1788.96 209.214 1789.84 204.51 1791.02 199.976C1792.27 195.179 1793.9 190.52 1795.59 185.853C1797.24 181.306 1797.82 177.004 1796.91 172.244C1795.12 162.842 1790.31 154.016 1790.94 144.225Z" fill="#C5CFD6"/>
<path fill-rule="evenodd" clip-rule="evenodd" d="M1868.44 145.631C1871.99 146.707 1875.51 148.444 1878.04 151.167C1883.41 156.957 1881.76 165.709 1878.79 172.102C1875.6 178.982 1870.76 185.897 1873.49 193.792C1874.74 197.421 1876.85 200.707 1878.04 204.364C1879.31 208.272 1879.86 212.342 1879.79 216.42C1879.66 223.911 1877.67 231.903 1872.26 237.421C1867.5 242.28 1859.71 245.118 1857.93 252.255C1856.07 259.7 1860.61 268.036 1862.63 275.09C1864.91 283.072 1866.08 292.501 1863.41 300.457C1860.85 308.082 1854.39 314.076 1847.08 317.454C1832.47 324.204 1815.5 323.166 1800.85 316.626C1794.63 313.85 1787.7 310.439 1783.84 304.681C1782.64 302.901 1782.29 301.342 1782.03 299.278C1781.79 297.427 1781.05 295.959 1780.16 294.327C1778.2 290.74 1777.41 286.732 1777.57 282.704C1778.19 267.059 1789.79 252.512 1802.51 244.02C1805.52 242.008 1808.17 239.96 1808.8 236.248C1809.46 232.374 1808.66 228.262 1808.05 224.41C1807.45 220.603 1806.52 216.811 1806.44 212.95C1806.36 208.906 1807.49 205.206 1809.4 201.667C1813 195.02 1818.78 189.978 1825.42 186.295C1831.82 182.748 1838.81 179.741 1841.94 172.763C1845.26 165.368 1843.3 156.609 1848.75 150.013C1851.01 147.281 1854.18 144.856 1857.81 144.231C1861.3 143.631 1865.11 144.618 1868.44 145.631Z" fill="#DDE3E9"/>
<path fill-rule="evenodd" clip-rule="evenodd" d="M1861.2 157.859C1861.71 156.892 1863.14 156.818 1863.94 157.489C1864.99 158.372 1864.47 159.505 1863.98 160.509C1862.5 163.595 1861.6 166.837 1861 170.208C1859.76 177.214 1860.04 184.311 1859.61 191.39C1859.19 198.463 1857.49 205.195 1853.33 211.014C1849.4 216.5 1844.83 221.51 1840.88 226.991C1837.39 231.822 1833.71 236.911 1833.07 243.002C1832.45 248.866 1834.26 254.674 1834.84 260.482C1836.04 272.505 1833.76 284.22 1829.24 295.306C1827.14 300.453 1824.74 305.52 1821.37 309.982C1819.43 312.551 1816.82 316.025 1813.52 316.918C1811.99 317.329 1809.94 316.787 1809.59 315.012C1809.27 313.347 1810.91 311.73 1811.79 310.504C1815.6 305.195 1818.49 299.321 1820.83 293.247C1823.09 287.362 1824.96 281.313 1825.6 275.012C1826.2 269.164 1825.7 263.45 1824.71 257.654C1823.7 251.749 1822.57 245.78 1823.7 239.829C1824.85 233.785 1828.35 228.676 1832.1 223.925C1836.07 218.899 1840.42 214.238 1844.84 209.597C1849.15 205.076 1852.09 200.286 1853.52 194.174C1856.34 182.098 1855.34 169.127 1861.2 157.859Z" fill="#C5CFD6"/>
<path fill-rule="evenodd" clip-rule="evenodd" d="M1758.86 190.048C1764.75 190.048 1769.93 193.173 1773.5 197.606C1777.68 202.796 1778.53 209.135 1780.23 215.32C1781.07 218.399 1782.52 221.455 1785.07 223.546C1787.38 225.448 1790.32 225.829 1793.1 226.758C1798.63 228.615 1803.11 233.089 1804.87 238.548C1807.03 245.207 1804.75 251.922 1805.14 258.67C1805.5 264.867 1811.61 268.734 1816.53 271.704C1821.37 274.634 1825.74 277.376 1827.2 283.083C1828.75 289.136 1829.27 295.892 1827.12 301.871C1823.55 311.827 1813.1 316.211 1803.01 316.891C1793.84 317.508 1782.32 316.539 1775.44 309.888C1771.32 305.908 1769.83 300.342 1770.02 294.803C1770.13 291.36 1770.82 287.948 1771.7 284.62C1772.32 282.261 1773.17 279.912 1773.41 277.475C1774.05 270.991 1768.05 269.745 1762.95 267.965C1756.47 265.702 1751.93 261.428 1748.78 255.474C1745.84 249.93 1744.6 243.706 1746.37 237.603C1747.27 234.486 1748.9 231.658 1751.11 229.253C1752.09 228.194 1753.46 227.311 1754.34 226.199C1755.16 225.161 1754.98 223.815 1754.7 222.598C1753.39 216.979 1749.31 212.326 1747.86 206.717C1746.54 201.654 1747.32 195.353 1751.95 192.086C1753.95 190.675 1756.41 190.064 1758.86 190.048Z" fill="#C5CFD6"/>
<path fill-rule="evenodd" clip-rule="evenodd" d="M1766.89 204.69C1773.14 211.344 1774.83 220.373 1775.33 229.124C1775.61 234.032 1775.32 239.208 1776.76 243.968C1778 248.041 1780.89 251.156 1783.87 254.099C1789.87 260.024 1796.56 266.047 1798.32 274.622C1799.35 279.654 1798.65 284.852 1800.08 289.829C1801.37 294.352 1803.65 298.797 1806.42 302.617C1808.65 305.693 1811.56 308.048 1813.99 310.916C1814.74 311.791 1815.8 313.08 1815.5 314.315C1815.14 315.762 1813.29 316.22 1811.99 315.993C1808.94 315.463 1806.37 312.551 1804.38 310.435C1801.46 307.339 1798.98 304.01 1796.97 300.275C1794.73 296.128 1792.94 291.727 1792.17 287.074C1791.37 282.247 1791.77 277.216 1789.94 272.583C1786.88 264.788 1779.44 260.188 1774.06 254.113C1767.36 246.542 1768.36 237.12 1769.05 227.807C1769.42 222.69 1769.8 216.91 1767.21 212.238C1766.22 210.454 1764.02 208.791 1763.6 206.764C1763.21 204.906 1765.33 203.029 1766.89 204.69Z" fill="#AFB9C5"/>
<path fill-rule="evenodd" clip-rule="evenodd" d="M1773.55 314.048C1773.55 352.107 1779.76 372.048 1812.55 372.048C1845.34 372.048 1851.55 352.107 1851.55 314.048H1773.55Z" fill="#89C5CC"/>
<g opacity="0.5">
<path opacity="0.5" fill-rule="evenodd" clip-rule="evenodd" d="M1816.27 -73.8948C1820.48 -79.8868 1828.28 -95.1046 1834.19 -97.2457C1838 -98.6248 1836.89 -84.3592 1836.94 -81.6391C1837.12 -71.1154 1836.09 -60.6584 1834.83 -50.223C1832.55 -31.4028 1825.1 -14.642 1814.87 1.37592C1809.61 9.6181 1803.44 17.9602 1794.9 23.103C1790.96 25.4713 1786.23 25.8678 1782.35 27.9084C1777.82 30.2838 1780.29 28.3635 1778.25 33.0781C1775.41 39.6238 1774.51 48.0684 1773.2 55.0528C1767.18 87.1152 1752.62 256.605 1755.14 289.219C1755.37 292.109 1751.34 292.801 1751.14 289.272C1750.07 270.56 1759.32 140.983 1763.99 98.6073C1768.66 56.2318 1773.39 18.7951 1778.12 4.13454C1783.87 -13.6519 1794.25 -35.0414 1802.89 -51.6281C1806.91 -59.3338 1811.28 -66.7741 1816.27 -73.8948Z" fill="#69A1AC"/>
<path opacity="0.5" fill-rule="evenodd" clip-rule="evenodd" d="M1847.47 133.938C1858.4 125.91 1870.24 141.062 1860.34 149.091C1854.87 153.529 1849.15 151.95 1845.93 148.252C1843.84 150.799 1841.89 153.463 1840.01 155.713C1834.28 162.569 1828.87 169.589 1823.7 176.772C1812.95 191.695 1803.74 207.461 1794.11 222.939C1784.61 238.215 1775.18 253.569 1766.57 269.231C1759.27 282.501 1749.55 298.113 1747.05 312.661C1750.84 281.807 1765.22 252.151 1782.35 224.951C1799.34 197.975 1818.83 168.513 1845.13 147.224C1842.46 143.288 1842.38 137.669 1847.47 133.938Z" fill="#C1DEE2"/>
<path opacity="0.5" fill-rule="evenodd" clip-rule="evenodd" d="M1639.96 58.6914C1646.08 59.8881 1656.08 73.7308 1661.13 79.005C1667.12 85.2726 1672.56 91.953 1677.69 98.9524C1688.72 114.018 1698.59 130.036 1706.99 146.741C1720.67 173.972 1731.63 201.925 1739.58 231.578C1744.45 249.73 1747.61 268.544 1749.48 287.226C1749.83 290.749 1753.52 317.914 1748.2 318.646C1743.41 319.305 1744.89 298.019 1744.66 295.124C1742.05 262.458 1734.23 230.675 1723.35 199.887C1720.98 193.18 1718.78 184.965 1714.99 178.929C1712.26 174.582 1714.97 176.098 1710.17 174.453C1706.06 173.039 1701.36 173.384 1697.15 171.654C1687.99 167.897 1680.65 160.604 1674.22 153.269C1661.73 139.012 1651.83 123.589 1646.66 105.321C1643.8 95.1922 1641.17 85.0045 1639.71 74.5625C1639.33 71.8635 1636.02 57.9206 1639.96 58.6914Z" fill="#69A1AC"/>
<path opacity="0.5" fill-rule="evenodd" clip-rule="evenodd" d="M1664.11 -171.623C1687.16 -131.649 1706.1 -87.7381 1718.34 -43.2631C1725.75 -16.3162 1730.93 11.3353 1736.08 38.7871C1744.05 81.2927 1751.59 123.795 1753.73 167.056C1755.89 210.567 1760.16 260.752 1745.91 302.661C1753.03 260.112 1746.25 214.823 1745.05 172.01C1744.48 151.573 1742.82 131.334 1740.64 111.016C1738.53 91.3058 1735.07 71.6896 1731.85 52.1344C1730.29 42.6107 1728.64 33.1013 1726.96 23.5972C1726.46 20.7616 1726.25 12.3474 1724.45 10.4103C1722.64 8.46045 1713.41 7.66556 1710.51 6.23486C1704.67 3.35327 1699.17 -0.739838 1694.31 -5.06471C1684.99 -13.3554 1676.89 -24.1882 1670.49 -34.8669C1655.68 -59.5756 1649.76 -89.7293 1650.06 -118.345C1650.12 -123.901 1659.06 -183.729 1655.47 -184.553C1655.68 -184.806 1655.89 -185.068 1656.08 -185.339C1658.8 -180.791 1661.46 -176.211 1664.11 -171.623Z" fill="#89C5CC"/>
<path opacity="0.5" fill-rule="evenodd" clip-rule="evenodd" d="M1912.9 -27.4521C1913.25 -27.9651 1915.57 -31.5327 1914.4 -31.3047C1916.78 -31.7689 1911.14 -27.37 1917.05 -30.0691C1914.24 -27.4174 1915.86 -23.9729 1915.9 -20.404C1915.96 -14.6097 1914.99 -8.86293 1913.9 -3.19296C1912.18 5.76951 1909.61 14.4837 1905.88 22.8198C1897.75 40.9863 1883.95 58.4748 1867.57 69.8323C1859.48 75.44 1851.56 77.3492 1842.33 79.9307C1836.5 81.5617 1836.04 84.5756 1832.95 90.2295C1826.51 102.005 1820.19 113.739 1814.51 125.912C1807.73 140.448 1801.15 155 1794.94 169.792C1774.02 219.618 1757 271.239 1748.06 324.661C1747.84 293.179 1755.12 260.756 1764.31 230.749C1771 208.886 1779.71 187.812 1789 166.95C1791.25 161.896 1794.67 155.395 1795.62 149.815C1796.29 145.906 1794.24 142.146 1793.31 138.028C1789.65 121.99 1789.91 104.023 1793.12 87.9001C1796.66 70.1213 1806.89 61.8695 1824.2 59.3512C1830.53 58.4301 1838.57 58.7677 1844.37 56.0691C1850.7 53.1304 1853.31 43.4709 1856.9 37.2702C1866.56 20.614 1878.03 4.63973 1891.21 -9.3945C1894.85 -13.2808 1898.78 -16.8661 1902.94 -20.1893C1905.56 -22.286 1911.11 -24.8692 1912.9 -27.4521Z" fill="#89C5CC"/>
<path opacity="0.5" fill-rule="evenodd" clip-rule="evenodd" d="M1718.84 290.661H1780.26C1783.02 290.661 1785.26 292.899 1785.26 295.661C1785.26 295.905 1785.24 296.149 1785.21 296.39L1780.46 328.579C1779.01 338.391 1770.59 345.661 1760.67 345.661H1738.43C1728.51 345.661 1720.09 338.391 1718.64 328.579L1713.9 296.39C1713.49 293.658 1715.38 291.117 1718.11 290.714C1718.36 290.679 1718.6 290.661 1718.84 290.661Z" fill="#C1DEE2"/>
</g>
<g opacity="0.5">
<path opacity="0.5" fill-rule="evenodd" clip-rule="evenodd" d="M1896.27 -73.8948C1900.48 -79.8868 1908.28 -95.1046 1914.19 -97.2457C1918 -98.6248 1916.89 -84.3592 1916.94 -81.6391C1917.12 -71.1154 1916.09 -60.6584 1914.83 -50.223C1912.55 -31.4028 1905.1 -14.642 1894.87 1.37592C1889.61 9.6181 1883.44 17.9602 1874.9 23.103C1870.96 25.4713 1866.23 25.8678 1862.35 27.9084C1857.82 30.2838 1860.29 28.3635 1858.25 33.0781C1855.41 39.6238 1854.51 48.0684 1853.2 55.0528C1847.18 87.1152 1832.62 256.605 1835.14 289.219C1835.37 292.109 1831.34 292.801 1831.14 289.272C1830.07 270.56 1839.32 140.983 1843.99 98.6073C1848.66 56.2318 1853.39 18.7951 1858.12 4.13454C1863.87 -13.6519 1874.25 -35.0414 1882.89 -51.6281C1886.91 -59.3338 1891.28 -66.7741 1896.27 -73.8948Z" fill="#69A1AC"/>
<path opacity="0.5" fill-rule="evenodd" clip-rule="evenodd" d="M1927.47 133.938C1938.4 125.91 1950.24 141.062 1940.34 149.091C1934.87 153.529 1929.15 151.95 1925.93 148.252C1923.84 150.799 1921.89 153.463 1920.01 155.713C1914.28 162.569 1908.87 169.589 1903.7 176.772C1892.95 191.695 1883.74 207.461 1874.11 222.939C1864.61 238.215 1855.18 253.569 1846.57 269.231C1839.27 282.501 1829.55 298.113 1827.05 312.661C1830.84 281.807 1845.22 252.151 1862.35 224.951C1879.34 197.975 1898.83 168.513 1925.13 147.224C1922.46 143.288 1922.38 137.669 1927.47 133.938Z" fill="#C1DEE2"/>
<path opacity="0.5" fill-rule="evenodd" clip-rule="evenodd" d="M1719.96 58.6914C1726.08 59.8881 1736.08 73.7308 1741.13 79.005C1747.12 85.2726 1752.56 91.953 1757.69 98.9524C1768.72 114.018 1778.59 130.036 1786.99 146.741C1800.67 173.972 1811.63 201.925 1819.58 231.578C1824.45 249.73 1827.61 268.544 1829.48 287.226C1829.83 290.749 1833.52 317.914 1828.2 318.646C1823.41 319.305 1824.89 298.019 1824.66 295.124C1822.05 262.458 1814.23 230.675 1803.35 199.887C1800.98 193.18 1798.78 184.965 1794.99 178.929C1792.26 174.582 1794.97 176.098 1790.17 174.453C1786.06 173.039 1781.36 173.384 1777.15 171.654C1767.99 167.897 1760.65 160.604 1754.22 153.269C1741.73 139.012 1731.83 123.589 1726.66 105.321C1723.8 95.1922 1721.17 85.0045 1719.71 74.5625C1719.33 71.8635 1716.02 57.9206 1719.96 58.6914Z" fill="#69A1AC"/>
<path opacity="0.5" fill-rule="evenodd" clip-rule="evenodd" d="M1744.11 -171.623C1767.16 -131.649 1786.1 -87.7381 1798.34 -43.2631C1805.75 -16.3162 1810.93 11.3353 1816.08 38.7871C1824.05 81.2927 1831.59 123.795 1833.73 167.056C1835.89 210.567 1840.16 260.752 1825.91 302.661C1833.03 260.112 1826.25 214.823 1825.05 172.01C1824.48 151.573 1822.82 131.334 1820.64 111.016C1818.53 91.3058 1815.07 71.6896 1811.85 52.1344C1810.29 42.6107 1808.64 33.1013 1806.96 23.5972C1806.46 20.7616 1806.25 12.3474 1804.45 10.4103C1802.64 8.46045 1793.41 7.66556 1790.51 6.23486C1784.67 3.35327 1779.17 -0.739838 1774.31 -5.06471C1764.99 -13.3554 1756.89 -24.1882 1750.49 -34.8669C1735.68 -59.5756 1729.76 -89.7293 1730.06 -118.345C1730.12 -123.901 1739.06 -183.729 1735.47 -184.553C1735.68 -184.806 1735.89 -185.068 1736.08 -185.339C1738.8 -180.791 1741.46 -176.211 1744.11 -171.623Z" fill="#89C5CC"/>
<path opacity="0.5" fill-rule="evenodd" clip-rule="evenodd" d="M1992.9 -27.4521C1993.25 -27.9651 1995.57 -31.5327 1994.4 -31.3047C1996.78 -31.7689 1991.14 -27.37 1997.05 -30.0691C1994.24 -27.4174 1995.86 -23.9729 1995.9 -20.404C1995.96 -14.6097 1994.99 -8.86293 1993.9 -3.19296C1992.18 5.76951 1989.61 14.4837 1985.88 22.8198C1977.75 40.9863 1963.95 58.4748 1947.57 69.8323C1939.48 75.44 1931.56 77.3492 1922.33 79.9307C1916.5 81.5617 1916.04 84.5756 1912.95 90.2295C1906.51 102.005 1900.19 113.739 1894.51 125.912C1887.73 140.448 1881.15 155 1874.94 169.792C1854.02 219.618 1837 271.239 1828.06 324.661C1827.84 293.179 1835.12 260.756 1844.31 230.749C1851 208.886 1859.71 187.812 1869 166.95C1871.25 161.896 1874.67 155.395 1875.62 149.815C1876.29 145.906 1874.24 142.146 1873.31 138.028C1869.65 121.99 1869.91 104.023 1873.12 87.9001C1876.66 70.1213 1886.89 61.8695 1904.2 59.3512C1910.53 58.4301 1918.57 58.7677 1924.37 56.0691C1930.7 53.1304 1933.31 43.4709 1936.9 37.2702C1946.56 20.614 1958.03 4.63973 1971.21 -9.3945C1974.85 -13.2808 1978.78 -16.8661 1982.94 -20.1893C1985.56 -22.286 1991.11 -24.8692 1992.9 -27.4521Z" fill="#89C5CC"/>
<path opacity="0.5" fill-rule="evenodd" clip-rule="evenodd" d="M1798.84 290.661H1860.26C1863.02 290.661 1865.26 292.899 1865.26 295.661C1865.26 295.905 1865.24 296.149 1865.21 296.39L1860.46 328.579C1859.01 338.391 1850.59 345.661 1840.67 345.661H1818.43C1808.51 345.661 1800.09 338.391 1798.64 328.579L1793.9 296.39C1793.49 293.658 1795.38 291.117 1798.11 290.714C1798.36 290.679 1798.6 290.661 1798.84 290.661Z" fill="#C1DEE2"/>
</g>
<path opacity="0.2" fill-rule="evenodd" clip-rule="evenodd" d="M127.759 -179.481C131.27 -181.222 135.951 -179.203 133.999 -174.6C131.907 -169.672 124.174 -169.611 119.806 -169.708C120.243 -169.731 121.651 -174.251 122.133 -174.934C123.554 -176.949 125.601 -178.409 127.759 -179.481ZM87.3303 -89.6741C86.0901 -88.6138 87.2294 -89.5747 87.3303 -89.6741V-89.6741ZM131.84 -156.597C133.94 -155.008 134.038 -152.201 132.322 -150.3C130.278 -148.037 126.547 -148.117 123.763 -148.336C122.503 -148.435 115.777 -148.965 117.372 -150.056C117.249 -150.01 116.993 -149.899 116.719 -149.747C116.571 -149.213 116.416 -148.681 116.254 -148.152C116.294 -148.129 116.328 -148.104 116.37 -148.082C116.324 -148.101 116.292 -148.123 116.252 -148.143C114.632 -142.85 112.327 -137.809 109.31 -133.093C110.438 -133.534 111.606 -133.867 112.791 -134.016C116.3 -134.457 123.68 -131.761 119.753 -127.132C115.987 -122.694 110.131 -127.45 105.86 -128.104C101.714 -122.376 97.1434 -116.886 92.3537 -111.579C92.647 -111.488 92.9043 -111.298 93.0517 -111.003C94.9726 -111.969 96.9744 -113.351 98.752 -113.725C101.317 -114.265 106.576 -114.594 108.513 -112.322C110.896 -109.527 108.339 -107.255 105.522 -106.718C101.437 -105.938 96.0918 -107.912 92.1624 -109.245C91.7128 -109.166 91.2221 -109.296 90.9291 -109.652C90.8423 -109.68 90.7555 -109.708 90.671 -109.735C85.8206 -104.454 80.7849 -99.3469 75.7798 -94.352C75.8331 -94.3547 75.8863 -94.358 75.9419 -94.3609C77.2472 -95.2092 78.6473 -95.9053 80.1646 -96.2704C83.6747 -97.1193 87.8042 -97.1256 90.651 -94.612C93.4868 -92.1093 94.4896 -87.7301 91.5531 -84.9167C85.6753 -79.285 77.026 -92.1145 74.0628 -92.6487C68.9766 -87.6259 63.5987 -82.9328 58.1365 -78.3342C58.7566 -78.5215 59.3926 -78.6593 60.0498 -78.7214C65.4041 -79.2317 77.9675 -72.7376 71.3936 -66.3386C65.6649 -60.7623 59.0432 -71.4861 54.4307 -75.2353C49.2835 -70.9492 44.1083 -66.6925 39.0782 -62.27C41.8208 -62.9925 44.4709 -63.1001 47.4101 -62.2219C50.4514 -61.3118 55.3585 -59.0397 53.4335 -54.9715C51.4757 -50.8344 45.5827 -52.7135 42.5135 -54.0252C40.8395 -54.7405 37.4838 -57.1561 34.5369 -58.1728C26.5101 -50.6672 19.5566 -42.4013 14.2905 -32.6654C11.0029 -26.5866 8.50715 -20.0927 6.74937 -13.4187C5.62738 -9.15875 3.41732 -2.00389 3.8562 3.53962C1.75646 -7.55598 5.57018 -20.8852 9.67621 -30.8058C13.4516 -39.9284 19.0989 -47.9379 25.7124 -55.1483C24.0562 -60.0883 10.0983 -67.2075 18.4471 -71.8021C22.8805 -74.2314 27.4179 -70.2064 28.3846 -65.9416C29.0485 -63.0109 28.0328 -59.3276 26.9553 -56.4822C29.0358 -58.6802 31.1985 -60.8076 33.4269 -62.8645C36.5066 -65.7072 39.66 -68.4676 42.8435 -71.1932C37.6023 -76.0692 32.6468 -90.0138 39.6787 -92.2984C50.0626 -95.6624 45.0539 -76.6354 44.3278 -73.0695C44.1221 -73.0573 43.9618 -73.1188 43.844 -73.2507C43.9022 -72.9242 43.9698 -72.575 44.0517 -72.2229C50.1449 -77.4125 56.3283 -82.5 62.3081 -87.8134C61.7698 -88.2074 60.9144 -89.7132 60.242 -90.5145C58.7245 -92.321 57.2726 -94.2082 56.2119 -96.3219C54.5364 -99.6622 52.9215 -104.991 57.3686 -106.958C62.2049 -109.102 64.4996 -103.075 64.5314 -99.4797C64.5531 -96.9928 63.8681 -94.6301 63.5106 -92.1924C63.3989 -91.4321 63.8259 -88.0055 62.7809 -89.4792C62.8299 -88.9356 62.8369 -88.542 62.8122 -88.2629C63.8859 -89.2216 64.9512 -90.1907 66.0097 -91.1667C65.9608 -91.2899 65.9245 -91.4242 65.9164 -91.5799C65.8602 -92.6519 66.9496 -93.0653 67.7133 -92.7517C69.1101 -94.0664 70.4933 -95.3976 71.8519 -96.7553C74.7312 -99.6316 77.6524 -102.59 80.5534 -105.611C79.9246 -106.146 80.1752 -106.887 79.5871 -107.455C79.0001 -108.022 77.8434 -108.335 77.153 -108.861C75.4166 -110.185 73.977 -112.115 72.9362 -114.015C71.2179 -117.154 68.9984 -123.739 74.0238 -125.238C79.2036 -126.785 81.8291 -120.447 82.1601 -116.483C82.2245 -115.715 81.6404 -108.796 81.1947 -106.283C86.5625 -111.898 91.8423 -117.724 96.6259 -123.65C95.1764 -123.663 91.0684 -126.602 90.238 -127.404C88.2119 -129.36 84.9917 -133.684 88.5467 -135.975C91.7077 -138.007 95.6012 -135.068 96.951 -132.211C97.1729 -131.741 97.9538 -127.361 98.0139 -125.396C99.9938 -127.909 101.883 -130.437 103.64 -132.973C104.812 -134.659 105.907 -136.39 106.932 -138.157C106.686 -138.295 106.454 -138.537 106.235 -138.836C100.965 -139.72 94.2502 -147.86 100.442 -150.696C103.39 -152.045 106.585 -149.266 108.028 -146.989C108.323 -146.524 108.801 -144.182 109.19 -142.335C112.139 -148.189 114.393 -154.387 116.11 -160.741C115.651 -160.854 115.263 -161.201 115.212 -161.798C112.654 -163.241 110.634 -164.443 108.849 -167.22C107.74 -168.945 105.744 -172.886 109.005 -173.845C113.248 -175.094 115.911 -168.677 116.256 -165.516C116.296 -165.149 116.294 -164.081 116.28 -163.103C116.427 -163.123 116.576 -163.121 116.722 -163.096C117.699 -167.03 118.478 -171.015 119.099 -175.007C116.784 -175.744 116.389 -187.789 117.932 -189.505C121.381 -193.347 123.81 -187.801 123.624 -184.869C123.405 -181.411 121.822 -178.266 119.937 -175.474C119.734 -175.178 119.792 -175.192 119.74 -175.604C119.711 -175.401 119.642 -175.25 119.54 -175.142C119.636 -173.322 119.825 -171.459 119.733 -169.848C119.47 -165.237 118.925 -160.598 118.135 -156.046C117.943 -154.938 117.723 -153.84 117.476 -152.752C119.339 -154.323 121.849 -155.72 122.831 -156.157C125.381 -157.289 129.309 -158.513 131.84 -156.597ZM3.43916 3.10185C3.56221 4.58368 3.92766 5.93605 4.64713 7.04403C4.11898 5.77747 3.72285 4.4585 3.43916 3.10185Z" fill="#C1DEE2"/>
<g opacity="0.5">
<path opacity="0.5" fill-rule="evenodd" clip-rule="evenodd" d="M95.7659 -28.4827C99.9683 -34.4747 107.767 -49.6925 113.681 -51.8336C117.491 -53.2127 116.38 -38.9471 116.427 -36.227C116.61 -25.7033 115.586 -15.2462 114.321 -4.81086C112.041 14.0093 104.588 30.7701 94.365 46.788C89.1045 55.0302 82.9344 63.3723 74.3884 68.5151C70.4547 70.8834 65.7215 71.28 61.8367 73.3205C57.3123 75.6959 59.7763 73.7756 57.7373 78.4902C54.9058 85.0359 54.0001 93.4805 52.69 100.465C46.6745 132.527 32.1113 302.017 34.636 334.631C34.8602 337.522 30.8295 338.213 30.6283 334.684C29.5588 315.972 38.8134 186.395 43.4825 144.019C48.1517 101.644 52.8766 64.2072 57.6143 49.5466C63.3618 31.7602 73.7422 10.3707 82.3831 -6.21595C86.3968 -13.9217 90.7717 -21.362 95.7659 -28.4827Z" fill="#69A1AC"/>
<path opacity="0.5" fill-rule="evenodd" clip-rule="evenodd" d="M126.957 179.351C137.892 171.322 149.728 186.474 139.833 194.503C134.363 198.941 128.644 197.362 125.425 193.664C123.335 196.212 121.379 198.875 119.499 201.125C113.772 207.981 108.36 215.001 103.187 222.184C92.441 237.107 83.232 252.873 73.6033 268.351C64.101 283.627 54.6748 298.981 46.062 314.643C38.7659 327.914 29.041 343.525 26.543 358.073C30.3331 327.219 44.7148 297.563 61.841 270.363C78.8278 243.387 98.3221 213.926 124.624 192.636C121.947 188.7 121.873 183.081 126.957 179.351Z" fill="#C1DEE2"/>
<path opacity="0.5" fill-rule="evenodd" clip-rule="evenodd" d="M-80.5438 104.104C-74.4246 105.3 -64.4258 119.143 -59.3817 124.417C-53.3872 130.685 -47.9486 137.365 -42.8222 144.364C-31.7859 159.43 -21.9159 175.449 -13.5231 192.153C0.159416 219.384 11.1209 247.337 19.0761 276.99C23.9458 295.142 27.0987 313.956 28.9673 332.638C29.3202 336.161 33.0142 363.326 27.6914 364.058C22.904 364.717 24.3827 343.431 24.1517 340.536C21.541 307.871 13.7202 276.088 2.84149 245.299C0.471954 238.592 -1.72944 230.377 -5.51889 224.341C-8.24783 219.994 -5.53846 221.51 -10.3342 219.865C-14.4521 218.451 -19.1439 218.796 -23.3607 217.066C-32.5214 213.309 -39.8565 206.016 -46.2861 198.681C-58.7813 184.424 -68.683 169.001 -73.8444 150.733C-76.7076 140.604 -79.3387 130.417 -80.7988 119.975C-81.1765 117.276 -84.4852 103.333 -80.5438 104.104Z" fill="#69A1AC"/>
<path opacity="0.5" fill-rule="evenodd" clip-rule="evenodd" d="M-56.3957 -126.211C-33.3457 -86.2368 -14.4043 -42.326 -2.17361 2.14899C5.23671 29.0959 10.419 56.7474 15.5679 84.1992C23.5402 126.705 31.0811 169.207 33.2261 212.468C35.3841 255.979 39.6515 306.164 25.4038 348.073C32.5206 305.524 25.7449 260.235 24.5452 217.423C23.9719 196.985 22.3106 176.746 20.1312 156.428C18.0164 136.718 14.5613 117.102 11.3439 97.5465C9.77661 88.0228 8.13062 78.5135 6.45477 69.0093C5.95447 66.1737 5.74313 57.7595 3.9444 55.8224C2.13403 53.8726 -7.10275 53.0777 -10.0027 51.647C-15.8421 48.7654 -21.3349 44.6723 -26.1961 40.3474C-35.5152 32.0567 -43.6224 21.2239 -50.0212 10.5452C-64.8263 -14.1635 -70.7454 -44.3172 -70.4463 -72.9331C-70.3888 -78.489 -61.4536 -138.317 -65.0421 -139.141C-64.8261 -139.394 -64.6217 -139.655 -64.429 -139.927C-61.7122 -135.378 -59.0462 -130.799 -56.3957 -126.211Z" fill="#89C5CC"/>
<path opacity="0.5" fill-rule="evenodd" clip-rule="evenodd" d="M192.389 17.96C192.745 17.4471 195.06 13.8794 193.894 14.1074C196.267 13.6432 190.63 18.0422 196.543 15.343C193.735 17.9947 195.356 21.4392 195.393 25.0081C195.454 30.8024 194.485 36.5492 193.394 42.2191C191.669 51.1816 189.1 59.8958 185.371 68.2319C177.244 86.3984 163.444 103.887 147.061 115.244C138.973 120.852 131.047 122.761 121.823 125.343C115.996 126.974 115.534 129.988 112.441 135.642C106.003 147.418 99.6786 159.151 94.0002 171.324C87.2198 185.86 80.6377 200.412 74.4289 215.204C53.5124 265.03 36.4883 316.651 27.5478 370.073C27.3289 338.591 34.6116 306.168 43.7981 276.161C50.4898 254.298 59.2013 233.224 68.4929 212.362C70.7444 207.308 74.1564 200.807 75.1126 195.228C75.7821 191.318 73.7352 187.558 72.7981 183.44C69.1445 167.403 69.406 149.435 72.6144 133.312C76.1519 115.533 86.3822 107.282 103.688 104.763C110.017 103.842 118.062 104.18 123.865 101.481C130.188 98.5425 132.796 88.883 136.392 82.6824C146.049 66.0262 157.523 50.0518 170.698 36.0176C174.346 32.1313 178.269 28.546 182.431 25.2228C185.056 23.1261 190.6 20.5429 192.389 17.96Z" fill="#89C5CC"/>
</g>
<path opacity="0.2" fill-rule="evenodd" clip-rule="evenodd" d="M187.148 -153.077C190.659 -154.818 195.34 -152.798 193.387 -148.196C191.296 -143.267 183.562 -143.206 179.195 -143.304C179.632 -143.326 181.04 -147.846 181.522 -148.529C182.943 -150.544 184.989 -152.004 187.148 -153.077ZM146.719 -63.2693C145.479 -62.209 146.618 -63.1699 146.719 -63.2693V-63.2693ZM191.229 -130.193C193.328 -128.604 193.427 -125.796 191.71 -123.895C189.666 -121.632 185.936 -121.712 183.151 -121.931C181.892 -122.03 175.166 -122.56 176.761 -123.651C176.638 -123.605 176.382 -123.494 176.108 -123.342C175.96 -122.809 175.805 -122.277 175.643 -121.747C175.683 -121.724 175.716 -121.7 175.759 -121.677C175.713 -121.697 175.681 -121.718 175.64 -121.738C174.02 -116.445 171.715 -111.405 168.698 -106.689C169.826 -107.129 170.995 -107.463 172.18 -107.611C175.689 -108.053 183.069 -105.356 179.142 -100.727C175.376 -96.2895 169.519 -101.045 165.249 -101.699C161.103 -95.9709 156.532 -90.4808 151.742 -85.1739C152.036 -85.0831 152.293 -84.8937 152.44 -84.5986C154.361 -85.5645 156.363 -86.9458 158.141 -87.3204C160.706 -87.8602 165.965 -88.1894 167.902 -85.9169C170.285 -83.1225 167.728 -80.8506 164.911 -80.313C160.826 -79.5333 155.48 -81.5069 151.551 -82.8403C151.101 -82.7613 150.611 -82.8913 150.318 -83.2473C150.231 -83.2754 150.144 -83.3031 150.06 -83.33C145.209 -78.049 140.174 -72.9421 135.169 -67.9472C135.222 -67.95 135.275 -67.9532 135.331 -67.9561C136.636 -68.8044 138.036 -69.5005 139.553 -69.8656C143.063 -70.7145 147.193 -70.7208 150.04 -68.2072C152.875 -65.7045 153.878 -61.3253 150.942 -58.5119C145.064 -52.8802 136.415 -65.7097 133.451 -66.2439C128.365 -61.2211 122.987 -56.528 117.525 -51.9294C118.145 -52.1167 118.781 -52.2545 119.439 -52.3166C124.793 -52.8269 137.356 -46.3328 130.782 -39.9338C125.054 -34.3576 118.432 -45.0814 113.819 -48.8306C108.672 -44.5445 103.497 -40.2878 98.4669 -35.8653C101.209 -36.5877 103.86 -36.6953 106.799 -35.8171C109.84 -34.9071 114.747 -32.6349 112.822 -28.5667C110.864 -24.4296 104.971 -26.3087 101.902 -27.6204C100.228 -28.3357 96.8725 -30.7513 93.9256 -31.768C85.8988 -24.2624 78.9452 -15.9965 73.6792 -6.26066C70.3916 -0.181863 67.8958 6.31207 66.138 12.9861C65.0161 17.246 62.806 24.4009 63.2449 29.9444C61.1451 18.8488 64.9589 5.51955 69.0649 -4.40105C72.8403 -13.5236 78.4875 -21.5331 85.1011 -28.7435C83.4449 -33.6835 69.487 -40.8027 77.8358 -45.3973C82.2691 -47.8266 86.8066 -43.8016 87.7732 -39.5368C88.4372 -36.6061 87.4214 -32.9228 86.344 -30.0774C88.4245 -32.2754 90.5871 -34.4028 92.8156 -36.4597C95.8953 -39.3024 99.0487 -42.0628 102.232 -44.7884C96.991 -49.6645 92.0355 -63.609 99.0674 -65.8936C109.451 -69.2576 104.443 -50.2307 103.716 -46.6647C103.511 -46.6525 103.351 -46.7141 103.233 -46.8459C103.291 -46.5194 103.358 -46.1702 103.44 -45.8182C109.534 -51.0077 115.717 -56.0952 121.697 -61.4086C121.158 -61.8026 120.303 -63.3084 119.631 -64.1097C118.113 -65.9163 116.661 -67.8034 115.601 -69.9171C113.925 -73.2574 112.31 -78.5858 116.757 -80.5533C121.594 -82.697 123.888 -76.6706 123.92 -73.0749C123.942 -70.588 123.257 -68.2253 122.899 -65.7876C122.788 -65.0273 123.215 -61.6008 122.17 -63.0744C122.219 -62.5309 122.226 -62.1372 122.201 -61.8581C123.275 -62.8168 124.34 -63.7859 125.398 -64.762C125.349 -64.8851 125.313 -65.0194 125.305 -65.1751C125.249 -66.2471 126.338 -66.6605 127.102 -66.3469C128.499 -67.6616 129.882 -68.9929 131.241 -70.3505C134.12 -73.2268 137.041 -76.1851 139.942 -79.2064C139.313 -79.7413 139.564 -80.4826 138.976 -81.0505C138.389 -81.6171 137.232 -81.9301 136.542 -82.4563C134.805 -83.7806 133.366 -85.7106 132.325 -87.6102C130.607 -90.749 128.387 -97.334 133.412 -98.8329C138.592 -100.38 141.218 -94.0418 141.549 -90.0782C141.613 -89.3104 141.029 -82.391 140.583 -79.8783C145.951 -85.4932 151.231 -91.3187 156.015 -97.2453C154.565 -97.2579 150.457 -100.197 149.627 -100.999C147.601 -102.956 144.38 -107.279 147.935 -109.57C151.096 -111.602 154.99 -108.663 156.34 -105.806C156.562 -105.336 157.342 -100.956 157.403 -98.9912C159.383 -101.504 161.271 -104.032 163.029 -106.568C164.201 -108.254 165.296 -109.985 166.321 -111.752C166.074 -111.891 165.843 -112.132 165.624 -112.432C160.354 -113.315 153.639 -121.455 159.831 -124.291C162.779 -125.64 165.974 -122.861 167.416 -120.585C167.712 -120.119 168.19 -117.777 168.579 -115.93C171.527 -121.785 173.782 -127.982 175.498 -134.336C175.04 -134.449 174.651 -134.796 174.6 -135.393C172.042 -136.836 170.022 -138.038 168.238 -140.815C167.129 -142.54 165.132 -146.481 168.393 -147.441C172.637 -148.689 175.299 -142.272 175.645 -139.111C175.685 -138.744 175.683 -137.677 175.668 -136.698C175.816 -136.718 175.965 -136.716 176.111 -136.691C177.087 -140.625 177.867 -144.61 178.488 -148.602C176.172 -149.339 175.778 -161.384 177.321 -163.1C180.769 -166.942 183.198 -161.396 183.013 -158.464C182.794 -155.007 181.21 -151.861 179.325 -149.069C179.123 -148.773 179.181 -148.788 179.128 -149.199C179.099 -148.996 179.031 -148.846 178.929 -148.737C179.025 -146.917 179.213 -145.054 179.122 -143.444C178.858 -138.832 178.314 -134.193 177.524 -129.641C177.332 -128.534 177.112 -127.435 176.865 -126.347C178.727 -127.918 181.238 -129.315 182.22 -129.752C184.769 -130.884 188.698 -132.108 191.229 -130.193ZM62.8278 29.5066C62.9509 30.9885 63.3163 32.3408 64.0358 33.4488C63.5076 32.1823 63.1115 30.8633 62.8278 29.5066Z" fill="#C1DEE2"/>
<g opacity="0.5">
<path opacity="0.5" fill-rule="evenodd" clip-rule="evenodd" d="M155.155 -2.07794C159.357 -8.06995 167.155 -23.2877 173.07 -25.4288C176.88 -26.8079 175.769 -12.5424 175.816 -9.82222C175.999 0.701521 174.975 11.1585 173.709 21.5939C171.43 40.4141 163.977 57.1749 153.754 73.1928C148.493 81.435 142.323 89.7771 133.777 94.9199C129.843 97.2882 125.11 97.6847 121.225 99.7253C116.701 102.101 119.165 100.18 117.126 104.895C114.294 111.441 113.389 119.885 112.079 126.87C106.063 158.932 91.5 328.422 94.0247 361.036C94.2489 363.926 90.2181 364.618 90.0169 361.089C88.9474 342.377 98.2021 212.8 102.871 170.424C107.54 128.049 112.265 90.612 117.003 75.9514C122.75 58.165 133.131 36.7755 141.772 20.1888C145.785 12.4831 150.16 5.04278 155.155 -2.07794Z" fill="#69A1AC"/>
<path opacity="0.5" fill-rule="evenodd" clip-rule="evenodd" d="M186.346 205.755C197.281 197.727 209.117 212.879 199.222 220.908C193.752 225.346 188.033 223.767 184.814 220.069C182.724 222.616 180.767 225.28 178.888 227.53C173.161 234.386 167.748 241.406 162.576 248.589C151.83 263.512 142.621 279.278 132.992 294.756C123.49 310.032 114.063 325.386 105.451 341.048C98.1545 354.318 88.4296 369.93 85.9316 384.478C89.7218 353.624 104.104 323.968 121.23 296.768C138.216 269.792 157.711 240.33 184.013 219.041C181.336 215.105 181.261 209.485 186.346 205.755Z" fill="#C1DEE2"/>
<path opacity="0.5" fill-rule="evenodd" clip-rule="evenodd" d="M-21.1552 130.508C-15.0359 131.705 -5.03714 145.548 0.00693893 150.822C6.00149 157.089 11.44 163.77 16.5665 170.769C27.6027 185.835 37.4727 201.853 45.8656 218.557C59.5481 245.788 70.5096 273.742 78.4648 303.395C83.3345 321.547 86.4874 340.361 88.356 359.043C88.7088 362.566 92.4028 389.73 87.08 390.463C82.2927 391.122 83.7713 369.836 83.5404 366.941C80.9297 334.275 73.1089 302.492 62.2302 271.704C59.8606 264.997 57.6592 256.782 53.8698 250.746C51.1408 246.399 53.8502 247.915 49.0545 246.269C44.9366 244.856 40.2448 245.201 36.0279 243.471C26.8673 239.714 19.5322 232.421 13.1025 225.085C0.607399 210.829 -9.29436 195.406 -14.4557 177.138C-17.3189 167.009 -19.95 156.821 -21.4101 146.379C-21.7878 143.68 -25.0965 129.738 -21.1552 130.508Z" fill="#69A1AC"/>
<path opacity="0.5" fill-rule="evenodd" clip-rule="evenodd" d="M2.993 -99.8064C26.0429 -59.832 44.9844 -15.9212 57.2151 28.5538C64.6254 55.5007 69.8076 83.1522 74.9566 110.604C82.9289 153.11 90.4697 195.612 92.6148 238.873C94.7728 282.384 99.0401 332.569 84.7925 374.478C91.9093 331.929 85.1336 286.64 83.9339 243.827C83.3606 223.389 81.6993 203.151 79.5199 182.833C77.4051 163.123 73.95 143.506 70.7326 123.951C69.1653 114.428 67.5193 104.918 65.8434 95.4141C65.3431 92.5785 65.1318 84.1643 63.3331 82.2272C61.5227 80.2773 52.2859 79.4825 49.386 78.0518C43.5466 75.1702 38.0538 71.0771 33.1925 66.7522C23.8734 58.4615 15.7663 47.6287 9.3675 36.95C-5.43767 12.2413 -11.3568 -17.9124 -11.0576 -46.5283C-11.0001 -52.0842 -2.06496 -111.913 -5.65346 -112.736C-5.43741 -112.989 -5.23303 -113.251 -5.04032 -113.522C-2.32352 -108.974 0.342453 -104.394 2.993 -99.8064Z" fill="#89C5CC"/>
<path opacity="0.5" fill-rule="evenodd" clip-rule="evenodd" d="M251.778 44.3648C252.133 43.8518 254.448 40.2842 253.283 40.5122C255.656 40.048 250.018 44.4469 255.932 41.7478C253.124 44.3994 254.744 47.844 254.782 51.4129C254.843 57.2072 253.874 62.954 252.782 68.6239C251.058 77.5864 248.489 86.3006 244.76 94.6367C236.633 112.803 222.833 130.292 206.45 141.649C198.362 147.257 190.436 149.166 181.211 151.748C175.385 153.379 174.923 156.393 171.83 162.046C165.391 173.822 159.067 185.556 153.389 197.729C146.609 212.265 140.026 226.817 133.818 241.609C112.901 291.435 95.877 343.055 86.9364 396.478C86.7175 364.996 94.0003 332.573 103.187 302.566C109.879 280.703 118.59 259.628 127.882 238.767C130.133 233.713 133.545 227.212 134.501 221.632C135.171 217.723 133.124 213.963 132.187 209.845C128.533 193.807 128.795 175.84 132.003 159.717C135.541 141.938 145.771 133.686 163.077 131.168C169.406 130.247 177.45 130.585 183.254 127.886C189.577 124.947 192.185 115.288 195.78 109.087C205.437 92.4309 216.911 76.4566 230.087 62.4224C233.735 58.5361 237.658 54.9508 241.82 51.6276C244.445 49.5309 249.989 46.9477 251.778 44.3648Z" fill="#89C5CC"/>
</g>
<path opacity="0.2" fill-rule="evenodd" clip-rule="evenodd" d="M134.615 -154.761C138.126 -156.502 142.807 -154.483 140.854 -149.88C138.763 -144.951 131.029 -144.89 126.662 -144.988C127.099 -145.011 128.507 -149.531 128.988 -150.214C130.41 -152.229 132.456 -153.689 134.615 -154.761ZM94.1858 -64.9539C92.9456 -63.8936 94.0848 -64.8545 94.1858 -64.9539V-64.9539ZM138.696 -131.877C140.795 -130.288 140.894 -127.481 139.177 -125.58C137.133 -123.316 133.403 -123.397 130.618 -123.616C129.358 -123.715 122.633 -124.245 124.228 -125.336C124.105 -125.29 123.849 -125.178 123.575 -125.027C123.427 -124.493 123.272 -123.961 123.11 -123.432C123.149 -123.409 123.183 -123.384 123.225 -123.361C123.18 -123.381 123.148 -123.403 123.107 -123.423C121.487 -118.13 119.182 -113.089 116.165 -108.373C117.293 -108.814 118.462 -109.147 119.647 -109.296C123.156 -109.737 130.536 -107.04 126.609 -102.412C122.843 -97.9741 116.986 -102.73 112.715 -103.384C108.569 -97.6555 103.999 -92.1654 99.2092 -86.8585C99.5025 -86.7677 99.7598 -86.5782 99.9072 -86.2832C101.828 -87.2491 103.83 -88.6304 105.607 -89.005C108.172 -89.5448 113.432 -89.874 115.369 -87.6015C117.752 -84.8071 115.195 -82.5351 112.378 -81.9976C108.293 -81.2179 102.947 -83.1915 99.0179 -84.5248C98.5683 -84.4459 98.0776 -84.5759 97.7846 -84.9318C97.6978 -84.96 97.611 -84.9876 97.5265 -85.0145C92.6761 -79.7336 87.6404 -74.6267 82.6353 -69.6317C82.6886 -69.6345 82.7418 -69.6378 82.7973 -69.6407C84.1027 -70.4889 85.5027 -71.1851 87.0201 -71.5501C90.5302 -72.3991 94.6596 -72.4054 97.5065 -69.8918C100.342 -67.389 101.345 -63.0099 98.4086 -60.1964C92.5307 -54.5648 83.8814 -67.3943 80.9183 -67.9285C75.832 -62.9057 70.4542 -58.2126 64.992 -53.614C65.6121 -53.8013 66.248 -53.939 66.9053 -54.0012C72.2595 -54.5115 84.823 -48.0174 78.2491 -41.6184C72.5204 -36.0421 65.8986 -46.7659 61.2862 -50.5151C56.139 -46.229 50.9638 -41.9723 45.9337 -37.5498C48.6762 -38.2723 51.3264 -38.3799 54.2656 -37.5017C57.3069 -36.5916 62.2139 -34.3195 60.289 -30.2513C58.3311 -26.1142 52.4381 -27.9933 49.369 -29.305C47.695 -30.0203 44.3393 -32.4359 41.3924 -33.4526C33.3656 -25.947 26.412 -17.681 21.146 -7.94523C17.8584 -1.86643 15.3626 4.6275 13.6048 11.3016C12.4829 15.5615 10.2728 22.7163 10.7117 28.2598C8.61193 17.1642 12.4257 3.83498 16.5317 -6.08562C20.3071 -15.2081 25.9543 -23.2177 32.5679 -30.4281C30.9117 -35.3681 16.9538 -42.4873 25.3026 -47.0819C29.7359 -49.5112 34.2734 -45.4862 35.24 -41.2214C35.904 -38.2907 34.8882 -34.6074 33.8108 -31.762C35.8913 -33.96 38.0539 -36.0874 40.2824 -38.1443C43.3621 -40.987 46.5155 -43.7474 49.699 -46.473C44.4578 -51.349 39.5023 -65.2936 46.5342 -67.5782C56.918 -70.9422 51.9093 -51.9152 51.1833 -48.3493C50.9776 -48.3371 50.8173 -48.3986 50.6995 -48.5304C50.7577 -48.2039 50.8253 -47.8548 50.9072 -47.5027C57.0003 -52.6922 63.1837 -57.7798 69.1636 -63.0932C68.6253 -63.4871 67.7699 -64.9929 67.0975 -65.7943C65.58 -67.6008 64.1281 -69.488 63.0674 -71.6017C61.3919 -74.9419 59.777 -80.2704 64.224 -82.2379C69.0604 -84.3815 71.355 -78.3552 71.3869 -74.7594C71.4086 -72.2726 70.7235 -69.9099 70.3661 -67.4722C70.2544 -66.7119 70.6813 -63.2853 69.6364 -64.7589C69.6854 -64.2154 69.6923 -63.8218 69.6677 -63.5427C70.7413 -64.5014 71.8066 -65.4705 72.8652 -66.4465C72.8163 -66.5697 72.78 -66.704 72.7718 -66.8597C72.7157 -67.9317 73.8051 -68.3451 74.5687 -68.0315C75.9656 -69.3462 77.3488 -70.6774 78.7073 -72.0351C81.5867 -74.9113 84.5079 -77.8697 87.4088 -80.891C86.7801 -81.4259 87.0306 -82.1671 86.4426 -82.7351C85.8555 -83.3017 84.6989 -83.6146 84.0085 -84.1409C82.272 -85.4652 80.8325 -87.3952 79.7917 -89.2948C78.0733 -92.4335 75.8539 -99.0186 80.8792 -100.518C86.059 -102.065 88.6846 -95.7264 89.0156 -91.7628C89.08 -90.9949 88.4959 -84.0755 88.0501 -81.5628C93.418 -87.1778 98.6977 -93.0033 103.481 -98.9299C102.032 -98.9425 97.9239 -101.882 97.0935 -102.684C95.0674 -104.64 91.8472 -108.964 95.4022 -111.255C98.5632 -113.286 102.457 -110.348 103.806 -107.491C104.028 -107.02 104.809 -102.641 104.869 -100.676C106.849 -103.189 108.738 -105.717 110.495 -108.253C111.667 -109.939 112.763 -111.67 113.788 -113.437C113.541 -113.575 113.309 -113.816 113.09 -114.116C107.821 -114.999 101.106 -123.14 107.297 -125.976C110.245 -127.325 113.44 -124.545 114.883 -122.269C115.179 -121.804 115.656 -119.462 116.045 -117.615C118.994 -123.469 121.248 -129.667 122.965 -136.021C122.506 -136.134 122.118 -136.48 122.067 -137.077C119.509 -138.521 117.489 -139.723 115.704 -142.5C114.596 -144.225 112.599 -148.166 115.86 -149.125C120.104 -150.374 122.766 -143.957 123.112 -140.795C123.152 -140.428 123.15 -139.361 123.135 -138.383C123.283 -138.403 123.431 -138.401 123.578 -138.375C124.554 -142.31 125.334 -146.295 125.955 -150.287C123.639 -151.024 123.245 -163.069 124.788 -164.785C128.236 -168.627 130.665 -163.08 130.48 -160.148C130.26 -156.691 128.677 -153.545 126.792 -150.754C126.59 -150.458 126.647 -150.472 126.595 -150.884C126.566 -150.68 126.497 -150.53 126.395 -150.421C126.492 -148.602 126.68 -146.739 126.588 -145.128C126.325 -140.517 125.78 -135.878 124.991 -131.325C124.798 -130.218 124.578 -129.12 124.332 -128.031C126.194 -129.603 128.705 -130.999 129.687 -131.436C132.236 -132.569 136.165 -133.793 138.696 -131.877ZM10.2946 27.8221C10.4177 29.3039 10.7831 30.6563 11.5026 31.7642C10.9744 30.4977 10.5783 29.1787 10.2946 27.8221Z" fill="#C1DEE2"/>
<g opacity="0.5">
<path opacity="0.5" fill-rule="evenodd" clip-rule="evenodd" d="M102.621 -3.76251C106.824 -9.75452 114.622 -24.9723 120.537 -27.1134C124.346 -28.4925 123.236 -14.2269 123.283 -11.5068C123.466 -0.983049 122.441 9.47397 121.176 19.9094C118.897 38.7295 111.443 55.4903 101.22 71.5082C95.96 79.7504 89.7898 88.0926 81.2439 93.2353C77.3102 95.6036 72.577 96.0002 68.6922 98.0407C64.1678 100.416 66.6318 98.4958 64.5928 103.21C61.7612 109.756 60.8555 118.201 59.5454 125.185C53.53 157.247 38.9667 326.737 41.4915 359.351C41.7157 362.242 37.6849 362.933 37.4837 359.404C36.4142 340.692 45.6689 211.115 50.338 168.74C55.0071 126.364 59.7321 88.9275 64.4698 74.2669C70.2173 56.4804 80.5976 35.0909 89.2386 18.5043C93.2522 10.7985 97.6272 3.35821 102.621 -3.76251Z" fill="#69A1AC"/>
<path opacity="0.5" fill-rule="evenodd" clip-rule="evenodd" d="M133.813 204.071C144.748 196.043 156.584 211.194 146.689 219.223C141.219 223.661 135.5 222.083 132.28 218.384C130.19 220.932 128.234 223.596 126.355 225.845C120.628 232.701 115.215 239.721 110.042 246.904C99.2964 261.828 90.0874 277.594 80.4587 293.071C70.9565 308.347 61.5302 323.701 52.9175 339.364C45.6213 352.634 35.8964 368.245 33.3984 382.793C37.1885 351.939 51.5703 322.283 68.6965 295.083C85.6833 268.107 105.178 238.646 131.479 217.357C128.803 213.42 128.728 207.801 133.813 204.071Z" fill="#C1DEE2"/>
<path opacity="0.5" fill-rule="evenodd" clip-rule="evenodd" d="M-73.6884 128.824C-67.5691 130.02 -57.5703 143.863 -52.5263 149.137C-46.5317 155.405 -41.0932 162.085 -35.9667 169.085C-24.9305 184.151 -15.0605 200.169 -6.66764 216.873C7.01488 244.104 17.9764 272.058 25.9316 301.711C30.8013 319.862 33.9542 338.676 35.8228 357.358C36.1756 360.881 39.8696 388.046 34.5468 388.778C29.7595 389.437 31.2381 368.152 31.0072 365.256C28.3965 332.591 20.5757 300.808 9.69696 270.019C7.32742 263.312 5.12603 255.097 1.33658 249.061C-1.39236 244.714 1.31701 246.23 -3.47874 244.585C-7.59665 243.171 -12.2884 243.517 -16.5053 241.786C-25.6659 238.03 -33.001 230.737 -39.4307 223.401C-51.9258 209.144 -61.8276 193.721 -66.9889 175.453C-69.8521 165.325 -72.4832 155.137 -73.9433 144.695C-74.321 141.996 -77.6297 128.053 -73.6884 128.824Z" fill="#69A1AC"/>
<path opacity="0.5" fill-rule="evenodd" clip-rule="evenodd" d="M-49.5402 -101.491C-26.4903 -61.5166 -7.54879 -17.6058 4.68186 26.8692C12.0922 53.8161 17.2744 81.4676 22.4234 108.919C30.3957 151.425 37.9365 193.927 40.0816 237.188C42.2396 280.699 46.5069 330.885 32.2593 372.793C39.3761 330.245 32.6004 284.955 31.4007 242.143C30.8274 221.705 29.1661 201.467 26.9867 181.148C24.8719 161.438 21.4168 141.822 18.1994 122.267C16.6321 112.743 14.9861 103.234 13.3102 93.7295C12.8099 90.8939 12.5986 82.4798 10.7999 80.5426C8.98949 78.5928 -0.247276 77.7979 -3.14719 76.3672C-8.98664 73.4856 -14.4794 69.3925 -19.3407 65.0676C-28.6598 56.7769 -36.7669 45.9441 -43.1657 35.2655C-57.9709 10.5567 -63.89 -19.597 -63.5908 -48.2129C-63.5333 -53.7688 -54.5982 -113.597 -58.1867 -114.421C-57.9706 -114.674 -57.7662 -114.935 -57.5735 -115.207C-54.8567 -110.658 -52.1908 -106.079 -49.5402 -101.491Z" fill="#89C5CC"/>
<path opacity="0.5" fill-rule="evenodd" clip-rule="evenodd" d="M199.245 42.6803C199.6 42.1673 201.915 38.5996 200.749 38.8276C203.123 38.3634 197.485 42.7624 203.398 40.0632C200.591 42.7149 202.211 46.1595 202.249 49.7283C202.31 55.5226 201.34 61.2694 200.249 66.9394C198.525 75.9018 195.956 84.616 192.227 92.9522C184.1 111.119 170.3 128.607 153.917 139.965C145.829 145.572 137.902 147.481 128.678 150.063C122.852 151.694 122.39 154.708 119.297 160.362C112.858 172.138 106.534 183.871 100.856 196.044C94.0753 210.58 87.4932 225.133 81.2843 239.925C60.3679 289.75 43.3438 341.371 34.4032 394.793C34.1843 363.311 41.4671 330.888 50.6535 300.881C57.3453 279.019 66.0568 257.944 75.3484 237.082C77.5999 232.029 81.0119 225.527 81.9681 219.948C82.6376 216.038 80.5907 212.279 79.6535 208.16C75.9999 192.123 76.2614 174.156 79.4698 158.032C83.0073 140.254 93.2377 132.002 110.544 129.484C116.873 128.562 124.917 128.9 130.721 126.201C137.043 123.263 139.652 113.603 143.247 107.403C152.904 90.7464 164.378 74.7721 177.553 60.7378C181.202 56.8516 185.125 53.2662 189.287 49.9431C191.912 47.8463 197.456 45.2631 199.245 42.6803Z" fill="#89C5CC"/>
</g>
<path fill-rule="evenodd" clip-rule="evenodd" d="M107.509 176.786C105.27 175.676 102.284 176.964 103.53 179.899C104.864 183.043 109.796 183.082 112.581 183.019C112.303 183.005 111.405 180.122 111.098 179.687C110.191 178.402 108.886 177.47 107.509 176.786ZM133.311 233.147C133.876 233.63 133.357 233.192 133.311 233.147V233.147ZM105.352 191.005C104.041 192.006 103.979 193.775 105.049 194.972C106.324 196.398 108.652 196.346 110.389 196.207C111.175 196.144 115.372 195.808 114.377 195.121C114.454 195.15 114.613 195.22 114.784 195.316C114.876 195.652 114.973 195.987 115.074 196.321C115.049 196.335 115.028 196.35 115.002 196.365C115.03 196.352 115.05 196.339 115.075 196.326C116.085 199.66 117.521 202.835 119.402 205.805C118.698 205.528 117.969 205.319 117.23 205.225C115.041 204.948 110.435 206.65 112.884 209.565C115.232 212.359 118.888 209.361 121.553 208.948C124.138 212.555 126.988 216.013 129.975 219.355C129.792 219.412 129.631 219.531 129.539 219.717C128.341 219.109 127.092 218.24 125.983 218.004C124.383 217.665 121.102 217.459 119.892 218.892C118.405 220.653 119.999 222.083 121.757 222.421C124.305 222.911 127.641 221.666 130.093 220.825C130.374 220.874 130.68 220.792 130.863 220.568C130.917 220.55 130.971 220.533 131.024 220.516C134.049 223.841 137.189 227.057 140.31 230.202C140.277 230.201 140.244 230.199 140.209 230.197C139.395 229.663 138.522 229.225 137.575 228.995C135.385 228.461 132.809 228.459 131.032 230.043C129.261 231.621 128.634 234.38 130.466 236.152C134.131 239.698 139.532 231.612 141.381 231.275C144.553 234.438 147.907 237.393 151.314 240.288C150.927 240.17 150.53 240.084 150.12 240.045C146.779 239.725 138.938 243.821 143.038 247.85C146.611 251.361 150.746 244.603 153.625 242.239C156.835 244.938 160.063 247.618 163.2 250.403C161.489 249.949 159.835 249.882 158.001 250.436C156.103 251.01 153.041 252.443 154.24 255.006C155.461 257.611 159.138 256.426 161.054 255.598C162.098 255.147 164.193 253.624 166.032 252.983C171.038 257.709 175.374 262.914 178.656 269.046C180.706 272.875 182.261 276.965 183.355 281.17C184.054 283.853 185.431 288.36 185.155 291.853C186.469 284.862 184.093 276.465 181.535 270.216C179.182 264.47 175.661 259.426 171.537 254.885C172.572 251.773 181.283 247.283 176.075 244.391C173.31 242.862 170.478 245.399 169.873 248.086C169.458 249.933 170.09 252.253 170.762 254.045C169.464 252.661 168.116 251.322 166.726 250.027C164.805 248.237 162.839 246.498 160.853 244.782C164.125 241.709 167.221 232.922 162.835 231.485C156.357 229.369 159.476 241.354 159.928 243.601C160.056 243.608 160.156 243.569 160.23 243.486C160.193 243.692 160.151 243.912 160.1 244.134C156.3 240.866 152.443 237.663 148.714 234.317C149.05 234.069 149.584 233.12 150.004 232.615C150.951 231.476 151.858 230.287 152.52 228.955C153.567 226.85 154.576 223.493 151.802 222.254C148.785 220.905 147.351 224.703 147.33 226.968C147.316 228.535 147.743 230.023 147.965 231.559C148.034 232.038 147.767 234.197 148.419 233.268C148.389 233.611 148.384 233.859 148.399 234.034C147.73 233.431 147.065 232.821 146.405 232.206C146.436 232.128 146.458 232.044 146.464 231.946C146.499 231.27 145.819 231.01 145.343 231.208C144.472 230.38 143.609 229.542 142.762 228.687C140.966 226.876 139.145 225.013 137.336 223.11C137.728 222.773 137.572 222.306 137.939 221.948C138.305 221.591 139.027 221.394 139.458 221.062C140.542 220.227 141.441 219.011 142.091 217.813C143.164 215.835 144.551 211.686 141.416 210.743C138.184 209.77 136.544 213.764 136.336 216.262C136.296 216.745 136.658 221.104 136.936 222.687C133.588 219.152 130.296 215.483 127.313 211.751C128.217 211.742 130.781 209.889 131.3 209.384C132.565 208.151 134.575 205.425 132.358 203.983C130.386 202.704 127.956 204.557 127.113 206.357C126.974 206.654 126.486 209.413 126.448 210.651C125.213 209.069 124.035 207.476 122.94 205.879C122.209 204.817 121.526 203.727 120.887 202.614C121.041 202.527 121.186 202.375 121.322 202.186C124.611 201.628 128.803 196.498 124.941 194.712C123.102 193.864 121.107 195.616 120.206 197.05C120.022 197.344 119.723 198.819 119.48 199.983C117.642 196.296 116.237 192.392 115.168 188.389C115.454 188.318 115.697 188.099 115.729 187.723C117.325 186.813 118.586 186.055 119.7 184.305C120.393 183.218 121.64 180.734 119.605 180.131C116.958 179.346 115.295 183.389 115.078 185.381C115.053 185.612 115.054 186.285 115.063 186.901C114.971 186.888 114.878 186.89 114.787 186.906C114.179 184.427 113.693 181.917 113.307 179.402C114.752 178.937 115.002 171.349 114.04 170.268C111.89 167.848 110.372 171.344 110.487 173.191C110.623 175.369 111.61 177.35 112.785 179.108C112.911 179.295 112.875 179.286 112.908 179.026C112.926 179.154 112.969 179.249 113.032 179.318C112.972 180.464 112.854 181.638 112.91 182.652C113.073 185.558 113.412 188.48 113.903 191.348C114.022 192.045 114.159 192.737 114.313 193.423C113.151 192.434 111.585 191.554 110.973 191.28C109.382 190.567 106.932 189.797 105.352 191.005ZM185.342 291.863C185.268 292.876 185.085 293.803 184.744 294.568C185 293.697 185.196 292.792 185.342 291.863Z" fill="#F2F2F2"/>
<g opacity="0.7">
<path opacity="0.7" fill-rule="evenodd" clip-rule="evenodd" d="M151.071 245.406C157.29 245.084 164.982 248.714 165.646 255.475C166.128 260.387 165.979 265.285 166.725 270.19C167.321 274.11 168.583 277.873 170.303 281.443C171.958 284.877 175.389 287.8 176.282 291.468C176.851 293.805 176.532 297.093 175.748 299.379C174.794 302.159 175.301 301.939 177.202 304.272C180.927 308.843 184.282 313.53 186.654 318.989C190.071 326.852 192.311 336.043 191.043 344.65C190.882 345.743 190.69 349.665 189.185 349.939C187.504 350.246 188.29 348.003 188.38 347.278C188.952 342.654 189.46 338.613 188.77 333.917C186.108 315.799 173.111 303.862 164.647 288.485C164.182 287.692 163.2 285.804 162.517 284.558C161.439 282.591 160.355 278.849 158.895 277.39C156.147 274.643 158.674 280.166 159.209 281.221C159.887 282.554 160.632 283.972 161.326 285.141C164.501 290.558 168.045 296.472 171.324 302.056C157.141 305.287 147.153 288.236 143.346 277.026C140.211 267.79 136.459 246.197 151.071 245.406Z" fill="#69A1AC"/>
<path opacity="0.7" fill-rule="evenodd" clip-rule="evenodd" d="M234.431 228.255C224.034 229.08 217.36 235.941 214.252 245.536C212.578 250.708 212.386 256.02 211.455 261.334C210.055 269.33 207.043 275.389 201.156 281.085C199.333 282.849 197.99 284.661 197.034 286.599C195.138 288.534 193.488 290.723 192.275 293.4C190.726 296.819 190.288 300.92 192.076 304.328C192.557 305.245 193.757 307.084 195 307.92C190.346 317.833 187.786 328.69 188.075 339.533C188.249 346.078 188.569 352.626 188.941 359.163C189.042 360.919 189.613 363.817 190.472 360.874C191.258 358.181 190.272 353.954 190.181 351.141C189.738 337.437 189.358 324.977 194.999 312.174C195.591 310.832 196.218 309.501 196.871 308.18C196.91 308.158 196.945 308.131 196.981 308.105C197.006 308.124 197.029 308.145 197.054 308.164C197.095 308.09 197.152 308.001 197.219 307.902C197.406 307.709 197.57 307.464 197.726 307.192C198.226 306.498 198.792 305.684 198.795 305.238C198.795 305.234 198.793 305.229 198.793 305.226C202.286 299.525 206.285 294.139 210.371 288.858C210.34 288.896 214.803 282.82 214.113 286.18C213.78 287.799 210.498 290.883 209.172 292.598C206.24 296.414 202.796 301.248 199.935 305.923C199.55 306.144 199.006 307.231 198.612 308.04C198.395 308.45 198.192 308.864 197.993 309.224C208.132 312.574 216.02 305.826 221.398 297.977C221.405 297.968 221.41 297.958 221.416 297.949C223.053 295.78 224.73 293.627 226.824 291.913C230.319 289.052 234.061 288.547 238.181 287.139C249.417 283.3 254.194 268.739 255.711 257.934C257.423 245.745 249.05 227.053 234.431 228.255Z" fill="#89C5CC"/>
<path opacity="0.7" fill-rule="evenodd" clip-rule="evenodd" d="M213.893 194.119C203.222 205.225 198.067 220.63 193.985 235.111C189.425 251.286 186.414 267.71 186.298 284.526C186.223 295.575 185.922 306.692 186.567 317.728C186.796 321.647 187.186 325.574 187.808 329.451C187.859 329.769 189.249 338.426 190.578 336.409C191.335 335.262 189.154 327.429 188.989 326.124C188.062 318.775 187.846 311.373 187.892 303.971C187.966 291.785 187.607 279.661 188.842 267.519C189.026 265.706 189.172 263.802 189.602 262.029C190.059 260.143 189.477 260.966 190.966 260.22C192.413 259.494 194.202 259.598 195.703 258.687C201.658 255.076 204.705 245.8 207.076 239.714C209.788 232.754 211.436 225.332 212.753 218.008C213.719 212.626 214.41 207.278 214.801 201.827C214.925 200.109 214.932 198.313 215.27 196.624C215.361 196.168 215.817 195.362 215.8 194.958C215.765 194.104 215.25 193.602 215.208 192.885C214.761 193.287 214.322 193.698 213.893 194.119Z" fill="#89C5CC"/>
<path opacity="0.7" fill-rule="evenodd" clip-rule="evenodd" d="M191.632 342.196H189.875C189.997 339.991 190.158 337.79 190.527 335.61C191.936 327.272 196.344 315.026 206.011 313.672C206.368 313.622 207.68 313.613 209.269 313.707C210.022 313.286 210.866 313.031 211.755 312.973C219.985 312.366 229.177 319.006 233.147 325.916C236.348 331.487 235.808 338.803 233.832 344.722C232.508 348.685 229.619 354.335 224.801 354.39C218.773 354.459 218.482 347.008 218.365 342.653C218.21 336.863 217.479 331.819 212.916 327.872C211.853 326.952 210.69 326.143 209.616 325.237C207.934 323.817 206.076 322.364 205.859 320.016C205.56 316.777 207.388 316.194 210.18 316.796C210.656 316.898 215.45 319.05 214.74 317.349C214.523 316.83 213.732 316.418 212.733 316.11C210.148 315.829 207.065 315.503 206.178 315.698C196.614 317.796 192.89 331.045 191.901 339.463C191.794 340.371 191.708 341.283 191.632 342.196Z" fill="#69A1AC"/>
</g>
<path fill-rule="evenodd" clip-rule="evenodd" d="M1454.38 47.9488C1451.87 42.666 1450.8 36.7304 1452.8 30.9352C1458.55 14.2374 1481.24 24.3286 1483.54 34.1524C1485.85 43.9762 1479.46 65.6164 1473.1 65.5558C1470.56 65.5316 1465.9 62.6762 1461.58 58.1926L1458.69 81.9253L1439.6 76.8115L1454.38 47.9488Z" fill="#D4A181"/>
<path fill-rule="evenodd" clip-rule="evenodd" d="M1461.3 48.5221C1457.72 52.4307 1453.53 54.9746 1450.26 54.0984C1444.05 52.4342 1441.86 42.9468 1444.25 34.0185C1444.33 33.7048 1444.42 33.3948 1444.52 33.0888C1436.74 35.837 1429.3 43.3673 1420.6 41.0379C1408.77 37.8687 1410.47 12.754 1426.99 17.1818C1438.23 20.193 1443.32 23.3127 1447.44 27.0122C1449.09 24.615 1451.11 22.7718 1453.28 21.686C1453.83 21.3245 1454.6 21.0437 1455.55 20.8463C1456.13 20.704 1456.72 20.6182 1457.31 20.5925C1460.46 20.3065 1464.82 20.6769 1469.52 21.7601C1470.39 21.9624 1471.25 22.182 1472.08 22.416C1473.26 18.0394 1477.77 15.4452 1482.15 16.6198C1486.54 17.7965 1489.15 22.3108 1487.97 26.7025C1486.83 30.9498 1482.58 33.5271 1478.32 32.6278C1475.73 32.7252 1472.5 32.4429 1469.02 31.7565C1469.02 33.0928 1468.82 34.5582 1468.39 36.1595C1468.01 37.5735 1467.46 39.0313 1466.76 40.477C1466.26 39.3977 1465.42 38.5575 1464.41 38.288C1461.6 37.5343 1459.02 39.3237 1458.36 41.7808C1457.53 44.8992 1458.72 47.6375 1461.3 48.5221Z" fill="#191847"/>
<path fill-rule="evenodd" clip-rule="evenodd" d="M1415.26 149.588L1445.41 253.505L1459.6 331.528H1473.84L1459.62 149.588H1415.26Z" fill="#BA8B72"/>
<path fill-rule="evenodd" clip-rule="evenodd" d="M1401.71 149.588C1403.81 203.573 1402.98 233.017 1402.51 237.922C1402.04 242.827 1399.36 275.675 1381.15 333.174H1395.95C1420.08 278.014 1428.5 245.165 1431.27 237.922C1434.04 230.679 1442.21 201.234 1454.14 149.588H1401.71Z" fill="#D4A181"/>
<path fill-rule="evenodd" clip-rule="evenodd" d="M1414.61 149.588C1422.46 185.346 1436.02 242.425 1455.31 320.825H1476.13C1477.67 240.355 1471.13 187.393 1459.8 149.588H1414.61Z" fill="#69A1AC"/>
<path fill-rule="evenodd" clip-rule="evenodd" d="M1401.6 149.588C1403.66 203.573 1398.32 256.757 1381.78 321.666H1403.99C1428.17 267.328 1445.49 214.406 1457.33 149.588H1401.6Z" fill="#89C5CC"/>
<path fill-rule="evenodd" clip-rule="evenodd" d="M1474.16 103.308L1505.02 92.8578C1510.68 88.1258 1516.05 84.6229 1521.14 82.3491C1522.63 82.0145 1525.12 82.0917 1522.14 85.72C1519.16 89.3483 1516.18 93.2987 1517.12 94.7437C1518.06 96.1887 1521.25 94.9634 1522.26 97.2687C1522.94 98.8056 1517.63 100.109 1506.34 101.178L1482.59 116.295L1474.16 103.308ZM1515.94 124.084L1529.5 119.473C1532.4 113.179 1535.06 110.224 1537.48 110.608C1539.48 110.073 1534.79 117.843 1538.43 117.739C1542.07 117.635 1551.77 112.771 1553.01 114.326C1554.86 116.627 1551.88 122.164 1549.06 124.685C1543.81 129.397 1539.93 130.64 1530.71 131.54C1525.89 132.011 1520.48 133.702 1514.46 136.613L1515.94 124.084Z" fill="#D4A181"/>
<path fill-rule="evenodd" clip-rule="evenodd" d="M1461.06 97.4582C1470.94 99.0921 1484.45 99.328 1500.04 92.8985L1503.39 106.152C1492.02 114.047 1477.03 119.537 1465.19 117.106C1455.87 115.19 1453.07 103.008 1461.06 97.4582Z" fill="#2026A2"/>
<path fill-rule="evenodd" clip-rule="evenodd" d="M1470.86 119.496C1480.87 123.951 1498.96 123.968 1525.13 119.546C1529.01 133.263 1530.25 142.772 1528.84 148.073C1505.76 155.385 1486.79 157.113 1471.81 154.807C1470.72 163.744 1468.16 171.978 1463.18 179.037C1452.95 193.549 1411.96 171.21 1396.79 171.511C1392.87 140.094 1412.75 131.112 1416.13 112.048C1419.82 91.1702 1442.26 61.9867 1444.72 62.4216L1467.22 66.3882C1465.65 82.5537 1468.8 101.23 1470.86 119.496Z" fill="#1F28CF"/>
<path fill-rule="evenodd" clip-rule="evenodd" d="M1557.88 142.598C1553.89 137.911 1551.19 132.168 1551.64 125.733C1552.94 107.19 1578.75 111.269 1583.77 120.628C1588.79 129.986 1588.2 153.725 1581.71 155.398C1579.12 156.065 1573.61 154.431 1568 151.049L1571.52 175.964H1550.72L1557.88 142.598Z" fill="#F9D3B1"/>
<path fill-rule="evenodd" clip-rule="evenodd" d="M1575.56 110.435C1572.72 109.569 1568.59 109.275 1566.86 109.474C1567.84 107.109 1568.23 104.474 1567.92 101.908C1567.61 99.4157 1566.49 97.2932 1565.46 95.069C1564.99 94.0438 1564.45 93.0242 1563.65 92.2401C1562.83 91.4412 1561.79 90.9138 1560.71 90.6623C1559.6 90.4047 1558.44 90.4262 1557.33 90.6599C1556.83 90.7633 1556.39 90.9882 1555.91 91.1132C1555.42 91.2413 1555.18 90.9321 1554.82 90.6213C1553.95 89.8726 1552.69 89.503 1551.59 89.3707C1550.37 89.2223 1549.09 89.4074 1547.92 89.8106C1546.79 90.2031 1545.69 90.8405 1544.87 91.7691C1544.5 92.1824 1544.17 92.6529 1543.95 93.1724C1543.86 93.3855 1543.85 93.5118 1543.64 93.5899C1543.44 93.6622 1543.21 93.6643 1543.01 93.7331C1541.04 94.398 1539.37 95.9149 1538.45 97.8625C1537.92 98.9988 1537.67 100.999 1537.74 103.242C1537.8 105.484 1539.83 111.334 1541.72 113.469C1543.41 115.373 1545.9 116.63 1548.3 117.181C1546.7 119 1545.64 121.273 1544.86 123.585C1544.01 126.096 1543.48 128.705 1543.29 131.364C1543.1 133.89 1543.09 136.561 1543.68 139.033C1544.23 141.345 1545.42 143.242 1547.4 144.445C1548.3 144.996 1549.28 145.41 1550.26 145.789C1551.22 146.161 1552.19 146.524 1553.2 146.733C1555.12 147.129 1557.33 147.061 1558.8 145.537C1559.33 144.987 1559.92 144.296 1560.31 143.625C1560.45 143.384 1560.53 143.226 1560.36 142.99C1560.16 142.707 1559.83 142.49 1559.57 142.269C1558.08 141.008 1557.16 139.325 1556.93 137.325C1556.69 135.296 1557.24 132.676 1559.21 131.79C1561.65 130.697 1564.33 131.952 1566.49 133.122C1567.41 129.875 1569.3 126.951 1572.26 125.461C1575.54 123.813 1579.3 123.621 1582.67 122.207C1583.55 121.838 1584.44 121.42 1585.09 120.669C1585.36 120.356 1585.67 119.949 1585.78 119.534C1585.92 118.989 1585.57 118.532 1585.3 118.107C1583.86 115.853 1578.4 111.301 1575.56 110.435Z" fill="#191847"/>
<path fill-rule="evenodd" clip-rule="evenodd" d="M1653.73 263.558C1659.95 255.121 1675.5 260.706 1675.49 267.691C1675.47 286.029 1658.73 373.09 1657.86 378.587C1656.98 384.084 1647.62 385.882 1647.08 379.014C1646.21 368.086 1644.6 330.202 1646.21 312.578C1646.68 307.43 1647.18 302.454 1647.68 297.792C1638.88 313.593 1625.51 335.926 1607.55 364.791L1597.58 360.232C1605.41 334.416 1611.84 316.19 1616.85 305.555C1625.44 287.345 1633.49 271.751 1636.88 266.258C1641.35 259.002 1648.61 259.965 1653.73 263.558Z" fill="#F9D3B1"/>
<path fill-rule="evenodd" clip-rule="evenodd" d="M1598.29 345.896L1632.54 264.764C1640.74 251.566 1663.75 267.449 1660.95 275.104C1654.6 292.483 1622.29 348.745 1620.4 353.923L1598.29 345.896Z" fill="#1F28CF"/>
<path fill-rule="evenodd" clip-rule="evenodd" d="M1676.36 274.025C1676.36 297.022 1666.28 351.078 1666.27 356.142L1641.85 355.318C1646.12 308.32 1647.92 284.661 1647.25 284.343C1645.75 283.626 1585.61 292.667 1567.57 293.349C1541.56 294.334 1530.8 278.377 1529.93 248.096H1580.31C1623.39 253.239 1651.7 256.815 1665.25 258.826C1673.95 260.117 1676.36 267.69 1676.36 274.025Z" fill="#2B44FF"/>
<path fill-rule="evenodd" clip-rule="evenodd" d="M1527.33 253.078H1620.04C1624.82 253.078 1628.7 256.957 1628.7 261.742V304.198H1522.13C1520.22 304.198 1518.66 302.646 1518.66 300.732V261.742C1518.66 256.957 1522.54 253.078 1527.33 253.078Z" fill="#2F3676"/>
<path fill-rule="evenodd" clip-rule="evenodd" d="M1620.04 253.078H1621.94C1626.18 253.078 1629.8 256.151 1630.49 260.338L1649.5 376.113H1640.24" fill="#2F3676"/>
<path fill-rule="evenodd" clip-rule="evenodd" d="M1529.93 391.709C1493.56 391.709 1464.08 362.227 1464.08 325.859C1464.08 289.491 1493.56 260.009 1529.93 260.009C1566.3 260.009 1595.78 289.491 1595.78 325.859C1595.78 362.227 1566.3 391.709 1529.93 391.709ZM1529.93 379.578C1559.6 379.578 1583.65 355.527 1583.65 325.859C1583.65 296.191 1559.6 272.139 1529.93 272.139C1500.26 272.139 1476.21 296.191 1476.21 325.859C1476.21 355.527 1500.26 379.578 1529.93 379.578Z" fill="#191847"/>
<path d="M1533.39 268.673H1526.46V383.044H1533.39V268.673Z" fill="#191847"/>
<path d="M1571.59 286.648L1569.14 284.198C1568.46 283.521 1567.36 283.521 1566.69 284.198L1488.27 362.619C1487.59 363.296 1487.59 364.393 1488.27 365.07L1490.72 367.52C1491.39 368.197 1492.49 368.197 1493.17 367.52L1571.59 289.099C1572.27 288.422 1572.27 287.325 1571.59 286.648Z" fill="#191847"/>
<path d="M1569.14 367.52L1571.59 365.07C1572.27 364.393 1572.27 363.296 1571.59 362.619L1493.17 284.197C1492.49 283.521 1491.39 283.521 1490.72 284.197L1488.27 286.648C1487.59 287.325 1487.59 288.422 1488.27 289.099L1566.69 367.52C1567.36 368.197 1568.46 368.197 1569.14 367.52Z" fill="#191847"/>
<path fill-rule="evenodd" clip-rule="evenodd" d="M1617.83 158.931L1650.67 149.072C1656.8 144.303 1662.58 140.816 1668.01 138.611C1669.59 138.313 1672.21 138.486 1668.94 142.193C1665.67 145.9 1662.4 149.946 1663.33 151.5C1664.27 153.054 1667.67 151.883 1668.65 154.345C1669.31 155.986 1663.67 157.162 1651.75 157.872L1626.22 172.899L1617.83 158.931ZM1614.93 216.833L1642.57 237.128C1650.07 239.151 1656.33 241.667 1661.36 244.678C1662.55 245.76 1663.98 247.953 1659.05 247.574C1654.13 247.195 1648.93 247.018 1648.25 248.698C1647.57 250.379 1650.55 252.389 1649.18 254.656C1648.26 256.168 1643.93 252.377 1636.19 243.285L1608.82 231.936L1614.93 216.833Z" fill="#F9D3B1"/>
<path fill-rule="evenodd" clip-rule="evenodd" d="M1572 162.177C1587.05 190.24 1608.82 211.753 1640.37 234.117L1628.42 247.587C1593.19 234.495 1574.6 226.596 1565.47 200.082C1563.18 193.427 1561.58 172.214 1560.2 161.052L1572 162.177Z" fill="#2026A2"/>
<path fill-rule="evenodd" clip-rule="evenodd" d="M1529.93 255.677H1596.64C1581.53 209.587 1573.81 177.954 1573.48 160.777C1573.47 159.902 1571.85 158.358 1571.13 158.561C1565.9 160.038 1560.3 159.486 1554.34 156.903C1538.52 182.34 1533.05 213.659 1529.93 255.677Z" fill="#F2F2F2"/>
<path fill-rule="evenodd" clip-rule="evenodd" d="M1560.03 156.944C1579.15 157.1 1610.18 160.592 1645.96 149.104L1649.5 166.757C1622.45 184.151 1595.07 197.625 1571.07 195.711C1581.49 240.408 1581.01 276.997 1558.01 276.997C1547.02 276.997 1535.16 276.997 1522.43 276.997C1516.78 239.027 1531.63 186.382 1545.4 159.828C1545.92 158.814 1547.04 156.902 1549.68 156.902C1551.98 156.902 1555.42 156.902 1560.02 156.902C1560.02 156.916 1560.03 156.93 1560.03 156.944Z" fill="#1F28CF"/>
<path fill-rule="evenodd" clip-rule="evenodd" d="M1351.71 75.3599C1355.36 71.0774 1357.83 65.8291 1357.42 59.9482C1356.23 43.0036 1332.64 46.7312 1328.06 55.2834C1323.47 63.8355 1324.01 85.5287 1329.94 87.0572C1332.31 87.6668 1337.34 86.1736 1342.47 83.0831L1339.25 105.851H1358.26L1351.71 75.3599Z" fill="#F9D3B1"/>
<path fill-rule="evenodd" clip-rule="evenodd" d="M1338.89 45.4265C1341.39 45.0158 1348.13 44.7335 1349.38 44.7336C1350.17 44.7336 1351.03 44.9152 1351.5 44.1855C1351.89 43.5879 1351.75 42.5773 1351.86 41.8838C1352 41.0782 1352.19 40.2831 1352.38 39.4899C1352.93 37.2329 1353.75 35.0856 1354.91 33.0696C1357.07 29.2874 1360.25 26.3247 1364.26 24.6007C1368.69 22.6972 1373.7 22.2613 1378.46 22.6474C1383.56 23.0605 1388.17 24.7431 1392.99 26.3265C1397.57 27.8354 1402.37 28.4293 1407.17 27.6924C1412 26.9501 1415.66 24.3309 1419.73 21.8449C1423.9 19.2999 1428.67 17.6354 1433.61 18.018C1438.21 18.3753 1442.45 20.2767 1446.26 22.8166C1449.83 25.193 1452.76 28.0521 1454.42 32.0761C1456.21 36.4047 1456.21 41.1561 1453.27 44.9816C1449.02 50.5266 1441.12 51.9606 1434.54 51.818C1430.74 51.7358 1427.01 51.0418 1423.42 49.7794C1418.63 48.0957 1414.5 45.2421 1410.02 42.9267C1407.92 41.8402 1405.74 40.9479 1403.47 40.3051C1401.26 39.6811 1399.08 39.3949 1397.08 40.7297C1394.96 42.1418 1393.07 43.5288 1390.65 44.4128C1388.32 45.2608 1385.86 45.7352 1383.39 45.716C1378.57 45.6788 1373.83 44.1787 1369.15 43.1739C1365.34 42.3547 1361.26 41.5382 1357.37 42.3257C1355.75 42.6544 1353.38 43.3329 1352.79 45.0187C1362.66 46.806 1366.53 59.0016 1363.75 67.9543C1362.25 72.7864 1353.23 78.4351 1349.72 75.8948C1347.5 74.2854 1348.85 72.1726 1349.72 70.7779C1351.39 68.1069 1351.97 64.6759 1348.87 62.8163C1346.2 61.2124 1343.4 65.0211 1343.35 65.0169C1342.61 64.9592 1336.28 61.3756 1331.91 56.1464C1327.6 56.4017 1326.95 53.5619 1327.98 51.2395C1329.01 48.9171 1335.43 45.9944 1338.89 45.4265Z" fill="#191847"/>
<path fill-rule="evenodd" clip-rule="evenodd" d="M1373.58 171.569C1372.15 191.055 1280.18 248.422 1279.64 250.032C1279.41 250.747 1288.95 273.361 1308.27 317.873L1300.23 320.997C1270.59 273.856 1256.54 247.773 1258.06 242.75C1260.24 235.559 1284.02 211.901 1329.42 171.776L1373.58 171.569Z" fill="#B28B67"/>
<path fill-rule="evenodd" clip-rule="evenodd" d="M1306.16 307.821L1293.03 312.599C1265.35 281.369 1254.5 255.602 1256.48 242.473C1257.8 233.72 1281.5 210.101 1327.6 171.617L1374.52 171.617C1372.92 216.742 1287.67 250.204 1286.53 252.127C1285.39 254.05 1296.62 272.883 1306.16 307.821Z" fill="#2F3676"/>
<path fill-rule="evenodd" clip-rule="evenodd" d="M1311.23 316.338C1312.87 318.257 1313.89 319.769 1314.29 320.872C1314.78 322.213 1315.27 324.253 1315.76 326.989C1314.21 327.556 1300.22 332.647 1273.8 342.263C1271.39 339.055 1271.32 336.88 1273.56 335.737C1275.81 334.594 1277.66 333.624 1279.13 332.827L1295.47 317.033C1295.79 316.729 1296.29 316.737 1296.59 317.052C1296.6 317.057 1296.6 317.062 1296.61 317.068L1298.97 319.653C1301.51 319.876 1303.46 319.74 1304.82 319.245C1305.93 318.843 1307.29 317.842 1308.91 316.241L1308.91 316.241C1309.54 315.626 1310.54 315.633 1311.15 316.255C1311.18 316.282 1311.21 316.31 1311.23 316.338Z" fill="#E4E4E4"/>
<path fill-rule="evenodd" clip-rule="evenodd" d="M1363.01 171.569L1403.98 269.93L1444.25 353.086H1434.75L1330.8 171.569H1363.01Z" fill="#997659"/>
<path fill-rule="evenodd" clip-rule="evenodd" d="M1440.61 335.811L1419.5 339.77C1403.18 315.773 1334.87 217.375 1327.38 171.569H1374.37C1399.39 204.682 1425.05 311.417 1440.61 335.811Z" fill="#5C63AB"/>
<path fill-rule="evenodd" clip-rule="evenodd" d="M1291.75 149.888L1263.06 137.288C1258.03 132.28 1253.18 128.474 1248.5 125.869C1247.1 125.424 1244.71 125.289 1247.26 129.015C1249.81 132.741 1252.32 136.775 1251.31 138.081C1250.29 139.387 1247.33 137.946 1246.17 140.069C1245.39 141.485 1250.37 143.179 1261.1 145.15L1282.59 161.624L1291.75 149.888ZM1407.74 153.358L1391.51 156.578C1407.83 186.986 1416.58 203.103 1417.76 204.927C1420.43 209.033 1417.94 216.556 1417.02 220.518C1422.78 221.859 1420.51 213.189 1427.8 215C1434.45 216.652 1440.1 220.892 1446.3 215.173C1447.06 214.47 1447.62 212.273 1445.02 211.146C1438.54 208.337 1428.97 203.079 1427.42 201.038C1425.3 198.254 1418.74 182.361 1407.74 153.358Z" fill="#F9D3B1"/>
<path fill-rule="evenodd" clip-rule="evenodd" d="M1347.41 92.6539L1340.57 91.4796C1325.65 105.946 1319.57 140.7 1309.63 145.3C1300.23 149.649 1286.91 145.44 1271.08 139.757L1266.23 150.591C1280.62 166.154 1311.27 179.302 1323.69 171.796C1343.55 159.795 1348.13 116.931 1347.41 92.6539Z" fill="#DB2721"/>
<path fill-rule="evenodd" clip-rule="evenodd" d="M1377.26 178.695C1349.81 178.695 1329.61 178.695 1316.68 178.695C1313.91 178.695 1314.43 174.698 1314.83 172.681C1319.45 149.402 1337.48 124.309 1337.48 91.1723L1354.95 88.4321C1369.41 111.678 1374.41 140.297 1377.26 178.695Z" fill="#DDE3E9"/>
<path fill-rule="evenodd" clip-rule="evenodd" d="M1383.3 155.126C1395.65 177.403 1406.03 193.441 1414.44 203.241L1427.14 200.753C1418.96 150.025 1395.28 112.585 1356.08 88.4321H1352.93L1349.16 88.4321C1333.47 141.907 1329.15 177.537 1336.19 195.323H1390.72C1389.86 182.309 1387.09 168.546 1383.3 155.126H1383.3Z" fill="#FF4133"/>
<path fill-rule="evenodd" clip-rule="evenodd" d="M1224.41 101.055C1228.82 95.8774 1231.8 89.5326 1231.3 82.423C1229.87 61.9383 1201.35 66.4447 1195.8 76.7836C1190.26 87.1225 1190.92 113.348 1198.08 115.196C1200.94 115.933 1207.03 114.128 1213.23 110.391L1209.34 137.917H1232.31L1224.41 101.055Z" fill="#F9D3B1"/>
<path fill-rule="evenodd" clip-rule="evenodd" d="M1212.08 84.6857C1211.2 96.9352 1208.88 103.06 1205.11 103.06C1199.45 103.06 1194.64 99.467 1192.16 99.467C1190.35 99.467 1190.75 101.732 1191.95 103.412C1192.94 104.798 1197.77 106.134 1197.77 108.282C1197.77 110.43 1193.96 108.768 1193.96 110.042C1193.96 112.15 1193.29 116.113 1196.94 116.113C1200.65 116.113 1211.26 114.764 1213.08 109.269C1214.25 105.723 1215.01 98.3753 1215.36 87.2254C1215.58 87.1987 1215.81 87.185 1216.04 87.185C1219.21 87.185 1221.79 89.7563 1221.79 92.9283C1221.79 94.5385 1221.12 95.9939 1220.06 97.0368C1221.38 98.9125 1222.87 100.872 1224.58 102.894C1230.99 99.0474 1235.75 87.7871 1229.48 76.97C1227.75 71.6708 1223.83 68.8404 1219.19 67.5261C1215.44 65.9565 1211.55 65.7795 1208.26 66.7205C1201.81 67.2734 1196.06 69.2388 1194.43 70.4061C1194.43 76.5085 1195.61 78.3191 1205.71 78.1595C1208.19 79.4701 1210.1 81.7269 1212.08 84.6857Z" fill="#191847"/>
<path fill-rule="evenodd" clip-rule="evenodd" d="M1118.52 234.686C1111.65 225.366 1094.47 231.536 1094.48 239.252C1094.5 259.512 1112.99 355.693 1113.96 361.765C1114.92 367.838 1125.26 369.824 1125.87 362.237C1126.82 350.164 1128.6 308.312 1126.82 288.841C1126.3 283.154 1125.75 277.657 1125.2 272.507C1134.92 289.963 1149.69 314.635 1169.53 346.525L1180.55 341.488C1171.9 312.967 1164.8 292.832 1159.26 281.083C1149.77 260.966 1140.88 243.738 1137.13 237.669C1132.19 229.654 1124.17 230.718 1118.52 234.686Z" fill="#B28B67"/>
<path fill-rule="evenodd" clip-rule="evenodd" d="M1179.76 325.649L1141.93 236.019C1132.86 221.438 1107.45 238.986 1110.54 247.442C1117.56 266.642 1153.25 328.798 1155.34 334.518L1179.76 325.649Z" fill="#1F28CF"/>
<path fill-rule="evenodd" clip-rule="evenodd" d="M1093.52 246.25C1093.52 271.656 1104.66 331.374 1104.66 336.969L1131.64 336.059C1126.92 284.137 1124.94 258 1125.67 257.649C1127.33 256.857 1193.78 266.844 1213.7 267.598C1242.44 268.686 1254.32 251.058 1255.29 217.605H1199.63C1152.03 223.286 1120.75 227.237 1105.79 229.459C1096.18 230.886 1093.52 239.252 1093.52 246.25Z" fill="#2B44FF"/>
<path fill-rule="evenodd" clip-rule="evenodd" d="M1258.16 223.108H1155.74C1150.45 223.108 1146.17 227.394 1146.17 232.68V279.584H1263.9C1266.02 279.584 1267.73 277.869 1267.73 275.755V232.68C1267.73 227.394 1263.45 223.108 1258.16 223.108Z" fill="#2F3676"/>
<path fill-rule="evenodd" clip-rule="evenodd" d="M1155.74 223.108H1153.64C1148.95 223.108 1144.95 226.504 1144.19 231.13L1123.19 359.032H1133.42" fill="#2F3676"/>
<path fill-rule="evenodd" clip-rule="evenodd" d="M1255.29 376.262C1295.46 376.262 1328.04 343.691 1328.04 303.514C1328.04 263.336 1295.46 230.766 1255.29 230.766C1215.11 230.766 1182.54 263.336 1182.54 303.514C1182.54 343.691 1215.11 376.262 1255.29 376.262ZM1255.29 362.861C1222.51 362.861 1195.94 336.29 1195.94 303.514C1195.94 270.737 1222.51 244.167 1255.29 244.167C1288.06 244.167 1314.63 270.737 1314.63 303.514C1314.63 336.29 1288.06 362.861 1255.29 362.861Z" fill="#191847"/>
<path d="M1251.46 240.338H1259.12V366.69H1251.46V240.338Z" fill="#191847"/>
<path d="M1209.26 260.195L1211.97 257.488C1212.72 256.74 1213.93 256.74 1214.68 257.488L1301.31 344.124C1302.06 344.872 1302.06 346.084 1301.31 346.832L1298.61 349.539C1297.86 350.287 1296.65 350.287 1295.9 349.539L1209.26 262.903C1208.51 262.155 1208.51 260.943 1209.26 260.195Z" fill="#191847"/>
<path d="M1192.11 305.428V301.599C1192.11 300.542 1192.97 299.685 1194.03 299.685H1316.55C1317.61 299.685 1318.46 300.542 1318.46 301.599V305.428C1318.46 306.486 1317.61 307.343 1316.55 307.343H1194.03C1192.97 307.343 1192.11 306.486 1192.11 305.428Z" fill="#191847"/>
<path d="M1211.97 349.54L1209.26 346.832C1208.51 346.085 1208.51 344.872 1209.26 344.125L1295.9 257.488C1296.65 256.741 1297.86 256.741 1298.61 257.488L1301.31 260.196C1302.06 260.943 1302.06 262.156 1301.31 262.903L1214.68 349.54C1213.93 350.287 1212.72 350.287 1211.97 349.54Z" fill="#191847"/>
<path fill-rule="evenodd" clip-rule="evenodd" d="M1158.82 205.124L1128.29 227.545C1120 229.78 1113.09 232.56 1107.53 235.886C1106.22 237.082 1104.63 239.504 1110.07 239.085C1115.52 238.667 1121.26 238.471 1122.01 240.328C1122.76 242.184 1119.47 244.404 1120.99 246.909C1122 248.579 1126.78 244.392 1135.33 234.347L1165.57 221.809L1158.82 205.124ZM1276.05 205.898L1256.05 205.976C1268.4 245.848 1275.07 267.003 1276.05 269.443C1278.27 274.932 1273.58 283.292 1271.57 287.784C1278.1 290.705 1277.41 279.887 1285.64 283.718C1293.16 287.215 1298.88 293.552 1307.56 288.193C1308.63 287.534 1309.8 285.054 1306.97 283.115C1299.93 278.286 1289.78 269.834 1288.41 267.052C1286.54 263.258 1282.42 242.874 1276.05 205.898Z" fill="#F9D3B1"/>
<path fill-rule="evenodd" clip-rule="evenodd" d="M1219.21 121.963L1210.93 120.543C1180.22 147.072 1167.6 198.038 1129.96 225.037L1139.02 236.268C1204.33 228.182 1220.51 166.016 1219.21 121.963Z" fill="#E87613"/>
<path fill-rule="evenodd" clip-rule="evenodd" d="M1255.29 225.98C1222.1 225.98 1197.69 225.98 1182.05 225.98C1178.7 225.98 1179.33 221.148 1179.82 218.709C1185.4 190.567 1207.2 160.231 1207.2 120.171L1228.32 116.858C1245.79 144.96 1251.84 179.56 1255.29 225.98Z" fill="#DDE3E9"/>
<path fill-rule="evenodd" clip-rule="evenodd" d="M1254.7 144.482C1257.77 143.6 1260.2 141.543 1261.99 138.311C1269.71 124.378 1266.92 116.708 1258.67 114.186C1250.42 111.665 1243.06 116.859 1229.91 116.859C1229.2 116.859 1228.54 116.903 1227.95 116.993L1221.33 117.37C1202.36 181.676 1197.13 224.58 1205.64 246.081H1263.28C1266.69 254.045 1269.96 260.746 1273.08 266.183H1288.79C1290.27 218.387 1278.9 177.82 1254.7 144.482Z" fill="#FF9B21"/>
<path fill-rule="evenodd" clip-rule="evenodd" d="M1250.73 213.055C1248.91 228.223 1245.97 239.232 1241.89 246.081H1263.28C1259.29 236.791 1255.11 225.783 1250.73 213.055Z" fill="black" fill-opacity="0.1"/>
</g>
</svg>
