<svg width="1921" height="315" viewBox="0 0 1921 315" fill="none" xmlns="http://www.w3.org/2000/svg">
<mask id="mask0" mask-type="alpha" maskUnits="userSpaceOnUse" x="0" y="0" width="1921" height="315">
<rect x="0.907227" y="0.632812" width="1919.7" height="314.159" fill="white"/>
</mask>
<g mask="url(#mask0)">
<g opacity="0.5">
<path opacity="0.5" fill-rule="evenodd" clip-rule="evenodd" d="M1623.88 -75.2619C1628.08 -81.2539 1635.88 -96.4716 1641.8 -98.6128C1645.61 -99.9919 1644.49 -85.7263 1644.54 -83.0062C1644.72 -72.4824 1643.7 -62.0254 1642.43 -51.59C1640.16 -32.7699 1632.7 -16.0091 1622.48 0.0088501C1617.22 8.25104 1611.05 16.5932 1602.5 21.7359C1598.57 24.1042 1593.84 24.5008 1589.95 26.5413C1585.43 28.9167 1587.89 26.9964 1585.85 31.7111C1583.02 38.2567 1582.11 46.7013 1580.8 53.6857C1574.79 85.7481 1560.23 255.238 1562.75 287.852C1562.97 290.742 1558.94 291.434 1558.74 287.905C1557.67 269.193 1566.93 139.616 1571.6 97.2402C1576.27 54.8647 1580.99 17.4281 1585.73 2.76747C1591.48 -15.019 1601.86 -36.4085 1610.5 -52.9951C1614.51 -60.7009 1618.89 -68.1412 1623.88 -75.2619Z" fill="#69A1AC"/>
<path opacity="0.5" fill-rule="evenodd" clip-rule="evenodd" d="M1655.07 132.571C1666.01 124.543 1677.84 139.695 1667.95 147.724C1662.48 152.162 1656.76 150.583 1653.54 146.885C1651.45 149.432 1649.49 152.096 1647.61 154.346C1641.89 161.202 1636.47 168.222 1631.3 175.405C1620.56 190.328 1611.35 206.094 1601.72 221.572C1592.22 236.848 1582.79 252.201 1574.18 267.864C1566.88 281.134 1557.16 296.745 1554.66 311.293C1558.45 280.44 1572.83 250.784 1589.96 223.584C1606.94 196.608 1626.44 167.146 1652.74 145.857C1650.06 141.92 1649.99 136.301 1655.07 132.571Z" fill="#C1DEE2"/>
<path opacity="0.5" fill-rule="evenodd" clip-rule="evenodd" d="M1447.57 57.3242C1453.69 58.5209 1463.69 72.3636 1468.73 77.6378C1474.73 83.9054 1480.17 90.5858 1485.29 97.5852C1496.33 112.651 1506.2 128.669 1514.59 145.373C1528.27 172.604 1539.24 200.558 1547.19 230.211C1552.06 248.363 1555.21 267.176 1557.08 285.859C1557.43 289.382 1561.13 316.546 1555.81 317.278C1551.02 317.938 1552.5 296.652 1552.27 293.757C1549.66 261.091 1541.83 229.308 1530.96 198.52C1528.59 191.813 1526.38 183.598 1522.6 177.562C1519.87 173.215 1522.58 174.731 1517.78 173.085C1513.66 171.672 1508.97 172.017 1504.75 170.287C1495.59 166.53 1488.26 159.237 1481.83 151.901C1469.33 137.645 1459.43 122.222 1454.27 103.954C1451.41 93.8251 1448.78 83.6373 1447.32 73.1953C1446.94 70.4963 1443.63 56.5534 1447.57 57.3242Z" fill="#69A1AC"/>
<path opacity="0.5" fill-rule="evenodd" clip-rule="evenodd" d="M1471.72 -172.99C1494.77 -133.016 1513.71 -89.1052 1525.94 -44.6302C1533.35 -17.6833 1538.53 9.96823 1543.68 37.42C1551.65 79.9256 1559.2 122.428 1561.34 165.689C1563.5 209.2 1567.77 259.385 1553.52 301.294C1560.63 258.745 1553.86 213.456 1552.66 170.643C1552.09 150.205 1550.42 129.967 1548.25 109.649C1546.13 89.9387 1542.68 70.3225 1539.46 50.7674C1537.89 41.2437 1536.24 31.7343 1534.57 22.2301C1534.07 19.3945 1533.86 10.9804 1532.06 9.04324C1530.25 7.09338 1521.01 6.29849 1518.11 4.8678C1512.27 1.98621 1506.78 -2.1069 1501.92 -6.43178C1492.6 -14.7225 1484.49 -25.5553 1478.09 -36.2339C1463.29 -60.9427 1457.37 -91.0964 1457.67 -119.712C1457.73 -125.268 1466.66 -185.096 1463.07 -185.92C1463.29 -186.173 1463.49 -186.435 1463.69 -186.706C1466.4 -182.158 1469.07 -177.578 1471.72 -172.99Z" fill="#89C5CC"/>
<path opacity="0.5" fill-rule="evenodd" clip-rule="evenodd" d="M1720.5 -28.8191C1720.86 -29.3321 1723.17 -32.8998 1722.01 -32.6718C1724.38 -33.136 1718.74 -28.737 1724.66 -31.4362C1721.85 -28.7845 1723.47 -25.3399 1723.51 -21.771C1723.57 -15.9768 1722.6 -10.23 1721.51 -4.56003C1719.78 4.40245 1717.21 13.1166 1713.49 21.4528C1705.36 39.6192 1691.56 57.1077 1675.18 68.4652C1667.09 74.0729 1659.16 75.9821 1649.94 78.5637C1644.11 80.1946 1643.65 83.2086 1640.56 88.8625C1634.12 100.638 1627.79 112.372 1622.11 124.545C1615.33 139.081 1608.75 153.633 1602.54 168.425C1581.63 218.251 1564.6 269.871 1555.66 323.294C1555.44 291.812 1562.73 259.389 1571.91 229.382C1578.6 207.519 1587.32 186.444 1596.61 165.583C1598.86 160.529 1602.27 154.028 1603.23 148.448C1603.9 144.539 1601.85 140.779 1600.91 136.661C1597.26 120.623 1597.52 102.656 1600.73 86.5331C1604.27 68.7542 1614.5 60.5024 1631.8 57.9842C1638.13 57.063 1646.18 57.4006 1651.98 54.702C1658.3 51.7633 1660.91 42.1038 1664.51 35.9032C1674.16 19.247 1685.64 3.27267 1698.81 -10.7616C1702.46 -14.6478 1706.38 -18.2332 1710.55 -21.5563C1713.17 -23.6531 1718.71 -26.2362 1720.5 -28.8191Z" fill="#89C5CC"/>
<path opacity="0.5" fill-rule="evenodd" clip-rule="evenodd" d="M1526.45 289.293H1587.87C1590.63 289.293 1592.87 291.532 1592.87 294.293C1592.87 294.538 1592.85 294.781 1592.81 295.023L1588.07 327.211C1586.62 337.024 1578.2 344.293 1568.28 344.293H1546.04C1536.12 344.293 1527.7 337.024 1526.25 327.211L1521.5 295.023C1521.1 292.291 1522.99 289.75 1525.72 289.347C1525.96 289.311 1526.2 289.293 1526.45 289.293Z" fill="#C1DEE2"/>
</g>
<path fill-rule="evenodd" clip-rule="evenodd" d="M1865.42 109.062C1868.28 108.712 1871.34 108.835 1874 109.966C1879.67 112.371 1881.28 119.063 1881.2 124.502C1881.11 130.357 1879.87 136.751 1884.32 141.468C1886.37 143.637 1888.91 145.297 1890.92 147.505C1893.07 149.865 1894.75 152.566 1896 155.465C1898.29 160.792 1899.42 167.056 1897.32 172.643C1895.48 177.562 1890.84 182.002 1891.84 187.596C1892.89 193.432 1898.77 197.893 1902.45 202.239C1906.61 207.158 1910.44 213.445 1911.07 219.895C1911.68 226.077 1908.99 232.329 1904.86 237.002C1896.6 246.339 1884.2 250.917 1871.7 250.889C1866.39 250.876 1860.38 250.636 1855.79 247.783C1854.38 246.901 1853.63 245.912 1852.79 244.536C1852.03 243.303 1851.04 242.501 1849.88 241.628C1847.35 239.711 1845.52 237.128 1844.35 234.236C1839.81 223.003 1843.44 209.106 1849.79 199.132C1851.29 196.768 1852.53 194.494 1851.79 191.677C1851.03 188.737 1849.16 186.085 1847.5 183.557C1845.86 181.059 1843.99 178.676 1842.71 175.975C1841.36 173.146 1840.99 170.183 1841.22 167.086C1841.67 161.27 1844.18 155.902 1847.73 151.224C1851.16 146.718 1855.18 142.407 1855.19 136.503C1855.2 130.246 1851.01 124.679 1852.8 118.318C1853.54 115.683 1855.02 112.981 1857.41 111.401C1859.7 109.887 1862.72 109.391 1865.42 109.062Z" fill="#DDE3E9"/>
<path fill-rule="evenodd" clip-rule="evenodd" d="M1863.54 119.065C1863.6 118.225 1864.59 117.721 1865.38 117.94C1866.41 118.229 1866.39 119.194 1866.36 120.054C1866.28 122.697 1866.66 125.266 1867.3 127.83C1868.62 133.162 1871.06 138.075 1872.99 143.197C1874.93 148.314 1875.83 153.598 1874.7 159.013C1873.63 164.119 1871.95 169.092 1870.86 174.204C1869.89 178.71 1868.87 183.461 1870.34 187.955C1871.75 192.281 1874.87 195.805 1877.12 199.714C1881.77 207.807 1883.84 216.785 1884.11 226.024C1884.24 230.314 1884.13 234.644 1883.13 238.852C1882.56 241.275 1881.79 244.549 1879.71 246.222C1878.76 246.993 1877.12 247.26 1876.31 246.118C1875.56 245.046 1876.22 243.387 1876.46 242.245C1877.5 237.302 1877.71 232.25 1877.46 227.23C1877.22 222.368 1876.64 217.514 1875.11 212.871C1873.69 208.561 1871.54 204.691 1869 200.921C1866.41 197.08 1863.72 193.23 1862.65 188.678C1861.56 184.055 1862.45 179.351 1863.63 174.816C1864.87 170.019 1866.51 165.36 1868.2 160.694C1869.85 156.147 1870.43 151.844 1869.52 147.085C1867.72 137.682 1862.92 128.857 1863.54 119.065Z" fill="#C5CFD6"/>
<path fill-rule="evenodd" clip-rule="evenodd" d="M1941.05 120.471C1944.59 121.547 1948.12 123.284 1950.64 126.007C1956.02 131.798 1954.37 140.55 1951.4 146.942C1948.21 153.822 1943.37 160.738 1946.1 168.632C1947.35 172.261 1949.46 175.548 1950.65 179.205C1951.92 183.113 1952.47 187.182 1952.4 191.261C1952.27 198.751 1950.27 206.743 1944.87 212.262C1940.1 217.12 1932.31 219.958 1930.53 227.095C1928.68 234.54 1933.22 242.876 1935.24 249.93C1937.52 257.913 1938.69 267.341 1936.02 275.297C1933.46 282.922 1927 288.916 1919.69 292.294C1905.07 299.045 1888.11 298.006 1873.45 291.467C1867.23 288.69 1860.31 285.279 1856.44 279.521C1855.25 277.742 1854.89 276.183 1854.63 274.118C1854.4 272.267 1853.65 270.799 1852.76 269.167C1850.8 265.581 1850.02 261.573 1850.18 257.545C1850.79 241.9 1862.39 227.352 1875.11 218.86C1878.13 216.849 1880.78 214.8 1881.41 211.089C1882.07 207.214 1881.27 203.102 1880.66 199.25C1880.06 195.443 1879.12 191.651 1879.05 187.791C1878.97 183.747 1880.09 180.046 1882.01 176.507C1885.6 169.86 1891.38 164.819 1898.03 161.136C1904.42 157.588 1911.42 154.581 1914.55 147.604C1917.87 140.209 1915.9 131.45 1921.36 124.853C1923.62 122.121 1926.78 119.696 1930.42 119.071C1933.91 118.471 1937.72 119.459 1941.05 120.471Z" fill="#DDE3E9"/>
<path fill-rule="evenodd" clip-rule="evenodd" d="M1933.81 132.7C1934.31 131.732 1935.74 131.658 1936.54 132.329C1937.6 133.213 1937.07 134.345 1936.59 135.349C1935.11 138.435 1934.21 141.678 1933.61 145.048C1932.36 152.054 1932.64 159.151 1932.22 166.23C1931.8 173.303 1930.09 180.035 1925.93 185.854C1922.01 191.34 1917.44 196.35 1913.48 201.831C1910 206.662 1906.31 211.751 1905.67 217.843C1905.06 223.706 1906.86 229.514 1907.45 235.323C1908.65 247.346 1906.36 259.06 1901.85 270.146C1899.75 275.294 1897.35 280.361 1893.98 284.822C1892.04 287.391 1889.42 290.865 1886.12 291.758C1884.6 292.17 1882.54 291.627 1882.2 289.852C1881.88 288.187 1883.52 286.57 1884.4 285.344C1888.2 280.035 1891.09 274.162 1893.43 268.087C1895.7 262.203 1897.57 256.153 1898.21 249.852C1898.81 244.005 1898.31 238.29 1897.32 232.495C1896.3 226.589 1895.17 220.62 1896.31 214.669C1897.46 208.625 1900.95 203.517 1904.71 198.765C1908.68 193.739 1913.03 189.078 1917.45 184.438C1921.76 179.916 1924.69 175.127 1926.12 169.014C1928.95 156.938 1927.95 143.967 1933.81 132.7Z" fill="#C5CFD6"/>
<path fill-rule="evenodd" clip-rule="evenodd" d="M1831.46 164.889C1837.36 164.889 1842.54 168.013 1846.11 172.447C1850.29 177.637 1851.13 183.975 1852.83 190.161C1853.68 193.239 1855.13 196.295 1857.67 198.386C1859.99 200.288 1862.93 200.669 1865.7 201.598C1871.24 203.456 1875.71 207.929 1877.48 213.388C1879.63 220.047 1877.35 226.762 1877.74 233.51C1878.1 239.707 1884.21 243.574 1889.13 246.545C1893.98 249.474 1898.35 252.216 1899.81 257.923C1901.35 263.976 1901.87 270.732 1899.73 276.712C1896.16 286.667 1885.71 291.051 1875.61 291.731C1866.45 292.348 1854.93 291.379 1848.05 284.728C1843.93 280.748 1842.44 275.182 1842.62 269.644C1842.74 266.2 1843.42 262.788 1844.3 259.46C1844.93 257.101 1845.77 254.753 1846.01 252.315C1846.65 245.831 1840.66 244.585 1835.56 242.805C1829.08 240.542 1824.54 236.268 1821.38 230.314C1818.44 224.77 1817.21 218.547 1818.97 212.443C1819.87 209.326 1821.5 206.498 1823.72 204.093C1824.69 203.035 1826.06 202.152 1826.94 201.04C1827.76 200.001 1827.59 198.655 1827.3 197.439C1825.99 191.819 1821.92 187.166 1820.46 181.557C1819.15 176.494 1819.92 170.193 1824.55 166.927C1826.55 165.515 1829.02 164.904 1831.46 164.889Z" fill="#C5CFD6"/>
<path fill-rule="evenodd" clip-rule="evenodd" d="M1839.49 179.53C1845.74 186.185 1847.44 195.214 1847.94 203.965C1848.22 208.872 1847.93 214.048 1849.37 218.808C1850.6 222.882 1853.49 225.996 1856.48 228.939C1862.48 234.864 1869.17 240.888 1870.92 249.462C1871.95 254.494 1871.26 259.692 1872.68 264.669C1873.97 269.193 1876.25 273.637 1879.02 277.457C1881.25 280.533 1884.16 282.888 1886.6 285.756C1887.34 286.631 1888.41 287.92 1888.1 289.156C1887.74 290.603 1885.9 291.061 1884.59 290.833C1881.54 290.304 1878.98 287.392 1876.98 285.275C1874.07 282.18 1871.59 278.85 1869.58 275.116C1867.34 270.968 1865.54 266.567 1864.77 261.914C1863.97 257.087 1864.37 252.056 1862.55 247.424C1859.48 239.629 1852.04 235.029 1846.67 228.953C1839.96 221.382 1840.96 211.96 1841.65 202.648C1842.03 197.53 1842.4 191.751 1839.82 187.078C1838.83 185.295 1836.63 183.631 1836.2 181.604C1835.82 179.747 1837.94 177.87 1839.49 179.53Z" fill="#AFB9C5"/>
<path fill-rule="evenodd" clip-rule="evenodd" d="M1846.16 288.889C1846.16 326.947 1852.37 346.889 1885.16 346.889C1917.95 346.889 1924.16 326.947 1924.16 288.889H1846.16Z" fill="#89C5CC"/>
<path fill-rule="evenodd" clip-rule="evenodd" d="M1793.42 134.854C1796.28 134.504 1799.34 134.628 1802 135.759C1807.67 138.163 1809.28 144.855 1809.2 150.295C1809.11 156.149 1807.87 162.544 1812.32 167.261C1814.37 169.43 1816.91 171.089 1818.92 173.298C1821.07 175.658 1822.75 178.358 1824 181.258C1826.29 186.584 1827.42 192.848 1825.32 198.435C1823.48 203.355 1818.84 207.795 1819.84 213.389C1820.89 219.224 1826.77 223.685 1830.45 228.032C1834.61 232.95 1838.44 239.237 1839.07 245.688C1839.68 251.869 1836.99 258.122 1832.86 262.795C1824.6 272.132 1812.2 276.709 1799.7 276.681C1794.39 276.669 1788.38 276.429 1783.79 273.576C1782.38 272.694 1781.63 271.704 1780.79 270.329C1780.03 269.095 1779.04 268.293 1777.88 267.42C1775.35 265.504 1773.52 262.92 1772.35 260.028C1767.81 248.795 1771.44 234.899 1777.79 224.924C1779.29 222.561 1780.53 220.287 1779.79 217.47C1779.03 214.529 1777.16 211.877 1775.5 209.35C1773.86 206.852 1771.99 204.469 1770.71 201.768C1769.36 198.938 1768.99 195.975 1769.22 192.879C1769.67 187.062 1772.18 181.695 1775.73 177.017C1779.16 172.511 1783.18 168.2 1783.19 162.296C1783.2 156.038 1779.01 150.472 1780.8 144.11C1781.54 141.476 1783.02 138.773 1785.41 137.194C1787.7 135.679 1790.72 135.183 1793.42 134.854Z" fill="#DDE3E9"/>
<path fill-rule="evenodd" clip-rule="evenodd" d="M1791.54 144.858C1791.6 144.017 1792.59 143.513 1793.38 143.732C1794.41 144.021 1794.39 144.986 1794.36 145.846C1794.28 148.489 1794.66 151.058 1795.3 153.623C1796.62 158.955 1799.06 163.867 1800.99 168.989C1802.93 174.107 1803.83 179.39 1802.7 184.805C1801.63 189.911 1799.95 194.884 1798.86 199.997C1797.89 204.502 1796.87 209.254 1798.34 213.748C1799.75 218.074 1802.87 221.597 1805.12 225.506C1809.77 233.599 1811.84 242.577 1812.11 251.816C1812.24 256.107 1812.13 260.436 1811.13 264.644C1810.56 267.067 1809.79 270.342 1807.71 272.014C1806.76 272.786 1805.12 273.052 1804.31 271.91C1803.56 270.839 1804.22 269.18 1804.46 268.038C1805.5 263.094 1805.71 258.042 1805.46 253.023C1805.22 248.161 1804.64 243.307 1803.11 238.663C1801.69 234.354 1799.54 230.483 1797 226.714C1794.41 222.872 1791.72 219.022 1790.65 214.47C1789.56 209.847 1790.45 205.143 1791.63 200.608C1792.87 195.812 1794.51 191.153 1796.2 186.486C1797.85 181.939 1798.43 177.637 1797.52 172.877C1795.72 163.475 1790.92 154.649 1791.54 144.858Z" fill="#C5CFD6"/>
<path fill-rule="evenodd" clip-rule="evenodd" d="M1869.05 146.263C1872.59 147.34 1876.12 149.076 1878.64 151.799C1884.02 157.59 1882.37 166.342 1879.4 172.734C1876.21 179.615 1871.37 186.53 1874.1 194.424C1875.35 198.053 1877.46 201.34 1878.65 204.997C1879.92 208.905 1880.47 212.975 1880.4 217.053C1880.27 224.544 1878.27 232.536 1872.87 238.054C1868.1 242.913 1860.31 245.751 1858.53 252.887C1856.68 260.332 1861.22 268.669 1863.24 275.723C1865.52 283.705 1866.69 293.134 1864.02 301.09C1861.46 308.715 1855 314.709 1847.69 318.087C1833.07 324.837 1816.11 323.799 1801.45 317.259C1795.23 314.483 1788.31 311.072 1784.44 305.314C1783.25 303.534 1782.89 301.975 1782.63 299.911C1782.4 298.059 1781.65 296.592 1780.76 294.959C1778.8 291.373 1778.02 287.365 1778.18 283.337C1778.79 267.692 1790.39 253.145 1803.11 244.653C1806.13 242.641 1808.78 240.593 1809.41 236.881C1810.07 233.007 1809.27 228.895 1808.66 225.042C1808.06 221.236 1807.12 217.444 1807.05 213.583C1806.97 209.539 1808.09 205.839 1810.01 202.3C1813.6 195.653 1819.38 190.611 1826.03 186.928C1832.42 183.381 1839.42 180.374 1842.55 173.396C1845.87 166.001 1843.9 157.242 1849.36 150.645C1851.62 147.914 1854.78 145.489 1858.42 144.863C1861.91 144.264 1865.72 145.251 1869.05 146.263Z" fill="#DDE3E9"/>
<path fill-rule="evenodd" clip-rule="evenodd" d="M1861.81 158.492C1862.31 157.525 1863.74 157.451 1864.54 158.122C1865.6 159.005 1865.07 160.138 1864.59 161.142C1863.11 164.228 1862.21 167.47 1861.61 170.84C1860.36 177.847 1860.64 184.944 1860.22 192.022C1859.8 199.095 1858.09 205.828 1853.93 211.647C1850.01 217.133 1845.44 222.143 1841.48 227.624C1838 232.454 1834.31 237.544 1833.67 243.635C1833.06 249.498 1834.86 255.307 1835.45 261.115C1836.65 273.138 1834.36 284.852 1829.85 295.938C1827.75 301.086 1825.35 306.153 1821.98 310.615C1820.04 313.184 1817.42 316.658 1814.12 317.551C1812.6 317.962 1810.54 317.42 1810.2 315.645C1809.88 313.979 1811.52 312.363 1812.4 311.136C1816.2 305.827 1819.09 299.954 1821.43 293.879C1823.7 287.995 1825.57 281.946 1826.21 275.645C1826.81 269.797 1826.31 264.082 1825.32 258.287C1824.3 252.382 1823.17 246.413 1824.31 240.462C1825.46 234.418 1828.95 229.309 1832.71 224.558C1836.68 219.531 1841.03 214.871 1845.45 210.23C1849.76 205.708 1852.69 200.919 1854.12 194.807C1856.95 182.73 1855.95 169.759 1861.81 158.492Z" fill="#C5CFD6"/>
<path fill-rule="evenodd" clip-rule="evenodd" d="M1759.46 190.681C1765.36 190.681 1770.54 193.806 1774.11 198.239C1778.29 203.429 1779.13 209.767 1780.83 215.953C1781.68 219.031 1783.13 222.087 1785.67 224.179C1787.99 226.081 1790.93 226.462 1793.7 227.391C1799.24 229.248 1803.71 233.722 1805.48 239.181C1807.63 245.839 1805.35 252.555 1805.74 259.303C1806.1 265.5 1812.21 269.366 1817.13 272.337C1821.98 275.267 1826.35 278.009 1827.81 283.716C1829.35 289.769 1829.87 296.525 1827.73 302.504C1824.16 312.46 1813.71 316.844 1803.61 317.524C1794.45 318.14 1782.93 317.172 1776.05 310.521C1771.93 306.541 1770.44 300.974 1770.62 295.436C1770.74 291.992 1771.42 288.58 1772.3 285.253C1772.93 282.894 1773.77 280.545 1774.01 278.108C1774.65 271.623 1768.66 270.378 1763.56 268.598C1757.08 266.335 1752.54 262.061 1749.38 256.107C1746.44 250.563 1745.21 244.339 1746.97 238.235C1747.87 235.119 1749.5 232.291 1751.72 229.886C1752.69 228.827 1754.06 227.944 1754.94 226.832C1755.76 225.793 1755.59 224.448 1755.3 223.231C1753.99 217.612 1749.92 212.959 1748.46 207.35C1747.15 202.287 1747.92 195.985 1752.55 192.719C1754.55 191.308 1757.02 190.697 1759.46 190.681Z" fill="#C5CFD6"/>
<path fill-rule="evenodd" clip-rule="evenodd" d="M1767.49 205.323C1773.74 211.977 1775.44 221.006 1775.94 229.757C1776.22 234.665 1775.93 239.84 1777.37 244.6C1778.6 248.674 1781.49 251.788 1784.48 254.732C1790.48 260.657 1797.17 266.68 1798.92 275.255C1799.95 280.287 1799.26 285.485 1800.68 290.461C1801.97 294.985 1804.25 299.43 1807.02 303.25C1809.25 306.326 1812.16 308.681 1814.6 311.548C1815.34 312.424 1816.41 313.712 1816.1 314.948C1815.74 316.395 1813.9 316.853 1812.59 316.626C1809.54 316.096 1806.98 313.184 1804.98 311.067C1802.07 307.972 1799.59 304.643 1797.58 300.908C1795.34 296.761 1793.54 292.36 1792.77 287.707C1791.97 282.88 1792.37 277.849 1790.55 273.216C1787.48 265.421 1780.04 260.821 1774.67 254.745C1767.96 247.175 1768.96 237.753 1769.65 228.44C1770.03 223.322 1770.4 217.543 1767.82 212.871C1766.83 211.087 1764.63 209.424 1764.2 207.397C1763.82 205.539 1765.94 203.662 1767.49 205.323Z" fill="#AFB9C5"/>
<path fill-rule="evenodd" clip-rule="evenodd" d="M1774.16 314.681C1774.16 352.74 1780.37 372.681 1813.16 372.681C1845.95 372.681 1852.16 352.74 1852.16 314.681H1774.16Z" fill="#89C5CC"/>
<g opacity="0.5">
<path opacity="0.5" fill-rule="evenodd" clip-rule="evenodd" d="M1816.88 -73.2619C1821.08 -79.2539 1828.88 -94.4716 1834.8 -96.6128C1838.61 -97.9919 1837.49 -83.7263 1837.54 -81.0062C1837.72 -70.4824 1836.7 -60.0254 1835.43 -49.59C1833.16 -30.7699 1825.7 -14.0091 1815.48 2.00885C1810.22 10.251 1804.05 18.5932 1795.5 23.7359C1791.57 26.1042 1786.84 26.5008 1782.95 28.5413C1778.43 30.9167 1780.89 28.9964 1778.85 33.7111C1776.02 40.2567 1775.11 48.7013 1773.8 55.6857C1767.79 87.7481 1753.23 257.238 1755.75 289.852C1755.97 292.742 1751.94 293.434 1751.74 289.905C1750.67 271.193 1759.93 141.616 1764.6 99.2402C1769.27 56.8647 1773.99 19.4281 1778.73 4.76747C1784.48 -13.019 1794.86 -34.4085 1803.5 -50.9951C1807.51 -58.7009 1811.89 -66.1412 1816.88 -73.2619Z" fill="#69A1AC"/>
<path opacity="0.5" fill-rule="evenodd" clip-rule="evenodd" d="M1848.07 134.571C1859.01 126.543 1870.84 141.695 1860.95 149.724C1855.48 154.162 1849.76 152.583 1846.54 148.885C1844.45 151.432 1842.49 154.096 1840.61 156.346C1834.89 163.202 1829.47 170.222 1824.3 177.405C1813.56 192.328 1804.35 208.094 1794.72 223.572C1785.22 238.848 1775.79 254.201 1767.18 269.864C1759.88 283.134 1750.16 298.745 1747.66 313.293C1751.45 282.44 1765.83 252.784 1782.96 225.584C1799.94 198.608 1819.44 169.146 1845.74 147.857C1843.06 143.92 1842.99 138.301 1848.07 134.571Z" fill="#C1DEE2"/>
<path opacity="0.5" fill-rule="evenodd" clip-rule="evenodd" d="M1640.57 59.3242C1646.69 60.5209 1656.69 74.3636 1661.73 79.6378C1667.73 85.9054 1673.17 92.5858 1678.29 99.5852C1689.33 114.651 1699.2 130.669 1707.59 147.373C1721.27 174.604 1732.24 202.558 1740.19 232.211C1745.06 250.363 1748.21 269.176 1750.08 287.859C1750.43 291.382 1754.13 318.546 1748.81 319.278C1744.02 319.938 1745.5 298.652 1745.27 295.757C1742.66 263.091 1734.83 231.308 1723.96 200.52C1721.59 193.813 1719.38 185.598 1715.6 179.562C1712.87 175.215 1715.58 176.731 1710.78 175.085C1706.66 173.672 1701.97 174.017 1697.75 172.287C1688.59 168.53 1681.26 161.237 1674.83 153.901C1662.33 139.645 1652.43 124.222 1647.27 105.954C1644.41 95.8251 1641.78 85.6373 1640.32 75.1953C1639.94 72.4963 1636.63 58.5534 1640.57 59.3242Z" fill="#69A1AC"/>
<path opacity="0.5" fill-rule="evenodd" clip-rule="evenodd" d="M1664.72 -170.99C1687.77 -131.016 1706.71 -87.1052 1718.94 -42.6302C1726.35 -15.6833 1731.53 11.9682 1736.68 39.42C1744.65 81.9256 1752.2 124.428 1754.34 167.689C1756.5 211.2 1760.77 261.385 1746.52 303.294C1753.63 260.745 1746.86 215.456 1745.66 172.643C1745.09 152.205 1743.42 131.967 1741.25 111.649C1739.13 91.9387 1735.68 72.3225 1732.46 52.7674C1730.89 43.2437 1729.24 33.7343 1727.57 24.2301C1727.07 21.3945 1726.86 12.9804 1725.06 11.0432C1723.25 9.09338 1714.01 8.29849 1711.11 6.8678C1705.27 3.98621 1699.78 -0.106903 1694.92 -4.43178C1685.6 -12.7225 1677.49 -23.5553 1671.09 -34.2339C1656.29 -58.9427 1650.37 -89.0964 1650.67 -117.712C1650.73 -123.268 1659.66 -183.096 1656.07 -183.92C1656.29 -184.173 1656.49 -184.435 1656.69 -184.706C1659.4 -180.158 1662.07 -175.578 1664.72 -170.99Z" fill="#89C5CC"/>
<path opacity="0.5" fill-rule="evenodd" clip-rule="evenodd" d="M1913.5 -26.8191C1913.86 -27.3321 1916.17 -30.8998 1915.01 -30.6718C1917.38 -31.136 1911.74 -26.737 1917.66 -29.4362C1914.85 -26.7845 1916.47 -23.3399 1916.51 -19.771C1916.57 -13.9768 1915.6 -8.22999 1914.51 -2.56003C1912.78 6.40245 1910.21 15.1166 1906.49 23.4528C1898.36 41.6192 1884.56 59.1077 1868.18 70.4652C1860.09 76.0729 1852.16 77.9821 1842.94 80.5637C1837.11 82.1946 1836.65 85.2086 1833.56 90.8625C1827.12 102.638 1820.79 114.372 1815.11 126.545C1808.33 141.081 1801.75 155.633 1795.54 170.425C1774.63 220.251 1757.6 271.871 1748.66 325.294C1748.44 293.812 1755.73 261.389 1764.91 231.382C1771.6 209.519 1780.32 188.444 1789.61 167.583C1791.86 162.529 1795.27 156.028 1796.23 150.448C1796.9 146.539 1794.85 142.779 1793.91 138.661C1790.26 122.623 1790.52 104.656 1793.73 88.5331C1797.27 70.7542 1807.5 62.5024 1824.8 59.9842C1831.13 59.063 1839.18 59.4006 1844.98 56.702C1851.3 53.7633 1853.91 44.1038 1857.51 37.9032C1867.16 21.247 1878.64 5.27267 1891.81 -8.76157C1895.46 -12.6478 1899.38 -16.2332 1903.55 -19.5563C1906.17 -21.6531 1911.71 -24.2362 1913.5 -26.8191Z" fill="#89C5CC"/>
<path opacity="0.5" fill-rule="evenodd" clip-rule="evenodd" d="M1719.45 291.293H1780.87C1783.63 291.293 1785.87 293.532 1785.87 296.293C1785.87 296.538 1785.85 296.781 1785.81 297.023L1781.07 329.211C1779.62 339.024 1771.2 346.293 1761.28 346.293H1739.04C1729.12 346.293 1720.7 339.024 1719.25 329.211L1714.5 297.023C1714.1 294.291 1715.99 291.75 1718.72 291.347C1718.96 291.311 1719.2 291.293 1719.45 291.293Z" fill="#C1DEE2"/>
</g>
<g opacity="0.5">
<path opacity="0.5" fill-rule="evenodd" clip-rule="evenodd" d="M1896.88 -73.2619C1901.08 -79.2539 1908.88 -94.4716 1914.8 -96.6128C1918.61 -97.9919 1917.49 -83.7263 1917.54 -81.0062C1917.72 -70.4824 1916.7 -60.0254 1915.43 -49.59C1913.16 -30.7699 1905.7 -14.0091 1895.48 2.00885C1890.22 10.251 1884.05 18.5932 1875.5 23.7359C1871.57 26.1042 1866.84 26.5008 1862.95 28.5413C1858.43 30.9167 1860.89 28.9964 1858.85 33.7111C1856.02 40.2567 1855.11 48.7013 1853.8 55.6857C1847.79 87.7481 1833.23 257.238 1835.75 289.852C1835.97 292.742 1831.94 293.434 1831.74 289.905C1830.67 271.193 1839.93 141.616 1844.6 99.2402C1849.27 56.8647 1853.99 19.4281 1858.73 4.76747C1864.48 -13.019 1874.86 -34.4085 1883.5 -50.9951C1887.51 -58.7009 1891.89 -66.1412 1896.88 -73.2619Z" fill="#69A1AC"/>
<path opacity="0.5" fill-rule="evenodd" clip-rule="evenodd" d="M1928.07 134.571C1939.01 126.543 1950.84 141.695 1940.95 149.724C1935.48 154.162 1929.76 152.583 1926.54 148.885C1924.45 151.432 1922.49 154.096 1920.61 156.346C1914.89 163.202 1909.47 170.222 1904.3 177.405C1893.56 192.328 1884.35 208.094 1874.72 223.572C1865.22 238.848 1855.79 254.201 1847.18 269.864C1839.88 283.134 1830.16 298.745 1827.66 313.293C1831.45 282.44 1845.83 252.784 1862.96 225.584C1879.94 198.608 1899.44 169.146 1925.74 147.857C1923.06 143.92 1922.99 138.301 1928.07 134.571Z" fill="#C1DEE2"/>
<path opacity="0.5" fill-rule="evenodd" clip-rule="evenodd" d="M1720.57 59.3242C1726.69 60.5209 1736.69 74.3636 1741.73 79.6378C1747.73 85.9054 1753.17 92.5858 1758.29 99.5852C1769.33 114.651 1779.2 130.669 1787.59 147.373C1801.27 174.604 1812.24 202.558 1820.19 232.211C1825.06 250.363 1828.21 269.176 1830.08 287.859C1830.43 291.382 1834.13 318.546 1828.81 319.278C1824.02 319.938 1825.5 298.652 1825.27 295.757C1822.66 263.091 1814.83 231.308 1803.96 200.52C1801.59 193.813 1799.38 185.598 1795.6 179.562C1792.87 175.215 1795.58 176.731 1790.78 175.085C1786.66 173.672 1781.97 174.017 1777.75 172.287C1768.59 168.53 1761.26 161.237 1754.83 153.901C1742.33 139.645 1732.43 124.222 1727.27 105.954C1724.41 95.8251 1721.78 85.6373 1720.32 75.1953C1719.94 72.4963 1716.63 58.5534 1720.57 59.3242Z" fill="#69A1AC"/>
<path opacity="0.5" fill-rule="evenodd" clip-rule="evenodd" d="M1744.72 -170.99C1767.77 -131.016 1786.71 -87.1052 1798.94 -42.6302C1806.35 -15.6833 1811.53 11.9682 1816.68 39.42C1824.65 81.9256 1832.2 124.428 1834.34 167.689C1836.5 211.2 1840.77 261.385 1826.52 303.294C1833.63 260.745 1826.86 215.456 1825.66 172.643C1825.09 152.205 1823.42 131.967 1821.25 111.649C1819.13 91.9387 1815.68 72.3225 1812.46 52.7674C1810.89 43.2437 1809.24 33.7343 1807.57 24.2301C1807.07 21.3945 1806.86 12.9804 1805.06 11.0432C1803.25 9.09338 1794.01 8.29849 1791.11 6.8678C1785.27 3.98621 1779.78 -0.106903 1774.92 -4.43178C1765.6 -12.7225 1757.49 -23.5553 1751.09 -34.2339C1736.29 -58.9427 1730.37 -89.0964 1730.67 -117.712C1730.73 -123.268 1739.66 -183.096 1736.07 -183.92C1736.29 -184.173 1736.49 -184.435 1736.69 -184.706C1739.4 -180.158 1742.07 -175.578 1744.72 -170.99Z" fill="#89C5CC"/>
<path opacity="0.5" fill-rule="evenodd" clip-rule="evenodd" d="M1993.5 -26.8191C1993.86 -27.3321 1996.17 -30.8998 1995.01 -30.6718C1997.38 -31.136 1991.74 -26.737 1997.66 -29.4362C1994.85 -26.7845 1996.47 -23.3399 1996.51 -19.771C1996.57 -13.9768 1995.6 -8.22999 1994.51 -2.56003C1992.78 6.40245 1990.21 15.1166 1986.49 23.4528C1978.36 41.6192 1964.56 59.1077 1948.18 70.4652C1940.09 76.0729 1932.16 77.9821 1922.94 80.5637C1917.11 82.1946 1916.65 85.2086 1913.56 90.8625C1907.12 102.638 1900.79 114.372 1895.11 126.545C1888.33 141.081 1881.75 155.633 1875.54 170.425C1854.63 220.251 1837.6 271.871 1828.66 325.294C1828.44 293.812 1835.73 261.389 1844.91 231.382C1851.6 209.519 1860.32 188.444 1869.61 167.583C1871.86 162.529 1875.27 156.028 1876.23 150.448C1876.9 146.539 1874.85 142.779 1873.91 138.661C1870.26 122.623 1870.52 104.656 1873.73 88.5331C1877.27 70.7542 1887.5 62.5024 1904.8 59.9842C1911.13 59.063 1919.18 59.4006 1924.98 56.702C1931.3 53.7633 1933.91 44.1038 1937.51 37.9032C1947.16 21.247 1958.64 5.27267 1971.81 -8.76157C1975.46 -12.6478 1979.38 -16.2332 1983.55 -19.5563C1986.17 -21.6531 1991.71 -24.2362 1993.5 -26.8191Z" fill="#89C5CC"/>
<path opacity="0.5" fill-rule="evenodd" clip-rule="evenodd" d="M1799.45 291.293H1860.87C1863.63 291.293 1865.87 293.532 1865.87 296.293C1865.87 296.538 1865.85 296.781 1865.81 297.023L1861.07 329.211C1859.62 339.024 1851.2 346.293 1841.28 346.293H1819.04C1809.12 346.293 1800.7 339.024 1799.25 329.211L1794.5 297.023C1794.1 294.291 1795.99 291.75 1798.72 291.347C1798.96 291.311 1799.2 291.293 1799.45 291.293Z" fill="#C1DEE2"/>
</g>
<path opacity="0.2" fill-rule="evenodd" clip-rule="evenodd" d="M128.365 -178.849C131.876 -180.59 136.557 -178.57 134.604 -173.968C132.513 -169.039 124.779 -168.978 120.412 -169.076C120.849 -169.099 122.257 -173.618 122.738 -174.301C124.16 -176.316 126.206 -177.776 128.365 -178.849ZM87.9358 -89.0414C86.6956 -87.9811 87.8348 -88.942 87.9358 -89.0414V-89.0414ZM132.446 -155.965C134.545 -154.376 134.644 -151.568 132.927 -149.667C130.883 -147.404 127.153 -147.484 124.368 -147.703C123.108 -147.803 116.383 -148.333 117.978 -149.423C117.855 -149.377 117.599 -149.266 117.325 -149.115C117.177 -148.581 117.022 -148.049 116.86 -147.519C116.899 -147.496 116.933 -147.472 116.975 -147.449C116.93 -147.469 116.898 -147.49 116.857 -147.51C115.237 -142.217 112.932 -137.177 109.915 -132.461C111.043 -132.901 112.212 -133.235 113.397 -133.383C116.906 -133.825 124.286 -131.128 120.359 -126.499C116.593 -122.062 110.736 -126.817 106.465 -127.471C102.319 -121.743 97.7489 -116.253 92.9592 -110.946C93.2525 -110.855 93.5098 -110.666 93.6572 -110.371C95.5781 -111.337 97.5799 -112.718 99.3574 -113.093C101.922 -113.632 107.182 -113.961 109.119 -111.689C111.502 -108.895 108.945 -106.623 106.128 -106.085C102.043 -105.305 96.6973 -107.279 92.7679 -108.612C92.3183 -108.533 91.8276 -108.663 91.5346 -109.019C91.4478 -109.047 91.361 -109.075 91.2765 -109.102C86.4261 -103.821 81.3904 -98.7142 76.3853 -93.7193C76.4386 -93.7221 76.4918 -93.7253 76.5473 -93.7282C77.8527 -94.5765 79.2527 -95.2726 80.7701 -95.6377C84.2802 -96.4866 88.4096 -96.4929 91.2565 -93.9793C94.0923 -91.4766 95.0951 -87.0974 92.1586 -84.284C86.2807 -78.6523 77.6314 -91.4818 74.6683 -92.016C69.582 -86.9932 64.2042 -82.3001 58.742 -77.7015C59.3621 -77.8888 59.998 -78.0266 60.6553 -78.0887C66.0095 -78.599 78.573 -72.1049 71.9991 -65.7059C66.2704 -60.1297 59.6486 -70.8535 55.0362 -74.6027C49.889 -70.3166 44.7138 -66.0598 39.6837 -61.6374C42.4262 -62.3598 45.0764 -62.4674 48.0156 -61.5892C51.0569 -60.6791 55.9639 -58.407 54.039 -54.3388C52.0811 -50.2017 46.1881 -52.0808 43.119 -53.3925C41.445 -54.1078 38.0893 -56.5234 35.1424 -57.5401C27.1156 -50.0345 20.162 -41.7686 14.896 -32.0328C11.6084 -25.954 9.11262 -19.46 7.35484 -12.786C6.23285 -8.52606 4.02279 -1.3712 4.46167 4.17231C2.36193 -6.92329 6.17565 -20.2525 10.2817 -30.1731C14.0571 -39.2957 19.7043 -47.3052 26.3179 -54.5156C24.6617 -59.4556 10.7038 -66.5748 19.0526 -71.1694C23.4859 -73.5987 28.0234 -69.5737 28.99 -65.3089C29.654 -62.3782 28.6382 -58.6949 27.5608 -55.8495C29.6413 -58.0475 31.8039 -60.1749 34.0324 -62.2318C37.1121 -65.0745 40.2655 -67.8349 43.449 -70.5605C38.2078 -75.4366 33.2523 -89.3811 40.2842 -91.6657C50.668 -95.0297 45.6593 -76.0028 44.9333 -72.4368C44.7276 -72.4246 44.5673 -72.4861 44.4495 -72.618C44.5077 -72.2915 44.5753 -71.9423 44.6572 -71.5903C50.7503 -76.7798 56.9337 -81.8673 62.9136 -87.1807C62.3753 -87.5747 61.5199 -89.0805 60.8475 -89.8818C59.33 -91.6883 57.8781 -93.5755 56.8174 -95.6892C55.1419 -99.0295 53.527 -104.358 57.974 -106.325C62.8104 -108.469 65.105 -102.443 65.1369 -98.847C65.1586 -96.3601 64.4735 -93.9974 64.1161 -91.5597C64.0044 -90.7994 64.4313 -87.3729 63.3864 -88.8465C63.4354 -88.303 63.4423 -87.9093 63.4177 -87.6302C64.4913 -88.5889 65.5566 -89.558 66.6152 -90.5341C66.5663 -90.6572 66.53 -90.7915 66.5218 -90.9472C66.4657 -92.0192 67.5551 -92.4326 68.3187 -92.119C69.7156 -93.4337 71.0988 -94.765 72.4573 -96.1226C75.3367 -98.9989 78.2579 -101.957 81.1588 -104.979C80.5301 -105.513 80.7806 -106.255 80.1926 -106.823C79.6055 -107.389 78.4489 -107.702 77.7585 -108.228C76.022 -109.553 74.5825 -111.483 73.5417 -113.382C71.8233 -116.521 69.6039 -123.106 74.6292 -124.605C79.809 -126.152 82.4346 -119.814 82.7656 -115.85C82.83 -115.082 82.2459 -108.163 81.8001 -105.65C87.168 -111.265 92.4477 -117.091 97.2314 -123.017C95.7819 -123.03 91.6739 -125.969 90.8435 -126.771C88.8174 -128.728 85.5972 -133.051 89.1522 -135.342C92.3132 -137.374 96.2067 -134.435 97.5565 -131.578C97.7783 -131.108 98.5593 -126.728 98.6194 -124.763C100.599 -127.277 102.488 -129.805 104.245 -132.341C105.417 -134.027 106.513 -135.757 107.538 -137.524C107.291 -137.663 107.059 -137.904 106.84 -138.204C101.571 -139.087 94.8557 -147.227 101.047 -150.064C103.995 -151.412 107.19 -148.633 108.633 -146.357C108.929 -145.891 109.406 -143.549 109.795 -141.702C112.744 -147.557 114.998 -153.754 116.715 -160.108C116.256 -160.221 115.868 -160.568 115.817 -161.165C113.259 -162.608 111.239 -163.81 109.454 -166.587C108.346 -168.312 106.349 -172.253 109.61 -173.213C113.854 -174.461 116.516 -168.044 116.862 -164.883C116.902 -164.516 116.9 -163.449 116.885 -162.471C117.033 -162.491 117.181 -162.488 117.328 -162.463C118.304 -166.397 119.084 -170.382 119.705 -174.374C117.389 -175.111 116.995 -187.156 118.538 -188.872C121.986 -192.714 124.415 -187.168 124.23 -184.236C124.01 -180.779 122.427 -177.633 120.542 -174.841C120.34 -174.545 120.397 -174.56 120.345 -174.971C120.316 -174.768 120.247 -174.618 120.145 -174.509C120.242 -172.689 120.43 -170.826 120.338 -169.216C120.075 -164.604 119.53 -159.966 118.741 -155.413C118.548 -154.306 118.328 -153.208 118.082 -152.119C119.944 -153.69 122.455 -155.087 123.437 -155.524C125.986 -156.657 129.915 -157.88 132.446 -155.965ZM4.04463 3.73454C4.16768 5.21637 4.53313 6.56874 5.2526 7.67672C4.72444 6.41016 4.32832 5.09119 4.04463 3.73454Z" fill="#C1DEE2"/>
<g opacity="0.5">
<path opacity="0.5" fill-rule="evenodd" clip-rule="evenodd" d="M96.3714 -27.8498C100.574 -33.8418 108.372 -49.0595 114.287 -51.2007C118.096 -52.5797 116.986 -38.3142 117.033 -35.5941C117.216 -25.0703 116.191 -14.6133 114.926 -4.17792C112.647 14.6423 105.193 31.4031 94.9705 47.421C89.71 55.6631 83.5398 64.0053 74.9939 69.148C71.0602 71.5163 66.327 71.9129 62.4422 73.9534C57.9178 76.3288 60.3818 74.4085 58.3428 79.1232C55.5112 85.6688 54.6055 94.1134 53.2954 101.098C47.28 133.16 32.7167 302.65 35.2415 335.264C35.4657 338.154 31.4349 338.846 31.2337 335.317C30.1642 316.605 39.4189 187.028 44.088 144.652C48.7571 102.277 53.4821 64.8402 58.2198 50.1796C63.9673 32.3932 74.3476 11.0036 82.9886 -5.58301C87.0022 -13.2888 91.3772 -20.7291 96.3714 -27.8498Z" fill="#69A1AC"/>
<path opacity="0.5" fill-rule="evenodd" clip-rule="evenodd" d="M127.563 179.983C138.498 171.955 150.334 187.107 140.439 195.136C134.969 199.574 129.25 197.995 126.03 194.297C123.94 196.844 121.984 199.508 120.105 201.758C114.378 208.614 108.965 215.634 103.792 222.817C93.0464 237.74 83.8374 253.506 74.2087 268.984C64.7065 284.26 55.2802 299.614 46.6675 315.276C39.3713 328.546 29.6464 344.158 27.1484 358.706C30.9385 327.852 45.3203 298.196 62.4465 270.996C79.4333 244.02 98.9276 214.558 125.229 193.269C122.553 189.333 122.478 183.713 127.563 179.983Z" fill="#C1DEE2"/>
<path opacity="0.5" fill-rule="evenodd" clip-rule="evenodd" d="M-79.9384 104.736C-73.8191 105.933 -63.8203 119.776 -58.7763 125.05C-52.7817 131.318 -47.3432 137.998 -42.2167 144.997C-31.1805 160.063 -21.3105 176.081 -12.9176 192.785C0.764885 220.017 11.7264 247.97 19.6816 277.623C24.5513 295.775 27.7042 314.589 29.5728 333.271C29.9256 336.794 33.6196 363.958 28.2968 364.691C23.5095 365.35 24.9881 344.064 24.7572 341.169C22.1465 308.503 14.3257 276.72 3.44696 245.932C1.07742 239.225 -1.12397 231.01 -4.91342 224.974C-7.64236 220.627 -4.93299 222.143 -9.72874 220.497C-13.8466 219.084 -18.5384 219.429 -22.7553 217.699C-31.9159 213.942 -39.251 206.649 -45.6807 199.313C-58.1758 185.057 -68.0776 169.634 -73.2389 151.366C-76.1021 141.237 -78.7332 131.049 -80.1933 120.607C-80.571 117.908 -83.8797 103.966 -79.9384 104.736Z" fill="#69A1AC"/>
<path opacity="0.5" fill-rule="evenodd" clip-rule="evenodd" d="M-55.7902 -125.578C-32.7403 -85.6039 -13.7988 -41.6931 -1.56814 2.78192C5.84218 29.7289 11.0244 57.3803 16.1734 84.8321C24.1457 127.338 31.6865 169.84 33.8316 213.101C35.9896 256.612 40.2569 306.797 26.0093 348.706C33.1261 306.157 26.3504 260.868 25.1507 218.056C24.5774 197.618 22.9161 177.379 20.7367 157.061C18.6219 137.351 15.1668 117.735 11.9494 98.1795C10.3821 88.6558 8.73608 79.1464 7.06023 69.6422C6.55994 66.8066 6.3486 58.3925 4.54987 56.4554C2.73949 54.5055 -6.49728 53.7106 -9.39719 52.2799C-15.2366 49.3983 -20.7294 45.3052 -25.5907 40.9803C-34.9098 32.6896 -43.0169 21.8568 -49.4157 11.1782C-64.2209 -13.5306 -70.14 -43.6843 -69.8408 -72.3002C-69.7833 -77.8561 -60.8482 -137.684 -64.4367 -138.508C-64.2206 -138.761 -64.0162 -139.023 -63.8235 -139.294C-61.1067 -134.746 -58.4408 -130.166 -55.7902 -125.578Z" fill="#89C5CC"/>
<path opacity="0.5" fill-rule="evenodd" clip-rule="evenodd" d="M192.995 18.593C193.35 18.08 195.665 14.5123 194.499 14.7404C196.873 14.2761 191.235 18.6751 197.148 15.9759C194.341 18.6276 195.961 22.0722 195.999 25.6411C196.06 31.4353 195.09 37.1821 193.999 42.8521C192.275 51.8146 189.706 60.5287 185.977 68.8649C177.85 87.0313 164.05 104.52 147.667 115.877C139.579 121.485 131.652 123.394 122.428 125.976C116.602 127.607 116.14 130.621 113.047 136.275C106.608 148.05 100.284 159.784 94.6057 171.957C87.8253 186.493 81.2432 201.045 75.0343 215.837C54.1179 265.663 37.0938 317.284 28.1532 370.706C27.9343 339.224 35.2171 306.801 44.4035 276.794C51.0953 254.931 59.8068 233.857 69.0984 212.995C71.3499 207.941 74.7619 201.44 75.7181 195.86C76.3876 191.951 74.3407 188.191 73.4035 184.073C69.7499 168.035 70.0114 150.068 73.2198 133.945C76.7573 116.166 86.9877 107.915 104.294 105.396C110.623 104.475 118.667 104.813 124.471 102.114C130.793 99.1754 133.402 89.5159 136.997 83.3153C146.654 66.6591 158.128 50.6848 171.303 36.6505C174.952 32.7643 178.875 29.1789 183.037 25.8558C185.662 23.759 191.206 21.1759 192.995 18.593Z" fill="#89C5CC"/>
</g>
<path opacity="0.2" fill-rule="evenodd" clip-rule="evenodd" d="M187.753 -152.444C191.265 -154.185 195.945 -152.166 193.993 -147.563C191.901 -142.634 184.168 -142.573 179.8 -142.671C180.238 -142.694 181.645 -147.214 182.127 -147.897C183.548 -149.911 185.595 -151.372 187.753 -152.444ZM147.324 -62.6367C146.084 -61.5763 147.224 -62.5372 147.324 -62.6367V-62.6367ZM191.834 -129.56C193.934 -127.971 194.033 -125.163 192.316 -123.262C190.272 -120.999 186.541 -121.08 183.757 -121.299C182.497 -121.398 175.771 -121.928 177.366 -123.019C177.244 -122.973 176.987 -122.861 176.713 -122.71C176.565 -122.176 176.41 -121.644 176.249 -121.114C176.288 -121.091 176.322 -121.067 176.364 -121.044C176.318 -121.064 176.286 -121.085 176.246 -121.106C174.626 -115.812 172.321 -110.772 169.304 -106.056C170.432 -106.496 171.6 -106.83 172.785 -106.979C176.294 -107.42 183.675 -104.723 179.747 -100.094C175.981 -95.6568 170.125 -100.413 165.854 -101.067C161.708 -95.3382 157.138 -89.8481 152.348 -84.5412C152.641 -84.4504 152.898 -84.261 153.046 -83.9659C154.967 -84.9318 156.969 -86.3131 158.746 -86.6877C161.311 -87.2275 166.57 -87.5567 168.507 -85.2842C170.89 -82.4899 168.333 -80.2179 165.516 -79.6803C161.432 -78.9006 156.086 -80.8742 152.157 -82.2076C151.707 -82.1286 151.216 -82.2586 150.923 -82.6146C150.836 -82.6427 150.75 -82.6704 150.665 -82.6973C145.815 -77.4163 140.779 -72.3094 135.774 -67.3145C135.827 -67.3173 135.88 -67.3205 135.936 -67.3234C137.241 -68.1717 138.641 -68.8678 140.159 -69.2329C143.669 -70.0818 147.798 -70.0881 150.645 -67.5746C153.481 -65.0718 154.484 -60.6926 151.547 -57.8792C145.669 -52.2475 137.02 -65.077 134.057 -65.6112C128.971 -60.5884 123.593 -55.8953 118.131 -51.2968C118.751 -51.484 119.387 -51.6218 120.044 -51.6839C125.398 -52.1942 137.962 -45.7001 131.388 -39.3011C125.659 -33.7249 119.037 -44.4487 114.425 -48.1979C109.278 -43.9118 104.102 -39.6551 99.0724 -35.2326C101.815 -35.9551 104.465 -36.0626 107.404 -35.1844C110.446 -34.2744 115.353 -32.0023 113.428 -27.9341C111.47 -23.7969 105.577 -25.676 102.508 -26.9877C100.834 -27.703 97.478 -30.1186 94.5311 -31.1353C86.5042 -23.6297 79.5507 -15.3638 74.2847 -5.62797C70.9971 0.450828 68.5013 6.94476 66.7435 13.6188C65.6215 17.8787 63.4115 25.0336 63.8503 30.5771C61.7506 19.4815 65.5643 6.15224 69.6704 -3.76836C73.4457 -12.8909 79.093 -20.9004 85.7065 -28.1108C84.0504 -33.0508 70.0925 -40.17 78.4412 -44.7646C82.8746 -47.194 87.412 -43.1689 88.3787 -38.9041C89.0426 -35.9734 88.0269 -32.2901 86.9495 -29.4447C89.0299 -31.6427 91.1926 -33.7701 93.4211 -35.827C96.5008 -38.6698 99.6541 -41.4301 102.838 -44.1557C97.5965 -49.0318 92.6409 -62.9764 99.6729 -65.2609C110.057 -68.6249 105.048 -49.598 104.322 -46.032C104.116 -46.0199 103.956 -46.0814 103.838 -46.2132C103.896 -45.8867 103.964 -45.5375 104.046 -45.1855C110.139 -50.375 116.322 -55.4626 122.302 -60.7759C121.764 -61.1699 120.909 -62.6757 120.236 -63.477C118.719 -65.2836 117.267 -67.1707 116.206 -69.2844C114.531 -72.6247 112.916 -77.9531 117.363 -79.9206C122.199 -82.0643 124.494 -76.0379 124.526 -72.4422C124.547 -69.9553 123.862 -67.5926 123.505 -65.1549C123.393 -64.3946 123.82 -60.9681 122.775 -62.4417C122.824 -61.8982 122.831 -61.5045 122.806 -61.2254C123.88 -62.1841 124.945 -63.1532 126.004 -64.1293C125.955 -64.2524 125.919 -64.3867 125.911 -64.5424C125.854 -65.6144 126.944 -66.0278 127.707 -65.7142C129.104 -67.0289 130.487 -68.3602 131.846 -69.7178C134.725 -72.5941 137.647 -75.5524 140.548 -78.5737C139.919 -79.1087 140.169 -79.8499 139.581 -80.4178C138.994 -80.9844 137.838 -81.2974 137.147 -81.8236C135.411 -83.1479 133.971 -85.0779 132.93 -86.9775C131.212 -90.1163 128.993 -96.7013 134.018 -98.2002C139.198 -99.7477 141.823 -93.4091 142.154 -89.4455C142.219 -88.6777 141.635 -81.7583 141.189 -79.2456C146.557 -84.8605 151.836 -90.686 156.62 -96.6126C155.171 -96.6252 151.063 -99.5642 150.232 -100.366C148.206 -102.323 144.986 -106.647 148.541 -108.937C151.702 -110.969 155.595 -108.031 156.945 -105.173C157.167 -104.703 157.948 -100.324 158.008 -98.3586C159.988 -100.872 161.877 -103.4 163.634 -105.936C164.806 -107.622 165.901 -109.352 166.926 -111.12C166.68 -111.258 166.448 -111.499 166.229 -111.799C160.959 -112.682 154.244 -120.822 160.436 -123.659C163.384 -125.008 166.579 -122.228 168.022 -119.952C168.317 -119.486 168.795 -117.145 169.184 -115.297C172.133 -121.152 174.387 -127.35 176.104 -133.704C175.645 -133.816 175.257 -134.163 175.206 -134.76C172.648 -136.203 170.628 -137.405 168.843 -140.182C167.734 -141.907 165.738 -145.849 168.999 -146.808C173.243 -148.056 175.905 -141.639 176.25 -138.478C176.29 -138.111 176.288 -137.044 176.274 -136.066C176.421 -136.086 176.57 -136.084 176.716 -136.058C177.693 -139.993 178.473 -143.978 179.093 -147.969C176.778 -148.706 176.383 -160.752 177.926 -162.467C181.375 -166.31 183.804 -160.763 183.618 -157.831C183.399 -154.374 181.816 -151.228 179.931 -148.436C179.728 -148.141 179.786 -148.155 179.734 -148.567C179.705 -148.363 179.636 -148.213 179.534 -148.104C179.63 -146.284 179.819 -144.421 179.727 -142.811C179.464 -138.199 178.919 -133.561 178.129 -129.008C177.937 -127.901 177.717 -126.803 177.471 -125.714C179.333 -127.286 181.843 -128.682 182.826 -129.119C185.375 -130.252 189.304 -131.475 191.834 -129.56ZM63.4333 30.1393C63.5564 31.6212 63.9218 32.9735 64.6413 34.0815C64.1131 32.8149 63.717 31.496 63.4333 30.1393Z" fill="#C1DEE2"/>
<g opacity="0.5">
<path opacity="0.5" fill-rule="evenodd" clip-rule="evenodd" d="M155.76 -1.44501C159.962 -7.43702 167.761 -22.6548 173.675 -24.7959C177.485 -26.175 176.374 -11.9094 176.421 -9.18929C176.605 1.33446 175.58 11.7915 174.315 22.2269C172.035 41.047 164.582 57.8078 154.359 73.8257C149.099 82.0679 142.929 90.4101 134.383 95.5528C130.449 97.9211 125.716 98.3177 121.831 100.358C117.306 102.734 119.77 100.813 117.731 105.528C114.9 112.074 113.994 120.518 112.684 127.503C106.669 159.565 92.1054 329.055 94.6301 361.669C94.8544 364.559 90.8236 365.251 90.6224 361.722C89.5529 343.01 98.8076 213.433 103.477 171.057C108.146 128.682 112.871 91.245 117.608 76.5844C123.356 58.7979 133.736 37.4084 142.377 20.8218C146.391 13.116 150.766 5.67571 155.76 -1.44501Z" fill="#69A1AC"/>
<path opacity="0.5" fill-rule="evenodd" clip-rule="evenodd" d="M186.951 206.388C197.886 198.36 209.723 213.511 199.828 221.541C194.357 225.979 188.639 224.4 185.419 220.702C183.329 223.249 181.373 225.913 179.493 228.163C173.766 235.019 168.354 242.039 163.181 249.222C152.435 264.145 143.226 279.911 133.597 295.389C124.095 310.664 114.669 326.018 106.056 341.681C98.76 354.951 89.0351 370.562 86.5371 385.11C90.3272 354.257 104.709 324.601 121.835 297.401C138.822 270.424 158.316 240.963 184.618 219.674C181.941 215.737 181.867 210.118 186.951 206.388Z" fill="#C1DEE2"/>
<path opacity="0.5" fill-rule="evenodd" clip-rule="evenodd" d="M-20.5497 131.141C-14.4305 132.338 -4.43167 146.181 0.612408 151.455C6.60696 157.722 12.0455 164.403 17.172 171.402C28.2082 186.468 38.0782 202.486 46.471 219.19C60.1536 246.421 71.115 274.375 79.0703 304.028C83.9399 322.18 87.0928 340.993 88.9614 359.676C89.3143 363.199 93.0083 390.363 87.6855 391.095C82.8982 391.755 84.3768 370.469 84.1459 367.574C81.5352 334.908 73.7143 303.125 62.8356 272.336C60.4661 265.629 58.2647 257.415 54.4753 251.379C51.7463 247.031 54.4557 248.548 49.6599 246.902C45.542 245.489 40.8502 245.834 36.6334 244.104C27.4727 240.347 20.1377 233.054 13.708 225.718C1.21287 211.462 -8.68889 196.038 -13.8503 177.771C-16.7134 167.642 -19.3445 157.454 -20.8046 147.012C-21.1823 144.313 -24.4911 130.37 -20.5497 131.141Z" fill="#69A1AC"/>
<path opacity="0.5" fill-rule="evenodd" clip-rule="evenodd" d="M3.59847 -99.1735C26.6484 -59.1991 45.5899 -15.2883 57.8205 29.1867C65.2309 56.1336 70.4131 83.7851 75.5621 111.237C83.5344 153.743 91.0752 196.245 93.2202 239.506C95.3783 283.017 99.6456 333.202 85.3979 375.11C92.5147 332.562 85.7391 287.273 84.5394 244.46C83.9661 224.022 82.3047 203.784 80.1254 183.466C78.0105 163.756 74.5555 144.139 71.338 124.584C69.7708 115.061 68.1248 105.551 66.4489 96.047C65.9486 93.2114 65.7373 84.7973 63.9385 82.8601C62.1282 80.9103 52.8914 80.1154 49.9915 78.6847C44.152 75.8031 38.6593 71.71 33.798 67.3851C24.4789 59.0944 16.3718 48.2616 9.97297 37.583C-4.83221 12.8742 -10.7513 -17.2795 -10.4521 -45.8954C-10.3946 -51.4513 -1.45949 -111.28 -5.04799 -112.103C-4.83194 -112.356 -4.62756 -112.618 -4.43485 -112.89C-1.71805 -108.341 0.947922 -103.761 3.59847 -99.1735Z" fill="#89C5CC"/>
<path opacity="0.5" fill-rule="evenodd" clip-rule="evenodd" d="M252.383 44.9976C252.739 44.4846 255.054 40.917 253.888 41.145C256.261 40.6808 250.624 45.0797 256.537 42.3806C253.729 45.0323 255.35 48.4768 255.387 52.0457C255.448 57.84 254.479 63.5868 253.388 69.2567C251.663 78.2192 249.094 86.9334 245.366 95.2695C237.239 113.436 223.439 130.924 207.055 142.282C198.968 147.89 191.041 149.799 181.817 152.38C175.99 154.011 175.528 157.025 172.436 162.679C165.997 174.455 159.673 186.189 153.994 198.362C147.214 212.898 140.632 227.45 134.423 242.242C113.507 292.068 96.4824 343.688 87.5419 397.11C87.323 365.629 94.6057 333.206 103.792 303.199C110.484 281.336 119.195 260.261 128.487 239.4C130.739 234.346 134.151 227.845 135.107 222.265C135.776 218.356 133.729 214.596 132.792 210.478C129.139 194.44 129.4 176.473 132.609 160.35C136.146 142.571 146.376 134.319 163.682 131.801C170.011 130.88 178.056 131.217 183.859 128.519C190.182 125.58 192.79 115.921 196.386 109.72C206.043 93.0638 217.517 77.0894 230.692 63.0552C234.34 59.1689 238.263 55.5836 242.426 52.2604C245.05 50.1637 250.595 47.5805 252.383 44.9976Z" fill="#89C5CC"/>
</g>
<path opacity="0.2" fill-rule="evenodd" clip-rule="evenodd" d="M135.22 -154.128C138.731 -155.87 143.412 -153.85 141.46 -149.247C139.368 -144.319 131.635 -144.258 127.267 -144.355C127.704 -144.378 129.112 -148.898 129.594 -149.581C131.015 -151.596 133.062 -153.056 135.22 -154.128ZM94.7912 -64.3212C93.551 -63.2609 94.6903 -64.2218 94.7912 -64.3212V-64.3212ZM139.301 -131.244C141.401 -129.655 141.499 -126.848 139.783 -124.947C137.739 -122.684 134.008 -122.764 131.223 -122.983C129.964 -123.082 123.238 -123.612 124.833 -124.703C124.71 -124.657 124.454 -124.546 124.18 -124.394C124.032 -123.86 123.877 -123.329 123.715 -122.799C123.755 -122.776 123.789 -122.751 123.831 -122.729C123.785 -122.749 123.753 -122.77 123.713 -122.79C122.093 -117.497 119.788 -112.456 116.77 -107.74C117.899 -108.181 119.067 -108.514 120.252 -108.663C123.761 -109.105 131.141 -106.408 127.214 -101.779C123.448 -97.3414 117.592 -102.097 113.321 -102.751C109.175 -97.0228 104.604 -91.5327 99.8147 -86.2258C100.108 -86.135 100.365 -85.9455 100.513 -85.6505C102.434 -86.6164 104.435 -87.9977 106.213 -88.3723C108.778 -88.9121 114.037 -89.2413 115.974 -86.9688C118.357 -84.1744 115.8 -81.9024 112.983 -81.3649C108.898 -80.5852 103.553 -82.5588 99.6234 -83.8921C99.1738 -83.8132 98.6831 -83.9432 98.3901 -84.2991C98.3032 -84.3273 98.2164 -84.3549 98.1319 -84.3818C93.2816 -79.1009 88.2458 -73.994 83.2408 -68.9991C83.294 -69.0018 83.3473 -69.0051 83.4028 -69.008C84.7082 -69.8563 86.1082 -70.5524 87.6256 -70.9175C91.1357 -71.7664 95.2651 -71.7727 98.112 -69.2591C100.948 -66.7564 101.951 -62.3772 99.014 -59.5638C93.1362 -53.9321 84.4869 -66.7616 81.5237 -67.2958C76.4375 -62.273 71.0597 -57.5799 65.5974 -52.9813C66.2176 -53.1686 66.8535 -53.3064 67.5108 -53.3685C72.865 -53.8788 85.4284 -47.3847 78.8546 -40.9857C73.1259 -35.4094 66.5041 -46.1332 61.8916 -49.8824C56.7444 -45.5963 51.5692 -41.3396 46.5392 -36.9171C49.2817 -37.6396 51.9319 -37.7472 54.871 -36.869C57.9123 -35.9589 62.8194 -33.6868 60.8945 -29.6186C58.9366 -25.4815 53.0436 -27.3606 49.9744 -28.6723C48.3005 -29.3876 44.9448 -31.8032 41.9979 -32.8199C33.971 -25.3143 27.0175 -17.0484 21.7515 -7.31254C18.4639 -1.23374 15.9681 5.26019 14.2103 11.9343C13.0883 16.1942 10.8783 23.349 11.3171 28.8925C9.2174 17.7969 13.0311 4.46767 17.1372 -5.45293C20.9125 -14.5754 26.5598 -22.585 33.1733 -29.7954C31.5172 -34.7354 17.5593 -41.8546 25.908 -46.4492C30.3414 -48.8785 34.8788 -44.8535 35.8455 -40.5887C36.5094 -37.658 35.4937 -33.9747 34.4163 -31.1293C36.4967 -33.3273 38.6594 -35.4547 40.8879 -37.5116C43.9675 -40.3543 47.1209 -43.1147 50.3044 -45.8403C45.0633 -50.7163 40.1077 -64.6609 47.1397 -66.9455C57.5235 -70.3095 52.5148 -51.2825 51.7887 -47.7166C51.583 -47.7044 51.4228 -47.7659 51.3049 -47.8977C51.3631 -47.5712 51.4307 -47.2221 51.5126 -46.87C57.6058 -52.0596 63.7892 -57.1471 69.7691 -62.4605C69.2308 -62.8545 68.3754 -64.3602 67.703 -65.1616C66.1855 -66.9681 64.7336 -68.8553 63.6729 -70.969C61.9974 -74.3092 60.3825 -79.6377 64.8295 -81.6052C69.6658 -83.7488 71.9605 -77.7225 71.9924 -74.1268C72.0141 -71.6399 71.329 -69.2772 70.9715 -66.8395C70.8598 -66.0792 71.2868 -62.6526 70.2419 -64.1262C70.2909 -63.5827 70.2978 -63.1891 70.2732 -62.91C71.3468 -63.8687 72.4121 -64.8378 73.4706 -65.8138C73.4217 -65.937 73.3855 -66.0713 73.3773 -66.227C73.3211 -67.299 74.4105 -67.7124 75.1742 -67.3988C76.5711 -68.7135 77.9543 -70.0447 79.3128 -71.4024C82.1922 -74.2786 85.1133 -77.237 88.0143 -80.2583C87.3856 -80.7932 87.6361 -81.5345 87.0481 -82.1024C86.461 -82.669 85.3043 -82.9819 84.614 -83.5082C82.8775 -84.8325 81.4379 -86.7625 80.3971 -88.6621C78.6788 -91.8008 76.4594 -98.3859 81.4847 -99.8848C86.6645 -101.432 89.2901 -95.0937 89.621 -91.1301C89.6855 -90.3622 89.1014 -83.4428 88.6556 -80.9301C94.0235 -86.5451 99.3032 -92.3706 104.087 -98.2972C102.637 -98.3098 98.5293 -101.249 97.6989 -102.051C95.6728 -104.007 92.4526 -108.331 96.0077 -110.622C99.1687 -112.654 103.062 -109.715 104.412 -106.858C104.634 -106.388 105.415 -102.008 105.475 -100.043C107.455 -102.556 109.344 -105.084 111.101 -107.62C112.273 -109.306 113.368 -111.037 114.393 -112.804C114.147 -112.942 113.915 -113.184 113.696 -113.484C108.426 -114.367 101.711 -122.507 107.903 -125.343C110.851 -126.692 114.046 -123.913 115.489 -121.636C115.784 -121.171 116.262 -118.829 116.651 -116.982C119.6 -122.837 121.854 -129.034 123.571 -135.388C123.112 -135.501 122.723 -135.848 122.673 -136.445C120.115 -137.888 118.095 -139.09 116.31 -141.867C115.201 -143.592 113.205 -147.533 116.466 -148.493C120.709 -149.741 123.371 -143.324 123.717 -140.163C123.757 -139.796 123.755 -138.728 123.741 -137.75C123.888 -137.77 124.037 -137.768 124.183 -137.743C125.16 -141.677 125.939 -145.662 126.56 -149.654C124.245 -150.391 123.85 -162.436 125.393 -164.152C128.842 -167.994 131.271 -162.448 131.085 -159.516C130.866 -156.058 129.282 -152.913 127.397 -150.121C127.195 -149.825 127.253 -149.84 127.201 -150.251C127.172 -150.048 127.103 -149.898 127.001 -149.789C127.097 -147.969 127.286 -146.106 127.194 -144.496C126.931 -139.884 126.386 -135.245 125.596 -130.693C125.404 -129.586 125.184 -128.487 124.937 -127.399C126.8 -128.97 129.31 -130.367 130.292 -130.804C132.842 -131.936 136.77 -133.16 139.301 -131.244ZM10.9001 28.4548C11.0231 29.9366 11.3886 31.289 12.1081 32.3969C11.5799 31.1304 11.1838 29.8114 10.9001 28.4548Z" fill="#C1DEE2"/>
<g opacity="0.5">
<path opacity="0.5" fill-rule="evenodd" clip-rule="evenodd" d="M103.227 -3.12958C107.429 -9.12159 115.228 -24.3393 121.142 -26.4804C124.952 -27.8595 123.841 -13.594 123.888 -10.8739C124.071 -0.350115 123.047 10.1069 121.782 20.5423C119.502 39.3625 112.049 56.1233 101.826 72.1412C96.5654 80.3834 90.3953 88.7255 81.8494 93.8682C77.9157 96.2366 73.1824 96.6331 69.2977 98.6736C64.7733 101.049 67.2373 99.1287 65.1983 103.843C62.3667 110.389 61.461 118.834 60.1509 125.818C54.1355 157.88 39.5722 327.37 42.0969 359.984C42.3212 362.875 38.2904 363.566 38.0892 360.037C37.0197 341.325 46.2743 211.748 50.9435 169.373C55.6126 126.997 60.3375 89.5604 65.0752 74.8998C70.8228 57.1134 81.2031 35.7238 89.844 19.1372C93.8577 11.4314 98.2326 3.99114 103.227 -3.12958Z" fill="#69A1AC"/>
<path opacity="0.5" fill-rule="evenodd" clip-rule="evenodd" d="M134.418 204.704C145.353 196.675 157.189 211.827 147.294 219.856C141.824 224.294 136.105 222.715 132.886 219.017C130.796 221.565 128.84 224.228 126.96 226.478C121.233 233.334 115.821 240.354 110.648 247.537C99.9019 262.46 90.6929 278.226 81.0642 293.704C71.562 308.98 62.1357 324.334 53.523 339.996C46.2268 353.267 36.5019 368.878 34.0039 383.426C37.794 352.572 52.1758 322.916 69.3019 295.716C86.2887 268.74 105.783 239.279 132.085 217.989C129.408 214.053 129.334 208.434 134.418 204.704Z" fill="#C1DEE2"/>
<path opacity="0.5" fill-rule="evenodd" clip-rule="evenodd" d="M-73.0829 129.457C-66.9637 130.653 -56.9649 144.496 -51.9208 149.77C-45.9262 156.038 -40.4877 162.718 -35.3612 169.718C-24.325 184.783 -14.455 200.802 -6.06217 217.506C7.62035 244.737 18.5818 272.69 26.537 302.343C31.4067 320.495 34.5596 339.309 36.4282 357.991C36.7811 361.514 40.4751 388.679 35.1523 389.411C30.365 390.07 31.8436 368.784 31.6126 365.889C29.002 333.224 21.1811 301.441 10.3024 270.652C7.93289 263.945 5.7315 255.73 1.94205 249.694C-0.786888 245.347 1.92248 246.863 -2.87327 245.218C-6.99118 243.804 -11.683 244.15 -15.8998 242.419C-25.0605 238.662 -32.3955 231.37 -38.8252 224.034C-51.3203 209.777 -61.2221 194.354 -66.3835 176.086C-69.2466 165.957 -71.8777 155.77 -73.3378 145.328C-73.7155 142.629 -77.0243 128.686 -73.0829 129.457Z" fill="#69A1AC"/>
<path opacity="0.5" fill-rule="evenodd" clip-rule="evenodd" d="M-48.9347 -100.858C-25.8848 -60.8837 -6.94332 -16.9729 5.28733 27.5021C12.6976 54.4491 17.8799 82.1006 23.0289 109.552C31.0012 152.058 38.542 194.56 40.687 237.821C42.8451 281.332 47.1124 331.518 32.8647 373.426C39.9815 330.878 33.2059 285.588 32.0062 242.776C31.4329 222.338 29.7715 202.1 27.5922 181.781C25.4773 162.071 22.0223 142.455 18.8048 122.9C17.2375 113.376 15.5916 103.867 13.9157 94.3624C13.4154 91.5268 13.2041 83.1127 11.4053 81.1756C9.59496 79.2257 0.358192 78.4308 -2.54173 77.0001C-8.38117 74.1185 -13.874 70.0254 -18.7352 65.7005C-28.0543 57.4099 -36.1614 46.5771 -42.5602 35.8984C-57.3654 11.1896 -63.2845 -18.9641 -62.9853 -47.5799C-62.9279 -53.1359 -53.9927 -112.964 -57.5812 -113.788C-57.3651 -114.041 -57.1608 -114.302 -56.9681 -114.574C-54.2513 -110.025 -51.5853 -105.446 -48.9347 -100.858Z" fill="#89C5CC"/>
<path opacity="0.5" fill-rule="evenodd" clip-rule="evenodd" d="M199.85 43.3131C200.206 42.8001 202.52 39.2324 201.355 39.4604C203.728 38.9962 198.091 43.3952 204.004 40.696C201.196 43.3477 202.817 46.7923 202.854 50.3612C202.915 56.1554 201.946 61.9022 200.854 67.5722C199.13 76.5346 196.561 85.2488 192.832 93.585C184.705 111.751 170.905 129.24 154.522 140.597C146.434 146.205 138.508 148.114 129.284 150.696C123.457 152.327 122.995 155.341 119.902 160.995C113.464 172.771 107.14 184.504 101.461 196.677C94.6808 211.213 88.0987 225.765 81.8898 240.557C60.9733 290.383 43.9492 342.004 35.0087 395.426C34.7898 363.944 42.0725 331.521 51.259 301.514C57.9508 279.651 66.6622 258.577 75.9538 237.715C78.2054 232.661 81.6174 226.16 82.5735 220.581C83.243 216.671 81.1962 212.911 80.259 208.793C76.6054 192.756 76.8669 174.788 80.0753 158.665C83.6128 140.886 93.8431 132.635 111.149 130.116C117.478 129.195 125.523 129.533 131.326 126.834C137.649 123.896 140.257 114.236 143.853 108.035C153.51 91.3792 164.984 75.4049 178.159 61.3706C181.807 57.4844 185.73 53.899 189.892 50.5759C192.517 48.4791 198.061 45.896 199.85 43.3131Z" fill="#89C5CC"/>
</g>
<path fill-rule="evenodd" clip-rule="evenodd" d="M108.115 177.419C105.875 176.309 102.89 177.597 104.135 180.532C105.469 183.676 110.401 183.715 113.187 183.652C112.908 183.638 112.01 180.755 111.703 180.319C110.797 179.034 109.491 178.103 108.115 177.419ZM133.917 233.78C134.482 234.263 133.963 233.825 133.917 233.78V233.78ZM105.957 191.638C104.647 192.639 104.584 194.408 105.655 195.605C106.93 197.03 109.257 196.979 110.995 196.84C111.781 196.777 115.977 196.441 114.983 195.754C115.059 195.783 115.219 195.853 115.39 195.948C115.482 196.285 115.579 196.62 115.679 196.953C115.655 196.968 115.634 196.983 115.607 196.998C115.636 196.985 115.656 196.972 115.681 196.959C116.69 200.293 118.127 203.468 120.008 206.438C119.304 206.161 118.575 205.951 117.836 205.858C115.646 205.581 111.041 207.282 113.49 210.197C115.838 212.992 119.493 209.994 122.158 209.58C124.743 213.188 127.593 216.645 130.58 219.987C130.397 220.045 130.237 220.164 130.144 220.35C128.946 219.742 127.698 218.873 126.589 218.637C124.989 218.298 121.707 218.092 120.498 219.524C119.01 221.286 120.605 222.716 122.362 223.054C124.911 223.544 128.247 222.299 130.699 221.458C130.979 221.507 131.285 221.425 131.468 221.201C131.523 221.183 131.577 221.166 131.629 221.149C134.654 224.474 137.795 227.69 140.916 230.835C140.883 230.833 140.849 230.831 140.815 230.83C140.001 230.296 139.127 229.858 138.181 229.628C135.991 229.094 133.414 229.092 131.637 230.676C129.867 232.254 129.24 235.013 131.071 236.785C134.737 240.331 140.138 232.245 141.987 231.908C145.158 235.071 148.512 238.026 151.919 240.921C151.532 240.803 151.135 240.717 150.725 240.678C147.385 240.358 139.544 244.453 143.644 248.483C147.216 251.994 151.351 245.236 154.23 242.872C157.44 245.571 160.668 248.251 163.805 251.036C162.094 250.581 160.441 250.514 158.607 251.069C156.709 251.643 153.646 253.076 154.846 255.638C156.066 258.244 159.744 257.058 161.659 256.231C162.704 255.78 164.798 254.257 166.637 253.616C171.643 258.342 175.979 263.547 179.262 269.679C181.311 273.508 182.866 277.598 183.961 281.803C184.659 284.486 186.036 288.993 185.76 292.486C187.074 285.494 184.699 277.098 182.14 270.849C179.787 265.103 176.266 260.059 172.142 255.518C173.177 252.405 181.888 247.916 176.681 245.024C173.915 243.495 171.083 246.032 170.478 248.719C170.063 250.566 170.696 252.886 171.367 254.678C170.07 253.294 168.721 251.954 167.331 250.659C165.411 248.869 163.444 247.131 161.459 245.415C164.73 242.341 167.827 233.555 163.44 232.117C156.962 230.001 160.081 241.987 160.533 244.234C160.661 244.241 160.761 244.202 160.835 244.119C160.799 244.325 160.756 244.545 160.705 244.767C156.905 241.499 153.049 238.296 149.319 234.95C149.655 234.702 150.189 233.753 150.609 233.248C151.557 232.109 152.463 230.92 153.126 229.588C154.172 227.483 155.181 224.125 152.407 222.887C149.39 221.538 147.957 225.336 147.936 227.601C147.921 229.168 148.348 230.656 148.57 232.192C148.64 232.671 148.372 234.83 149.025 233.901C148.994 234.243 148.99 234.491 149.005 234.667C148.335 234.064 147.671 233.453 147.011 232.839C147.041 232.761 147.064 232.677 147.069 232.579C147.104 231.903 146.425 231.643 145.948 231.841C145.077 231.013 144.215 230.175 143.367 229.32C141.572 227.509 139.75 225.646 137.941 223.743C138.333 223.406 138.177 222.939 138.544 222.581C138.911 222.224 139.633 222.026 140.064 221.695C141.147 220.86 142.046 219.643 142.696 218.446C143.769 216.468 145.156 212.319 142.021 211.376C138.79 210.403 137.15 214.397 136.942 216.894C136.902 217.378 137.264 221.737 137.541 223.32C134.194 219.784 130.901 216.116 127.918 212.384C128.823 212.375 131.387 210.522 131.905 210.017C133.17 208.783 135.181 206.058 132.963 204.616C130.992 203.337 128.561 205.19 127.718 206.99C127.58 207.287 127.091 210.046 127.053 211.284C125.818 209.701 124.641 208.109 123.545 206.512C122.814 205.45 122.132 204.36 121.493 203.247C121.646 203.16 121.791 203.008 121.928 202.819C125.216 202.261 129.408 197.13 125.546 195.345C123.707 194.496 121.713 196.249 120.812 197.683C120.627 197.977 120.328 199.452 120.085 200.616C118.247 196.928 116.843 193.024 115.774 189.022C116.06 188.951 116.302 188.732 116.334 188.356C117.931 187.446 119.191 186.688 120.306 184.938C120.998 183.851 122.245 181.367 120.211 180.764C117.563 179.979 115.9 184.022 115.684 186.014C115.659 186.245 115.659 186.918 115.668 187.534C115.576 187.521 115.483 187.523 115.392 187.539C114.784 185.06 114.299 182.55 113.913 180.035C115.358 179.57 115.608 171.981 114.646 170.901C112.495 168.481 110.978 171.976 111.093 173.824C111.228 176.002 112.215 177.983 113.391 179.741C113.517 179.927 113.481 179.918 113.513 179.659C113.531 179.787 113.574 179.882 113.638 179.95C113.577 181.097 113.459 182.271 113.516 183.285C113.679 186.191 114.017 189.113 114.508 191.981C114.628 192.678 114.765 193.37 114.918 194.056C113.757 193.066 112.191 192.187 111.578 191.912C109.988 191.2 107.537 190.43 105.957 191.638ZM185.947 292.495C185.873 293.508 185.69 294.436 185.349 295.201C185.605 294.33 185.801 293.425 185.947 292.495Z" fill="#F2F2F2"/>
<g opacity="0.7">
<path opacity="0.7" fill-rule="evenodd" clip-rule="evenodd" d="M151.676 246.039C157.896 245.716 165.588 249.347 166.251 256.107C166.733 261.019 166.584 265.917 167.33 270.822C167.927 274.742 169.188 278.505 170.909 282.076C172.563 285.51 175.995 288.432 176.887 292.101C177.456 294.438 177.138 297.726 176.353 300.012C175.399 302.792 175.906 302.572 177.807 304.904C181.533 309.475 184.887 314.162 187.259 319.621C190.676 327.484 192.917 336.675 191.648 345.282C191.487 346.375 191.296 350.298 189.791 350.572C188.11 350.878 188.896 348.635 188.985 347.911C189.557 343.287 190.066 339.245 189.376 334.55C186.714 316.432 173.716 304.494 165.253 289.117C164.788 288.324 163.805 286.436 163.122 285.19C162.044 283.224 160.96 279.481 159.501 278.023C156.752 275.275 159.279 280.799 159.815 281.853C160.492 283.187 161.237 284.604 161.931 285.773C165.106 291.191 168.651 297.104 171.93 302.688C157.747 305.92 147.758 288.869 143.952 277.659C140.816 268.423 137.064 246.829 151.676 246.039Z" fill="#69A1AC"/>
<path opacity="0.7" fill-rule="evenodd" clip-rule="evenodd" d="M235.037 228.888C224.64 229.713 217.965 236.573 214.858 246.169C213.183 251.34 212.991 256.653 212.061 261.967C210.661 269.963 207.649 276.022 201.762 281.718C199.939 283.482 198.595 285.294 197.64 287.231C195.744 289.166 194.093 291.356 192.881 294.033C191.332 297.451 190.894 301.553 192.682 304.961C193.163 305.877 194.362 307.717 195.606 308.552C190.951 318.466 188.392 329.322 188.68 340.165C188.855 346.711 189.174 353.259 189.547 359.796C189.647 361.552 190.219 364.45 191.077 361.506C191.863 358.814 190.878 354.587 190.787 351.774C190.343 338.07 189.964 325.61 195.605 312.807C196.196 311.465 196.823 310.134 197.477 308.813C197.515 308.791 197.551 308.764 197.587 308.738C197.612 308.757 197.634 308.778 197.659 308.797C197.701 308.722 197.758 308.634 197.825 308.535C198.012 308.342 198.176 308.097 198.331 307.825C198.831 307.131 199.398 306.317 199.401 305.871C199.401 305.867 199.399 305.862 199.399 305.858C202.891 300.158 206.891 294.771 210.976 289.49C210.946 289.529 215.408 283.453 214.718 286.813C214.385 288.432 211.103 291.516 209.778 293.231C206.845 297.046 203.402 301.881 200.54 306.556C200.155 306.777 199.611 307.864 199.218 308.673C199 309.083 198.798 309.496 198.599 309.856C208.738 313.206 216.625 306.459 222.003 298.61C222.01 298.601 222.016 298.591 222.022 298.582C223.659 296.413 225.335 294.26 227.43 292.545C230.924 289.685 234.666 289.18 238.787 287.772C250.022 283.933 254.8 269.372 256.317 258.567C258.028 246.377 249.655 227.686 235.037 228.888Z" fill="#89C5CC"/>
<path opacity="0.7" fill-rule="evenodd" clip-rule="evenodd" d="M214.499 194.752C203.828 205.858 198.672 221.263 194.59 235.744C190.031 251.919 187.019 268.343 186.904 285.159C186.828 296.208 186.527 307.325 187.172 318.361C187.401 322.28 187.792 326.207 188.413 330.084C188.464 330.402 189.854 339.059 191.184 337.042C191.94 335.895 189.759 328.062 189.594 326.757C188.667 319.409 188.452 312.006 188.497 304.604C188.571 292.418 188.212 280.294 189.447 268.152C189.631 266.339 189.777 264.435 190.208 262.662C190.665 260.776 190.083 261.599 191.572 260.853C193.019 260.127 194.807 260.231 196.308 259.321C202.264 255.709 205.31 246.433 207.681 240.347C210.393 233.387 212.042 225.965 213.358 218.641C214.325 213.259 215.016 207.911 215.407 202.46C215.53 200.742 215.537 198.946 215.875 197.257C215.966 196.801 216.422 195.995 216.406 195.591C216.371 194.737 215.855 194.235 215.813 193.518C215.366 193.92 214.928 194.331 214.499 194.752Z" fill="#89C5CC"/>
<path opacity="0.7" fill-rule="evenodd" clip-rule="evenodd" d="M192.238 342.829H190.48C190.602 340.624 190.763 338.423 191.132 336.243C192.542 327.905 196.949 315.659 206.617 314.305C206.973 314.255 208.285 314.246 209.874 314.34C210.627 313.919 211.471 313.664 212.36 313.606C220.591 312.999 229.782 319.639 233.753 326.549C236.953 332.12 236.414 339.436 234.437 345.355C233.113 349.318 230.224 354.968 225.406 355.023C219.378 355.092 219.087 347.642 218.971 343.286C218.816 337.496 218.084 332.452 213.522 328.505C212.458 327.585 211.296 326.776 210.222 325.87C208.54 324.45 206.681 322.997 206.464 320.649C206.165 317.41 207.994 316.827 210.785 317.429C211.261 317.531 216.055 319.683 215.345 317.982C215.129 317.463 214.337 317.051 213.338 316.743C210.753 316.462 207.67 316.136 206.784 316.331C197.219 318.429 193.495 331.678 192.506 340.096C192.399 341.004 192.313 341.916 192.238 342.829Z" fill="#69A1AC"/>
</g>
<path d="M1224.42 268.962H1261V314.681H1224.42V268.962Z" fill="#F7DECE"/>
<path d="M1261 281.397C1261 281.397 1247.28 290.541 1224.42 285.969V263.109H1261V281.397Z" fill="#EEC2AD"/>
<path d="M1272.96 204.202C1272.96 204.202 1272.95 198.601 1267.35 198.615C1261.75 198.633 1261.76 204.234 1261.76 204.234L1261.85 230.22C1260.94 229.799 1260 229.431 1259.05 229.118L1258.94 193.051C1258.94 193.051 1258.92 187.45 1253.33 187.468C1247.73 187.482 1247.74 193.087 1247.74 193.087L1247.84 227.011C1246.91 226.927 1245.98 226.863 1245.05 226.819L1244.93 187.491C1244.93 187.491 1244.91 181.891 1239.31 181.914C1233.71 181.932 1233.73 187.532 1233.73 187.532L1233.86 226.851C1232.9 226.905 1231.98 227.001 1231.05 227.088L1230.94 190.335C1230.94 190.335 1230.92 184.734 1225.32 184.757C1219.73 184.771 1219.75 190.367 1219.75 190.367L1219.86 229.233L1219.87 232.346V235.139C1236.67 235.098 1247.91 249.047 1247.97 263.046C1247.97 265.844 1245.17 265.862 1245.17 265.862C1245.12 249.047 1233.89 237.905 1217.09 237.956L1208.86 218.809C1208.86 218.809 1207.06 213.51 1201.74 215.325C1196.45 217.117 1198.25 222.425 1198.25 222.425L1202.33 236.621C1203.95 242.262 1205.46 247.941 1206.25 253.738C1207.38 261.778 1211.39 269.138 1217.52 274.458C1223.65 279.777 1231.51 282.697 1239.63 282.678C1258.16 282.6 1273.16 267.522 1273.1 248.983C1273.09 248.051 1273.04 247.121 1272.94 246.194L1273.09 246.176L1272.96 204.202Z" fill="#F7DECE"/>
<path d="M1405.55 295.481L1423.11 299.132L1418.55 321.087L1400.98 317.435L1405.55 295.481Z" fill="#F7DECE"/>
<path d="M1421.87 305.103C1421.87 305.103 1414.37 308.125 1403.85 303.647L1406.13 292.67L1423.7 296.322L1421.87 305.103Z" fill="#EEC2AD"/>
<path d="M1435.32 269.228C1435.32 269.228 1435.88 266.538 1433.19 265.986C1430.49 265.435 1429.94 268.126 1429.94 268.126L1427.39 280.613C1426.99 280.32 1426.58 280.05 1426.16 279.805L1429.7 262.473C1429.7 262.473 1430.25 259.782 1427.56 259.233C1424.87 258.68 1424.32 261.373 1424.32 261.373L1420.98 277.673C1420.54 277.54 1420.1 277.417 1419.66 277.303L1423.53 258.405C1423.53 258.405 1424.08 255.714 1421.39 255.166C1418.7 254.616 1418.15 257.307 1418.15 257.307L1414.28 276.201C1413.82 276.131 1413.37 276.085 1412.91 276.035L1416.53 258.374C1416.53 258.374 1417.08 255.682 1414.39 255.135C1411.7 254.583 1411.15 257.273 1411.15 257.273L1407.32 275.947L1407.02 277.443L1406.74 278.785C1414.81 280.442 1418.82 288.263 1417.45 294.99C1417.17 296.334 1415.82 296.064 1415.82 296.064C1417.48 287.984 1413.19 281.512 1405.12 279.859L1403.08 269.843C1403.08 269.843 1402.74 267.118 1400.01 267.459C1397.29 267.792 1397.62 270.52 1397.62 270.52L1398.17 277.744C1398.38 280.615 1398.54 283.493 1398.34 286.356C1398.08 290.33 1399.27 294.263 1401.69 297.43C1404.1 300.597 1407.58 302.783 1411.48 303.585C1420.39 305.398 1429.1 299.655 1430.92 290.746C1431.01 290.298 1431.08 289.846 1431.12 289.392L1431.19 289.398L1435.32 269.228Z" fill="#F7DECE"/>
<path d="M1065.67 304.495L1078.79 298.838L1085.86 315.232L1072.74 320.889L1065.67 304.495Z" fill="#F7DECE"/>
<path d="M1080.71 303.297C1080.71 303.297 1077.21 308.697 1068.3 310.594L1064.77 302.396L1077.88 296.739L1080.71 303.297Z" fill="#EEC2AD"/>
<path d="M1073.06 273.765C1073.06 273.765 1072.19 271.759 1070.18 272.629C1068.18 273.503 1069.05 275.509 1069.05 275.509L1073.1 284.814C1072.71 284.804 1072.32 284.816 1071.92 284.852L1066.31 271.936C1066.31 271.936 1065.43 269.931 1063.43 270.802C1061.42 271.673 1062.3 273.681 1062.3 273.681L1067.58 285.83C1067.23 285.943 1066.89 286.064 1066.55 286.192L1060.42 272.109C1060.42 272.109 1059.55 270.104 1057.54 270.978C1055.54 271.851 1056.41 273.856 1056.41 273.856L1062.54 287.935C1062.21 288.103 1061.89 288.28 1061.57 288.454L1055.85 275.293C1055.85 275.293 1054.97 273.288 1052.97 274.161C1050.96 275.032 1051.84 277.035 1051.84 277.035L1057.89 290.954L1058.38 292.069L1058.81 293.07C1064.82 290.458 1071.01 293.721 1073.2 298.732C1073.63 299.735 1072.63 300.175 1072.63 300.175C1070.01 294.153 1064.26 291.895 1058.25 294.511L1052.33 288.919C1052.33 288.919 1050.87 287.297 1049.24 288.77C1047.62 290.231 1049.09 291.857 1049.09 291.857L1052.74 296.316C1054.2 298.088 1055.62 299.89 1056.8 301.846C1058.45 304.555 1061.02 306.575 1064.05 307.534C1067.07 308.492 1070.33 308.325 1073.24 307.062C1079.88 304.167 1082.93 296.44 1080.04 289.802C1079.89 289.469 1079.73 289.143 1079.55 288.826L1079.6 288.797L1073.06 273.765Z" fill="#F7DECE"/>
<path d="M1147.15 292.002L1126.08 297.829L1133.36 324.164L1154.43 318.336L1147.15 292.002Z" fill="#F7DECE"/>
<path d="M1128.06 304.992C1128.06 304.992 1137.42 308.073 1149.86 301.798L1146.21 288.63L1125.15 294.458L1128.06 304.992Z" fill="#EEC2AD"/>
<path d="M1108.87 262.433C1108.87 262.433 1107.99 259.205 1111.21 258.321C1114.44 257.439 1115.33 260.667 1115.33 260.667L1119.42 275.649C1119.87 275.261 1120.35 274.9 1120.85 274.569L1115.17 253.775C1115.17 253.775 1114.29 250.546 1117.51 249.666C1120.74 248.781 1121.63 252.012 1121.63 252.012L1126.97 271.568C1127.5 271.372 1128.02 271.187 1128.55 271.013L1122.36 248.341C1122.36 248.341 1121.47 245.112 1124.7 244.233C1127.93 243.351 1128.81 246.581 1128.81 246.581L1135 269.248C1135.56 269.127 1136.11 269.035 1136.66 268.938L1130.87 247.75C1130.87 247.75 1129.99 244.52 1133.21 243.642C1136.44 242.759 1137.32 245.986 1137.32 245.986L1143.45 268.39L1143.93 270.186L1144.38 271.795C1134.7 274.447 1130.44 284.273 1132.64 292.345C1133.09 293.957 1134.7 293.522 1134.7 293.522C1132.05 283.828 1136.75 275.621 1146.43 272.973L1148.12 260.632C1148.12 260.632 1148.32 257.293 1151.67 257.492C1155 257.682 1154.81 261.025 1154.81 261.025L1154.72 269.852C1154.69 273.359 1154.72 276.871 1155.19 280.337C1155.82 285.149 1154.69 290.025 1152 294.067C1149.31 298.108 1145.26 301.041 1140.58 302.324C1129.89 305.233 1118.84 298.938 1115.93 288.249C1115.78 287.712 1115.66 287.167 1115.57 286.618L1115.48 286.631L1108.87 262.433Z" fill="#F7DECE"/>
<path d="M1334.96 295.221L1313.47 291.235L1308.48 318.1L1329.98 322.086L1334.96 295.221Z" fill="#F7DECE"/>
<path d="M1312.11 298.542C1312.11 298.542 1319.17 305.409 1333.11 305.214L1335.6 291.781L1314.1 287.795L1312.11 298.542Z" fill="#EEC2AD"/>
<path d="M1313.49 251.876C1313.49 251.876 1314.11 248.587 1317.4 249.205C1320.69 249.826 1320.07 253.116 1320.07 253.116L1317.19 268.377C1317.77 268.228 1318.36 268.114 1318.95 268.034L1322.95 246.852C1322.95 246.852 1323.57 243.563 1326.86 244.184C1330.15 244.802 1329.53 248.094 1329.53 248.094L1325.77 268.017C1326.33 268.069 1326.88 268.133 1327.43 268.208L1331.79 245.112C1331.79 245.112 1332.41 241.823 1335.7 242.447C1338.99 243.068 1338.36 246.357 1338.36 246.357L1334 269.447C1334.56 269.584 1335.09 269.741 1335.63 269.892L1339.7 248.308C1339.7 248.308 1340.32 245.019 1343.61 245.642C1346.89 246.26 1346.27 249.546 1346.27 249.546L1341.97 272.372L1341.62 274.2L1341.32 275.841C1331.45 273.987 1323.33 280.958 1321.77 289.178C1321.46 290.823 1323.11 291.138 1323.11 291.138C1324.97 281.263 1332.78 275.94 1342.65 277.8L1349.57 267.446C1349.57 267.446 1351.21 264.529 1354.13 266.174C1357.05 267.804 1355.41 270.727 1355.41 270.727L1351.47 278.624C1349.9 281.763 1348.39 284.935 1347.29 288.254C1345.75 292.856 1342.6 296.745 1338.42 299.202C1334.23 301.66 1329.3 302.52 1324.53 301.624C1313.65 299.558 1306.48 289.063 1308.53 278.176C1308.64 277.629 1308.77 277.088 1308.93 276.554L1308.84 276.527L1313.49 251.876Z" fill="#F7DECE"/>
<path d="M1146.24 147.095C1142.44 149.184 1140.13 152.928 1139.87 156.963C1136.32 155.017 1131.93 154.955 1128.12 157.045C1122.14 160.329 1119.93 167.908 1123.22 173.888C1129.14 184.671 1155.09 184.689 1155.09 184.689C1155.09 184.689 1169.06 162.871 1163.09 151.998C1159.8 146.017 1152.22 143.811 1146.24 147.095Z" fill="#FF786F"/>
<path d="M1051.68 122.586C1048.77 122.787 1046.3 124.423 1045 126.816C1043.38 124.624 1040.71 123.342 1037.79 123.543C1033.2 123.858 1029.71 127.868 1030.03 132.454C1030.6 140.722 1046.46 148.076 1046.46 148.076C1046.46 148.076 1061.17 138.686 1060.6 130.349C1060.28 125.763 1056.27 122.27 1051.68 122.586Z" fill="#FF786F"/>
<path d="M983.548 244.169C981.657 244.3 980.057 245.36 979.214 246.91C978.166 245.49 976.435 244.659 974.545 244.789C971.574 244.994 969.31 247.592 969.515 250.563C969.884 255.921 980.162 260.686 980.162 260.686C980.162 260.686 989.694 254.602 989.322 249.199C989.118 246.228 986.519 243.965 983.548 244.169Z" fill="#FF786F"/>
<path d="M1489.45 278.06C1488.1 276.727 1486.24 276.227 1484.52 276.619C1484.9 274.894 1484.38 273.047 1483.03 271.714C1480.91 269.62 1477.46 269.639 1475.37 271.756C1471.59 275.574 1474.81 286.437 1474.81 286.437C1474.81 286.437 1485.68 289.568 1489.49 285.718C1491.58 283.6 1491.56 280.154 1489.45 278.06Z" fill="#FF786F"/>
<path d="M1297.69 -0.763788C1296.35 -2.09646 1294.49 -2.59672 1292.77 -2.20428C1293.14 -3.92939 1292.62 -5.77717 1291.28 -7.10985C1289.16 -9.20404 1285.71 -9.18495 1283.62 -7.06741C1279.84 -3.24942 1283.06 7.6134 1283.06 7.6134C1283.06 7.6134 1293.93 10.744 1297.74 6.89392C1299.83 4.77638 1299.81 1.33041 1297.69 -0.763788Z" fill="#FF786F"/>
<path d="M1418.4 221.267C1415.2 219.415 1411.44 219.388 1408.39 220.982C1408.24 217.536 1406.34 214.3 1403.13 212.448C1398.09 209.538 1391.58 211.281 1388.67 216.322C1383.42 225.411 1394.89 244.354 1394.89 244.354C1394.89 244.354 1416.99 244.89 1422.28 235.725C1425.19 230.684 1423.45 224.178 1418.4 221.267Z" fill="#FF786F"/>
<path d="M1300.25 120.83C1296.69 119.818 1293.04 120.707 1290.46 123.001C1289.48 119.695 1286.84 117.022 1283.28 116.009C1277.68 114.418 1271.8 117.698 1270.21 123.297C1267.34 133.393 1283.09 148.961 1283.09 148.961C1283.09 148.961 1304.64 144.084 1307.54 133.903C1309.13 128.304 1305.85 122.421 1300.25 120.83Z" fill="#FF786F"/>
<path d="M1179.75 27.5354C1177.66 27.8164 1175.95 29.111 1175.13 30.8969C1173.86 29.392 1171.87 28.5925 1169.78 28.8735C1166.49 29.315 1164.16 32.3687 1164.6 35.6594C1165.39 41.5927 1177.17 46.1539 1177.17 46.1539C1177.17 46.1539 1187.34 38.6989 1186.54 32.7158C1186.09 29.4251 1183.04 27.0939 1179.75 27.5354Z" fill="#FF786F"/>
<path d="M1344.21 187.738L1346.35 187.166L1338.91 159.398L1336.77 159.971C1335.64 160.274 1334.67 161.015 1334.09 162.031C1333.5 163.047 1333.34 164.254 1333.64 165.387L1338.8 184.611C1339.1 185.744 1339.84 186.71 1340.86 187.296C1341.87 187.883 1343.08 188.041 1344.21 187.738ZM1370.95 150.813L1356 154.82L1356.46 146.984C1356.51 146.284 1356.38 145.585 1356.1 144.943C1355.82 144.302 1355.39 143.736 1354.85 143.293C1354.3 142.85 1353.66 142.543 1352.98 142.396C1352.29 142.249 1351.58 142.266 1350.91 142.448L1350.43 142.576L1342.86 157.053L1350.62 186.021L1374.12 179.725L1377.57 158.998L1377.54 158.336L1376.36 153.941C1376.06 152.808 1375.32 151.842 1374.3 151.255C1373.29 150.669 1372.08 150.51 1370.95 150.813Z" fill="#FFDEB7"/>
<path d="M1171.39 235.763L1169.47 235.248L1176.16 210.282L1178.08 210.797C1179.1 211.07 1179.97 211.736 1180.5 212.649C1181.03 213.563 1181.17 214.648 1180.9 215.667L1176.26 232.951C1175.99 233.969 1175.33 234.838 1174.41 235.365C1173.5 235.893 1172.41 236.035 1171.39 235.763ZM1147.36 202.563L1160.8 206.165L1160.38 199.12C1160.34 198.491 1160.45 197.862 1160.71 197.286C1160.96 196.709 1161.35 196.2 1161.83 195.802C1162.32 195.404 1162.9 195.127 1163.51 194.995C1164.13 194.863 1164.77 194.879 1165.38 195.041L1165.81 195.157L1172.61 208.174L1165.63 234.219L1144.51 228.558L1141.4 209.922L1141.43 209.327L1142.49 205.375C1142.76 204.356 1143.43 203.488 1144.34 202.961C1145.25 202.433 1146.34 202.29 1147.36 202.563Z" fill="#FFDEB7"/>
<path d="M1119.1 76.0147L1117.47 75.5779L1123.15 54.3859L1124.78 54.8227C1125.64 55.0544 1126.38 55.6201 1126.83 56.3954C1127.28 57.1706 1127.4 58.0919 1127.17 58.9566L1123.23 73.628C1123 74.4927 1122.44 75.2299 1121.66 75.6775C1120.89 76.1251 1119.97 76.2464 1119.1 76.0147ZM1098.7 47.8339L1110.11 50.8915L1109.75 44.9111C1109.72 44.3774 1109.81 43.8437 1110.03 43.354C1110.24 42.8644 1110.57 42.4327 1110.98 42.0947C1111.4 41.7566 1111.89 41.5218 1112.41 41.4095C1112.93 41.2973 1113.48 41.3109 1113.99 41.4491L1114.36 41.5474L1120.13 52.5962L1114.21 74.7043L1096.28 69.8995L1093.64 54.0807L1093.66 53.5755L1094.56 50.2207C1094.79 49.356 1095.36 48.6187 1096.14 48.1711C1096.91 47.7236 1097.83 47.6023 1098.7 47.8339Z" fill="#FFDEB7"/>
<path d="M1038.21 240.814L1036.68 240.343L1042.81 220.458L1044.34 220.929C1045.15 221.179 1045.83 221.741 1046.22 222.492C1046.62 223.242 1046.7 224.12 1046.45 224.931L1042.21 238.697C1041.96 239.509 1041.4 240.187 1040.65 240.584C1039.9 240.981 1039.02 241.064 1038.21 240.814ZM1019.86 213.391L1030.57 216.689L1030.44 211.009C1030.43 210.502 1030.54 209.999 1030.76 209.543C1030.98 209.086 1031.31 208.689 1031.71 208.383C1032.12 208.077 1032.59 207.872 1033.09 207.784C1033.59 207.696 1034.1 207.727 1034.58 207.877L1034.93 207.983L1040.01 218.656L1033.62 239.401L1016.8 234.218L1014.85 219.134L1014.89 218.656L1015.86 215.508C1016.11 214.696 1016.67 214.018 1017.42 213.621C1018.18 213.224 1019.05 213.141 1019.86 213.391Z" fill="#FFDEB7"/>
<path d="M1461.29 213.924L1462.78 214.291L1467.55 194.977L1466.06 194.61C1465.28 194.415 1464.44 194.541 1463.75 194.961C1463.05 195.381 1462.55 196.059 1462.36 196.847L1459.06 210.218C1458.86 211.006 1458.99 211.839 1459.41 212.534C1459.83 213.229 1460.51 213.729 1461.29 213.924ZM1489.83 200.481L1479.43 197.912L1482.34 193.32C1482.6 192.91 1482.75 192.445 1482.8 191.962C1482.84 191.479 1482.77 190.993 1482.59 190.543C1482.41 190.093 1482.12 189.693 1481.76 189.375C1481.39 189.057 1480.96 188.83 1480.49 188.714L1480.15 188.631L1470.73 194.876L1465.75 215.024L1482.09 219.061L1491.12 207.656L1491.32 207.244L1492.07 204.186C1492.27 203.398 1492.14 202.565 1491.72 201.87C1491.3 201.175 1490.62 200.676 1489.83 200.481Z" fill="#FFDEB7"/>
<path d="M1230.77 91.8594L1232.6 90.7537L1218.23 66.9588L1216.4 68.0645C1215.43 68.651 1214.73 69.5992 1214.46 70.7004C1214.19 71.8017 1214.36 72.9658 1214.95 73.9367L1224.9 90.4101C1225.49 91.381 1226.44 92.0791 1227.54 92.3509C1228.64 92.6227 1229.8 92.4459 1230.77 91.8594ZM1245.69 50.3731L1232.87 58.1131L1231.2 50.7077C1231.05 50.0469 1230.75 49.4309 1230.32 48.9105C1229.88 48.3901 1229.33 47.9802 1228.71 47.7146C1228.08 47.449 1227.41 47.3352 1226.73 47.3827C1226.05 47.4302 1225.4 47.6376 1224.82 47.9877L1224.41 48.2365L1221.27 63.7187L1236.26 88.5423L1256.4 76.3794L1254.04 56.1953L1253.83 55.5893L1251.56 51.8224C1250.97 50.8515 1250.02 50.1534 1248.92 49.8816C1247.82 49.6098 1246.66 49.7866 1245.69 50.3731Z" fill="#FFDEB7"/>
</g>
</svg>
