<svg width="359" height="287" viewBox="0 0 359 287" fill="none" xmlns="http://www.w3.org/2000/svg">
<circle cx="192.74" cy="135.558" r="75" transform="rotate(90 192.74 135.558)" fill="#C7FC99"/>
<circle cx="229.63" cy="20.515" r="19.5946" transform="rotate(90 229.63 20.515)" fill="#FFB2C5"/>
<circle cx="204.367" cy="192.616" r="30.7032" transform="rotate(90 204.367 192.616)" fill="#6EB1FF"/>
<circle cx="300.709" cy="215.325" r="22.7088" transform="rotate(90 300.709 215.325)" fill="#99FCEA"/>
<circle cx="343.506" cy="40.1095" r="14.5435" transform="rotate(90 343.506 40.1095)" fill="#FAFC99"/>
<circle cx="95.9816" cy="190.917" r="95.1288" transform="rotate(90 95.9816 190.917)" fill="#FAFC99"/>
<circle cx="95.9816" cy="89.6449" r="45.1957" transform="rotate(90 95.9816 89.6449)" fill="#99E4FC"/>
<path d="M76.2959 86.0942C76.2959 71.9907 87.729 60.5576 101.832 60.5576H192.05C206.154 60.5576 217.587 71.9907 217.587 86.0942V150.058C217.587 164.161 206.154 175.595 192.05 175.595H101.832C87.729 175.595 76.2959 164.161 76.2959 150.058V86.0942Z" fill="#0075FF"/>
<path d="M76.2959 121.058C76.2959 106.954 87.729 95.521 101.832 95.521H192.05C206.154 95.521 217.587 106.954 217.587 121.058V185.021C217.587 199.125 206.154 210.558 192.05 210.558H101.832C87.729 210.558 76.2959 199.125 76.2959 185.021V121.058Z" fill="#0075FF"/>
<path d="M76.2959 101.416C76.2959 87.313 87.729 75.8799 101.832 75.8799H192.05C206.154 75.8799 217.587 87.313 217.587 101.416V165.38C217.587 179.484 206.154 190.917 192.05 190.917H101.832C87.729 190.917 76.2959 179.484 76.2959 165.38V101.416Z" fill="#000831"/>
<path d="M112.192 156.928V104.956C112.192 103.703 112.819 102.749 114.072 102.096C115.325 101.442 116.823 101.115 118.566 101.115C120.31 101.115 121.808 101.442 123.061 102.096C124.314 102.749 124.94 103.703 124.94 104.956V156.928C124.94 158.181 124.314 159.161 123.061 159.87C121.808 160.523 120.31 160.85 118.566 160.85C116.823 160.85 115.325 160.523 114.072 159.87C112.819 159.161 112.192 158.181 112.192 156.928Z" fill="#000831"/>
<path d="M132.84 147.04V108.878C132.84 107.789 133.494 106.89 134.801 106.181C136.109 105.419 137.552 105.037 139.132 105.037C140.821 105.037 142.292 105.419 143.545 106.181C144.852 106.89 145.506 107.789 145.506 108.878V121.953H154.74C155.721 121.953 156.483 122.416 157.028 123.342C157.573 124.214 157.845 125.249 157.845 126.447C157.845 127.7 157.573 128.763 157.028 129.634C156.483 130.506 155.721 130.942 154.74 130.942H145.506V147.04C145.506 148.238 145.751 149.083 146.242 149.573C146.732 150.009 147.604 150.227 148.856 150.227H152.37C154.114 150.227 155.448 150.772 156.374 151.861C157.301 152.896 157.764 154.122 157.764 155.539C157.764 157.009 157.301 158.262 156.374 159.298C155.448 160.333 154.114 160.85 152.37 160.85H148.856C138.179 160.85 132.84 156.247 132.84 147.04Z" fill="#000831"/>
<path d="M160.972 106.59C160.972 104.847 161.571 103.376 162.769 102.177C164.022 100.924 165.493 100.298 167.182 100.298C168.871 100.298 170.342 100.924 171.595 102.177C172.848 103.376 173.474 104.82 173.474 106.508C173.474 107.38 171.786 111.738 168.408 119.583C167.972 120.564 167.155 121.054 165.956 121.054C164.976 121.054 164.05 120.754 163.178 120.155C162.306 119.556 161.871 118.793 161.871 117.867C161.871 117.431 161.98 116.995 162.197 116.56L164.24 112.147C162.061 110.894 160.972 109.042 160.972 106.59Z" fill="#000831"/>
<path d="M176.37 154.149C176.37 153.005 176.778 151.807 177.595 150.554C178.413 149.246 179.393 148.593 180.537 148.593C181.191 148.593 181.981 148.892 182.907 149.491C183.888 150.091 185.086 150.717 186.502 151.371C187.973 151.97 189.662 152.27 191.569 152.27C194.947 152.27 196.635 151.371 196.635 149.573C196.635 148.593 195.982 147.803 194.674 147.203C193.367 146.55 191.76 146.005 189.853 145.569C188.001 145.133 186.121 144.561 184.214 143.853C182.362 143.145 180.782 141.974 179.475 140.339C178.167 138.705 177.514 136.607 177.514 134.047C177.514 130.56 178.739 127.591 181.191 125.14C183.642 122.688 187.538 121.463 192.876 121.463C196.526 121.463 199.741 122.035 202.519 123.179C205.352 124.268 206.768 125.657 206.768 127.346C206.768 128.436 206.332 129.716 205.461 131.187C204.589 132.603 203.5 133.312 202.192 133.312C201.647 133.312 200.394 132.903 198.433 132.086C196.472 131.269 194.674 130.86 193.04 130.86C191.514 130.86 190.343 131.132 189.526 131.677C188.763 132.167 188.382 132.767 188.382 133.475C188.382 134.292 189.036 134.946 190.343 135.436C191.705 135.926 193.312 136.417 195.164 136.907C197.071 137.343 198.951 137.942 200.803 138.705C202.71 139.413 204.317 140.666 205.624 142.464C206.986 144.207 207.667 146.413 207.667 149.083C207.667 153.005 206.278 156.083 203.5 158.317C200.776 160.551 196.908 161.667 191.896 161.667C187.647 161.667 183.997 160.932 180.946 159.461C177.895 157.936 176.37 156.165 176.37 154.149Z" fill="#000831"/>
<path d="M211.566 155.048C211.566 153.305 212.165 151.834 213.364 150.636C214.562 149.383 216.06 148.756 217.858 148.756C219.547 148.756 220.991 149.383 222.189 150.636C223.442 151.889 224.069 153.359 224.069 155.048C224.069 156.737 223.442 158.208 222.189 159.461C220.991 160.714 219.547 161.34 217.858 161.34C216.115 161.34 214.617 160.714 213.364 159.461C212.165 158.208 211.566 156.737 211.566 155.048Z" fill="#000831"/>
<path d="M224.055 126.529C224.055 125.167 224.981 123.996 226.833 123.015C228.74 121.98 230.592 121.463 232.39 121.463C234.297 121.463 235.468 122.116 235.904 123.424L243.176 144.18L248.406 126.611C248.897 124.976 250.286 124.159 252.574 124.159C254.862 124.159 256.251 124.976 256.741 126.611L261.971 144.18L269.244 123.424C269.68 122.116 270.824 121.463 272.676 121.463C274.474 121.463 276.299 121.98 278.151 123.015C280.058 124.05 281.011 125.276 281.011 126.692C281.011 127.292 280.902 127.809 280.685 128.245L268.1 159.706C267.501 161.177 265.867 161.912 263.197 161.912C260.255 161.912 258.512 161.177 257.967 159.706L252.574 145.487L247.181 159.706C246.636 161.177 244.865 161.912 241.869 161.912C239.254 161.912 237.647 161.177 237.048 159.706L224.463 128.245C224.191 127.537 224.055 126.965 224.055 126.529Z" fill="#000831"/>
<path d="M283.156 144.343V138.378C283.156 133.747 284.981 129.77 288.631 126.447C292.335 123.124 296.775 121.463 301.951 121.463C306.799 121.463 310.94 122.933 314.372 125.875C317.804 128.763 319.52 132.467 319.52 136.989C319.52 138.732 319.302 140.149 318.866 141.238C318.43 142.328 317.777 143.09 316.905 143.526C316.033 143.962 315.216 144.262 314.453 144.425C313.745 144.534 312.792 144.588 311.593 144.588H295.822V145.079C295.822 147.094 296.585 148.729 298.11 149.982C299.635 151.18 301.651 151.78 304.157 151.78C306.064 151.78 308.052 151.289 310.122 150.309C312.247 149.274 313.663 148.756 314.372 148.756C315.734 148.756 316.85 149.41 317.722 150.717C318.594 151.97 319.03 153.169 319.03 154.313C319.03 156.002 317.559 157.663 314.617 159.298C311.73 160.877 308.134 161.667 303.83 161.667C297.729 161.667 292.744 160.087 288.876 156.928C285.063 153.714 283.156 149.519 283.156 144.343ZM295.822 137.479H305.955C307.099 137.479 307.671 136.825 307.671 135.518C307.671 133.992 307.072 132.794 305.873 131.922C304.729 131.051 303.34 130.615 301.706 130.615C300.126 130.615 298.737 131.051 297.538 131.922C296.394 132.794 295.822 133.992 295.822 135.518V137.479Z" fill="#000831"/>
<path fill-rule="evenodd" clip-rule="evenodd" d="M217.587 148.761V161.335C215.959 161.273 214.551 160.648 213.364 159.461C212.165 158.208 211.566 156.737 211.566 155.048C211.566 153.305 212.165 151.834 213.364 150.636C214.501 149.446 215.909 148.821 217.587 148.761ZM162.769 102.177C161.571 103.376 160.972 104.847 160.972 106.59C160.972 109.042 162.061 110.894 164.24 112.147L162.197 116.56C161.98 116.995 161.871 117.431 161.871 117.867C161.871 118.793 162.306 119.556 163.178 120.155C164.05 120.754 164.976 121.054 165.956 121.054C167.155 121.054 167.972 120.564 168.408 119.583C171.786 111.738 173.474 107.38 173.474 106.508C173.474 104.82 172.848 103.376 171.595 102.177C170.342 100.924 168.871 100.298 167.182 100.298C165.493 100.298 164.022 100.924 162.769 102.177ZM112.192 156.928V104.956C112.192 103.703 112.819 102.749 114.072 102.096C115.325 101.442 116.823 101.115 118.566 101.115C120.31 101.115 121.808 101.442 123.061 102.096C124.314 102.749 124.94 103.703 124.94 104.956V156.928C124.94 158.181 124.314 159.161 123.061 159.87C121.808 160.523 120.31 160.85 118.566 160.85C116.823 160.85 115.325 160.523 114.072 159.87C112.819 159.161 112.192 158.181 112.192 156.928ZM132.84 147.04V108.878C132.84 107.789 133.494 106.89 134.801 106.181C136.109 105.419 137.552 105.037 139.132 105.037C140.821 105.037 142.292 105.419 143.545 106.181C144.852 106.89 145.506 107.789 145.506 108.878V121.953H154.74C155.721 121.953 156.483 122.416 157.028 123.342C157.573 124.214 157.845 125.249 157.845 126.447C157.845 127.7 157.573 128.763 157.028 129.634C156.483 130.506 155.721 130.942 154.74 130.942H145.506V147.04C145.506 148.238 145.751 149.083 146.242 149.573C146.732 150.009 147.604 150.227 148.856 150.227H152.37C154.114 150.227 155.448 150.772 156.374 151.861C157.301 152.896 157.764 154.122 157.764 155.539C157.764 157.009 157.301 158.262 156.374 159.298C155.448 160.333 154.114 160.85 152.37 160.85H148.856C138.179 160.85 132.84 156.247 132.84 147.04ZM176.37 154.149C176.37 153.005 176.778 151.807 177.595 150.554C178.413 149.246 179.393 148.593 180.537 148.593C181.191 148.593 181.981 148.892 182.907 149.491C183.888 150.091 185.086 150.717 186.502 151.371C187.973 151.97 189.662 152.27 191.569 152.27C194.947 152.27 196.635 151.371 196.635 149.573C196.635 148.593 195.982 147.803 194.674 147.203C193.367 146.55 191.76 146.005 189.853 145.569C188.001 145.133 186.121 144.561 184.214 143.853C182.362 143.145 180.782 141.974 179.475 140.339C178.167 138.705 177.514 136.607 177.514 134.047C177.514 130.56 178.739 127.591 181.191 125.14C183.642 122.688 187.538 121.463 192.876 121.463C196.526 121.463 199.741 122.035 202.519 123.179C205.352 124.268 206.768 125.657 206.768 127.346C206.768 128.436 206.332 129.716 205.461 131.187C204.589 132.603 203.5 133.312 202.192 133.312C201.647 133.312 200.394 132.903 198.433 132.086C196.472 131.269 194.674 130.86 193.04 130.86C191.514 130.86 190.343 131.132 189.526 131.677C188.763 132.167 188.382 132.767 188.382 133.475C188.382 134.292 189.036 134.946 190.343 135.436C191.705 135.926 193.312 136.417 195.164 136.907C197.071 137.343 198.951 137.942 200.803 138.705C202.71 139.413 204.317 140.666 205.624 142.464C206.986 144.207 207.667 146.413 207.667 149.083C207.667 153.005 206.278 156.083 203.5 158.317C200.776 160.551 196.908 161.667 191.896 161.667C187.647 161.667 183.997 160.932 180.946 159.461C177.895 157.936 176.37 156.165 176.37 154.149Z" fill="white"/>
</svg>
