<svg width="191" height="119" viewBox="0 0 191 119" fill="none" xmlns="http://www.w3.org/2000/svg">
<path d="M0.292725 20.8677C0.292725 9.82196 9.24703 0.867676 20.2927 0.867676H90.9504C101.996 0.867676 110.95 9.82198 110.95 20.8677V70.9636C110.95 82.0092 101.996 90.9635 90.9504 90.9635H20.2927C9.24703 90.9635 0.292725 82.0092 0.292725 70.9635V20.8677Z" fill="#0075FF"/>
<path d="M0.292725 48.2505C0.292725 37.2048 9.24703 28.2505 20.2927 28.2505H90.9504C101.996 28.2505 110.95 37.2048 110.95 48.2505V98.3464C110.95 109.392 101.996 118.346 90.9504 118.346H20.2927C9.24703 118.346 0.292725 109.392 0.292725 98.3463V48.2505Z" fill="#0075FF"/>
<path d="M0.292847 32.8677C0.292847 21.822 9.24715 12.8677 20.2928 12.8677H90.9506C101.996 12.8677 110.951 21.822 110.951 32.8677V82.9636C110.951 94.0092 101.996 102.964 90.9506 102.964H20.2928C9.24715 102.964 0.292847 94.0092 0.292847 82.9635V32.8677Z" fill="#000831"/>
<path d="M28.4065 76.3437V35.6397C28.4065 34.6584 28.8972 33.9117 29.8785 33.3997C30.8598 32.8877 32.0332 32.6317 33.3985 32.6317C34.7638 32.6317 35.9372 32.8877 36.9185 33.3997C37.8998 33.9117 38.3905 34.6584 38.3905 35.6397V76.3437C38.3905 77.325 37.8998 78.093 36.9185 78.6477C35.9372 79.1597 34.7638 79.4157 33.3985 79.4157C32.0332 79.4157 30.8598 79.1597 29.8785 78.6477C28.8972 78.093 28.4065 77.325 28.4065 76.3437Z" fill="white"/>
<path d="M44.5775 68.5997V38.7117C44.5775 37.8584 45.0895 37.1544 46.1135 36.5997C47.1375 36.0024 48.2682 35.7037 49.5055 35.7037C50.8282 35.7037 51.9802 36.0024 52.9615 36.5997C53.9855 37.1544 54.4975 37.8584 54.4975 38.7117V48.9517H61.7295C62.4975 48.9517 63.0948 49.3144 63.5215 50.0397C63.9482 50.7224 64.1615 51.533 64.1615 52.4717C64.1615 53.453 63.9482 54.285 63.5215 54.9677C63.0948 55.6504 62.4975 55.9917 61.7295 55.9917H54.4975V68.5997C54.4975 69.5384 54.6895 70.1997 55.0735 70.5837C55.4575 70.925 56.1402 71.0957 57.1215 71.0957H59.8735C61.2388 71.0957 62.2842 71.5224 63.0095 72.3757C63.7348 73.1864 64.0975 74.1464 64.0975 75.2557C64.0975 76.4077 63.7348 77.389 63.0095 78.1997C62.2842 79.0104 61.2388 79.4157 59.8735 79.4157H57.1215C48.7588 79.4157 44.5775 75.8104 44.5775 68.5997Z" fill="white"/>
<path d="M66.61 36.9197C66.61 35.5544 67.0793 34.4024 68.018 33.4637C68.9993 32.4824 70.1513 31.9917 71.474 31.9917C72.7967 31.9917 73.9487 32.4824 74.93 33.4637C75.9113 34.4024 76.402 35.533 76.402 36.8557C76.402 37.5384 75.0793 40.9517 72.434 47.0957C72.0927 47.8637 71.4527 48.2477 70.514 48.2477C69.746 48.2477 69.0207 48.013 68.338 47.5437C67.6553 47.0744 67.314 46.477 67.314 45.7517C67.314 45.4104 67.3993 45.069 67.57 44.7277L69.17 41.2717C67.4633 40.2904 66.61 38.8397 66.61 36.9197Z" fill="white"/>
<path d="M78.6695 74.1677C78.6695 73.2717 78.9895 72.333 79.6295 71.3517C80.2695 70.3277 81.0375 69.8157 81.9335 69.8157C82.4455 69.8157 83.0642 70.0504 83.7895 70.5197C84.5575 70.989 85.4962 71.4797 86.6055 71.9917C87.7575 72.461 89.0802 72.6957 90.5735 72.6957C93.2188 72.6957 94.5415 71.9917 94.5415 70.5837C94.5415 69.8157 94.0295 69.197 93.0055 68.7277C91.9815 68.2157 90.7228 67.789 89.2295 67.4477C87.7788 67.1064 86.3068 66.6584 84.8135 66.1037C83.3628 65.549 82.1255 64.6317 81.1015 63.3517C80.0775 62.0717 79.5655 60.429 79.5655 58.4237C79.5655 55.693 80.5255 53.3677 82.4455 51.4477C84.3655 49.5277 87.4162 48.5677 91.5975 48.5677C94.4562 48.5677 96.9735 49.0157 99.1495 49.9117C101.368 50.765 102.477 51.853 102.477 53.1757C102.477 54.029 102.136 55.0317 101.453 56.1837C100.771 57.293 99.9175 57.8477 98.8935 57.8477C98.4668 57.8477 97.4855 57.5277 95.9495 56.8877C94.4135 56.2477 93.0055 55.9277 91.7255 55.9277C90.5308 55.9277 89.6135 56.141 88.9735 56.5677C88.3762 56.9517 88.0775 57.421 88.0775 57.9757C88.0775 58.6157 88.5895 59.1277 89.6135 59.5117C90.6802 59.8957 91.9388 60.2797 93.3895 60.6637C94.8828 61.005 96.3548 61.4744 97.8055 62.0717C99.2988 62.6264 100.557 63.6077 101.581 65.0157C102.648 66.381 103.181 68.109 103.181 70.1997C103.181 73.2717 102.093 75.6824 99.9175 77.4317C97.7842 79.181 94.7548 80.0557 90.8295 80.0557C87.5015 80.0557 84.6428 79.4797 82.2535 78.3277C79.8642 77.133 78.6695 75.7464 78.6695 74.1677Z" fill="white"/>
<path d="M106.235 74.8717C106.235 73.5064 106.704 72.3544 107.643 71.4157C108.582 70.4344 109.755 69.9437 111.163 69.9437C112.486 69.9437 113.616 70.4344 114.555 71.4157C115.536 72.397 116.027 73.549 116.027 74.8717C116.027 76.1944 115.536 77.3464 114.555 78.3277C113.616 79.309 112.486 79.7997 111.163 79.7997C109.798 79.7997 108.624 79.309 107.643 78.3277C106.704 77.3464 106.235 76.1944 106.235 74.8717Z" fill="white"/>
<path d="M116.016 52.5357C116.016 51.469 116.741 50.5517 118.192 49.7837C119.685 48.973 121.136 48.5677 122.544 48.5677C124.037 48.5677 124.955 49.0797 125.296 50.1037L130.992 66.3597L135.088 52.5997C135.472 51.3197 136.56 50.6797 138.352 50.6797C140.144 50.6797 141.232 51.3197 141.616 52.5997L145.712 66.3597L151.408 50.1037C151.749 49.0797 152.645 48.5677 154.096 48.5677C155.504 48.5677 156.933 48.973 158.384 49.7837C159.877 50.5944 160.624 51.5544 160.624 52.6637C160.624 53.133 160.539 53.5384 160.368 53.8797L150.512 78.5197C150.043 79.6717 148.763 80.2477 146.672 80.2477C144.368 80.2477 143.003 79.6717 142.576 78.5197L138.352 67.3837L134.128 78.5197C133.701 79.6717 132.315 80.2477 129.968 80.2477C127.92 80.2477 126.661 79.6717 126.192 78.5197L116.336 53.8797C116.123 53.325 116.016 52.877 116.016 52.5357Z" fill="white"/>
<path d="M162.303 66.4877V61.8157C162.303 58.189 163.733 55.0744 166.592 52.4717C169.493 49.869 172.97 48.5677 177.023 48.5677C180.821 48.5677 184.063 49.7197 186.751 52.0237C189.439 54.285 190.784 57.1864 190.784 60.7277C190.784 62.093 190.613 63.2024 190.271 64.0557C189.93 64.909 189.418 65.5064 188.736 65.8477C188.053 66.189 187.413 66.4237 186.816 66.5517C186.261 66.637 185.514 66.6797 184.576 66.6797H172.223V67.0637C172.223 68.6424 172.821 69.9224 174.016 70.9037C175.21 71.8424 176.789 72.3117 178.751 72.3117C180.245 72.3117 181.802 71.9277 183.424 71.1597C185.088 70.349 186.197 69.9437 186.751 69.9437C187.818 69.9437 188.693 70.4557 189.376 71.4797C190.058 72.461 190.4 73.3997 190.4 74.2957C190.4 75.6184 189.247 76.9197 186.943 78.1997C184.682 79.437 181.866 80.0557 178.495 80.0557C173.717 80.0557 169.813 78.8184 166.784 76.3437C163.797 73.8264 162.303 70.541 162.303 66.4877ZM172.223 61.1117H180.16C181.055 61.1117 181.504 60.5997 181.504 59.5757C181.504 58.381 181.034 57.4424 180.096 56.7597C179.2 56.077 178.111 55.7357 176.831 55.7357C175.594 55.7357 174.506 56.077 173.568 56.7597C172.672 57.4424 172.223 58.381 172.223 59.5757V61.1117Z" fill="white"/>
<path fill-rule="evenodd" clip-rule="evenodd" d="M110.95 69.9475V79.7957C109.675 79.7471 108.573 79.2577 107.643 78.3277C106.704 77.3464 106.235 76.1944 106.235 74.8717C106.235 73.5064 106.704 72.3544 107.643 71.4157C108.534 70.4842 109.637 69.9948 110.95 69.9475ZM68.018 33.4637C67.0793 34.4024 66.61 35.5544 66.61 36.9197C66.61 38.8397 67.4633 40.2904 69.17 41.2717L67.57 44.7277C67.3993 45.069 67.314 45.4104 67.314 45.7517C67.314 46.477 67.6553 47.0744 68.338 47.5437C69.0207 48.013 69.746 48.2477 70.514 48.2477C71.4527 48.2477 72.0927 47.8637 72.434 47.0957C75.0793 40.9517 76.402 37.5384 76.402 36.8557C76.402 35.533 75.9113 34.4024 74.93 33.4637C73.9487 32.4824 72.7967 31.9917 71.474 31.9917C70.1513 31.9917 68.9993 32.4824 68.018 33.4637ZM28.4065 76.3437V35.6397C28.4065 34.6584 28.8972 33.9117 29.8785 33.3997C30.8598 32.8877 32.0332 32.6317 33.3985 32.6317C34.7638 32.6317 35.9372 32.8877 36.9185 33.3997C37.8998 33.9117 38.3905 34.6584 38.3905 35.6397V76.3437C38.3905 77.325 37.8998 78.093 36.9185 78.6477C35.9372 79.1597 34.7638 79.4157 33.3985 79.4157C32.0332 79.4157 30.8598 79.1597 29.8785 78.6477C28.8972 78.093 28.4065 77.325 28.4065 76.3437ZM44.5775 68.5997V38.7117C44.5775 37.8584 45.0895 37.1544 46.1135 36.5997C47.1375 36.0024 48.2682 35.7037 49.5055 35.7037C50.8282 35.7037 51.9802 36.0024 52.9615 36.5997C53.9855 37.1544 54.4975 37.8584 54.4975 38.7117V48.9517H61.7295C62.4975 48.9517 63.0948 49.3144 63.5215 50.0397C63.9482 50.7224 64.1615 51.533 64.1615 52.4717C64.1615 53.453 63.9482 54.285 63.5215 54.9677C63.0948 55.6504 62.4975 55.9917 61.7295 55.9917H54.4975V68.5997C54.4975 69.5384 54.6895 70.1997 55.0735 70.5837C55.4575 70.925 56.1402 71.0957 57.1215 71.0957H59.8735C61.2388 71.0957 62.2842 71.5224 63.0095 72.3757C63.7348 73.1864 64.0975 74.1464 64.0975 75.2557C64.0975 76.4077 63.7348 77.389 63.0095 78.1997C62.2842 79.0104 61.2388 79.4157 59.8735 79.4157H57.1215C48.7588 79.4157 44.5775 75.8104 44.5775 68.5997ZM78.6695 74.1677C78.6695 73.2717 78.9895 72.333 79.6295 71.3517C80.2695 70.3277 81.0375 69.8157 81.9335 69.8157C82.4455 69.8157 83.0642 70.0504 83.7895 70.5197C84.5575 70.989 85.4962 71.4797 86.6055 71.9917C87.7575 72.461 89.0802 72.6957 90.5735 72.6957C93.2188 72.6957 94.5415 71.9917 94.5415 70.5837C94.5415 69.8157 94.0295 69.197 93.0055 68.7277C91.9815 68.2157 90.7228 67.789 89.2295 67.4477C87.7788 67.1064 86.3068 66.6584 84.8135 66.1037C83.3628 65.549 82.1255 64.6317 81.1015 63.3517C80.0775 62.0717 79.5655 60.429 79.5655 58.4237C79.5655 55.693 80.5255 53.3677 82.4455 51.4477C84.3655 49.5277 87.4162 48.5677 91.5975 48.5677C94.4562 48.5677 96.9735 49.0157 99.1495 49.9117C101.368 50.765 102.477 51.853 102.477 53.1757C102.477 54.029 102.136 55.0317 101.453 56.1837C100.771 57.293 99.9175 57.8477 98.8935 57.8477C98.4668 57.8477 97.4855 57.5277 95.9495 56.8877C94.4135 56.2477 93.0055 55.9277 91.7255 55.9277C90.5308 55.9277 89.6135 56.141 88.9735 56.5677C88.3762 56.9517 88.0775 57.421 88.0775 57.9757C88.0775 58.6157 88.5895 59.1277 89.6135 59.5117C90.6802 59.8957 91.9388 60.2797 93.3895 60.6637C94.8828 61.005 96.3548 61.4744 97.8055 62.0717C99.2988 62.6264 100.557 63.6077 101.581 65.0157C102.648 66.381 103.181 68.109 103.181 70.1997C103.181 73.2717 102.093 75.6824 99.9175 77.4317C97.7842 79.181 94.7548 80.0557 90.8295 80.0557C87.5015 80.0557 84.6428 79.4797 82.2535 78.3277C79.8642 77.133 78.6695 75.7464 78.6695 74.1677Z" fill="white"/>
</svg>
