<svg width="359" height="287" viewBox="0 0 359 287" fill="none" xmlns="http://www.w3.org/2000/svg">
<circle cx="210.035" cy="137" r="75" transform="rotate(90 210.035 137)" fill="#6EB1FF"/>
<circle cx="229.63" cy="20.515" r="19.5946" transform="rotate(90 229.63 20.515)" fill="#FFB2C5"/>
<circle cx="204.367" cy="192.616" r="30.7032" transform="rotate(90 204.367 192.616)" fill="#C7FC99"/>
<circle cx="300.709" cy="215.325" r="22.7088" transform="rotate(90 300.709 215.325)" fill="#99FCEA"/>
<circle cx="343.506" cy="40.1095" r="14.5435" transform="rotate(90 343.506 40.1095)" fill="#FAFC99"/>
<circle cx="95.9816" cy="190.917" r="95.1288" transform="rotate(90 95.9816 190.917)" fill="#99E4FC"/>
<circle cx="95.9816" cy="89.6449" r="45.1957" transform="rotate(90 95.9816 89.6449)" fill="#FAFC99"/>
<path d="M76.2959 87.5365C76.2959 73.4331 87.729 62 101.832 62H192.05C206.154 62 217.587 73.4331 217.587 87.5366V151.5C217.587 165.604 206.154 177.037 192.05 177.037H101.832C87.729 177.037 76.2959 165.604 76.2959 151.5V87.5365Z" fill="#0075FF"/>
<path d="M76.2959 122.5C76.2959 108.396 87.729 96.9631 101.832 96.9631H192.05C206.154 96.9631 217.587 108.396 217.587 122.5V186.464C217.587 200.567 206.154 212 192.05 212H101.832C87.729 212 76.2959 200.567 76.2959 186.463V122.5Z" fill="#0075FF"/>
<path d="M76.2959 102.859C76.2959 88.7551 87.729 77.322 101.832 77.322H192.05C206.154 77.322 217.587 88.7551 217.587 102.859V166.822C217.587 180.926 206.154 192.359 192.05 192.359H101.832C87.729 192.359 76.2959 180.926 76.2959 166.822V102.859Z" fill="#000831"/>
<path d="M112.192 158.37V106.398C112.192 105.145 112.819 104.192 114.072 103.538C115.325 102.884 116.823 102.557 118.566 102.557C120.31 102.557 121.808 102.884 123.061 103.538C124.314 104.192 124.94 105.145 124.94 106.398V158.37C124.94 159.623 124.314 160.604 123.061 161.312C121.808 161.966 120.31 162.293 118.566 162.293C116.823 162.293 115.325 161.966 114.072 161.312C112.819 160.604 112.192 159.623 112.192 158.37Z" fill="white"/>
<path d="M132.84 148.482V110.321C132.84 109.231 133.494 108.332 134.801 107.624C136.109 106.861 137.552 106.48 139.132 106.48C140.821 106.48 142.292 106.861 143.545 107.624C144.852 108.332 145.506 109.231 145.506 110.321V123.395H154.74C155.721 123.395 156.483 123.858 157.028 124.784C157.573 125.656 157.845 126.691 157.845 127.89C157.845 129.143 157.573 130.205 157.028 131.077C156.483 131.948 155.721 132.384 154.74 132.384H145.506V148.482C145.506 149.681 145.751 150.525 146.242 151.016C146.732 151.451 147.604 151.669 148.856 151.669H152.37C154.114 151.669 155.448 152.214 156.374 153.304C157.301 154.339 157.764 155.564 157.764 156.981C157.764 158.452 157.301 159.705 156.374 160.74C155.448 161.775 154.114 162.293 152.37 162.293H148.856C138.179 162.293 132.84 157.689 132.84 148.482Z" fill="white"/>
<path d="M160.972 108.032C160.972 106.289 161.571 104.818 162.769 103.62C164.022 102.367 165.493 101.74 167.182 101.74C168.871 101.74 170.342 102.367 171.595 103.62C172.848 104.818 173.474 106.262 173.474 107.951C173.474 108.822 171.786 113.181 168.408 121.025C167.972 122.006 167.155 122.496 165.956 122.496C164.976 122.496 164.05 122.197 163.178 121.597C162.306 120.998 161.871 120.236 161.871 119.309C161.871 118.874 161.98 118.438 162.197 118.002L164.24 113.589C162.061 112.336 160.972 110.484 160.972 108.032Z" fill="white"/>
<path d="M176.37 155.592C176.37 154.448 176.778 153.249 177.595 151.996C178.413 150.689 179.393 150.035 180.537 150.035C181.191 150.035 181.981 150.335 182.907 150.934C183.888 151.533 185.086 152.16 186.502 152.813C187.973 153.413 189.662 153.712 191.569 153.712C194.947 153.712 196.635 152.813 196.635 151.016C196.635 150.035 195.982 149.245 194.674 148.646C193.367 147.992 191.76 147.447 189.853 147.011C188.001 146.576 186.121 146.004 184.214 145.295C182.362 144.587 180.782 143.416 179.475 141.782C178.167 140.147 177.514 138.05 177.514 135.489C177.514 132.003 178.739 129.034 181.191 126.582C183.642 124.131 187.538 122.905 192.876 122.905C196.526 122.905 199.741 123.477 202.519 124.621C205.352 125.711 206.768 127.1 206.768 128.789C206.768 129.878 206.332 131.158 205.461 132.629C204.589 134.046 203.5 134.754 202.192 134.754C201.647 134.754 200.394 134.345 198.433 133.528C196.472 132.711 194.674 132.302 193.04 132.302C191.514 132.302 190.343 132.575 189.526 133.12C188.763 133.61 188.382 134.209 188.382 134.917C188.382 135.735 189.036 136.388 190.343 136.879C191.705 137.369 193.312 137.859 195.164 138.349C197.071 138.785 198.951 139.385 200.803 140.147C202.71 140.855 204.317 142.108 205.624 143.906C206.986 145.649 207.667 147.856 207.667 150.525C207.667 154.448 206.278 157.526 203.5 159.759C200.776 161.993 196.908 163.11 191.896 163.11C187.647 163.11 183.997 162.374 180.946 160.903C177.895 159.378 176.37 157.607 176.37 155.592Z" fill="white"/>
<path d="M211.566 156.491C211.566 154.747 212.165 153.276 213.364 152.078C214.562 150.825 216.06 150.198 217.858 150.198C219.547 150.198 220.991 150.825 222.189 152.078C223.442 153.331 224.069 154.802 224.069 156.491C224.069 158.179 223.442 159.65 222.189 160.903C220.991 162.156 219.547 162.783 217.858 162.783C216.115 162.783 214.617 162.156 213.364 160.903C212.165 159.65 211.566 158.179 211.566 156.491Z" fill="white"/>
<path d="M224.055 127.971C224.055 126.609 224.981 125.438 226.833 124.458C228.74 123.422 230.592 122.905 232.39 122.905C234.297 122.905 235.468 123.559 235.904 124.866L243.176 145.622L248.406 128.053C248.897 126.419 250.286 125.602 252.574 125.602C254.862 125.602 256.251 126.419 256.741 128.053L261.971 145.622L269.244 124.866C269.68 123.559 270.824 122.905 272.676 122.905C274.474 122.905 276.299 123.422 278.151 124.458C280.058 125.493 281.011 126.718 281.011 128.135C281.011 128.734 280.902 129.252 280.685 129.687L268.1 161.148C267.501 162.619 265.867 163.355 263.197 163.355C260.255 163.355 258.512 162.619 257.967 161.148L252.574 146.93L247.181 161.148C246.636 162.619 244.865 163.355 241.869 163.355C239.254 163.355 237.647 162.619 237.048 161.148L224.463 129.687C224.191 128.979 224.055 128.407 224.055 127.971Z" fill="white"/>
<path d="M283.156 145.786V139.82C283.156 135.19 284.981 131.213 288.631 127.89C292.335 124.567 296.775 122.905 301.951 122.905C306.799 122.905 310.94 124.376 314.372 127.318C317.804 130.205 319.52 133.909 319.52 138.431C319.52 140.174 319.302 141.591 318.866 142.68C318.43 143.77 317.777 144.533 316.905 144.969C316.033 145.404 315.216 145.704 314.453 145.867C313.745 145.976 312.792 146.031 311.593 146.031H295.822V146.521C295.822 148.537 296.585 150.171 298.11 151.424C299.635 152.623 301.651 153.222 304.157 153.222C306.064 153.222 308.052 152.732 310.122 151.751C312.247 150.716 313.663 150.198 314.372 150.198C315.734 150.198 316.85 150.852 317.722 152.16C318.594 153.413 319.03 154.611 319.03 155.755C319.03 157.444 317.559 159.106 314.617 160.74C311.73 162.32 308.134 163.11 303.83 163.11C297.729 163.11 292.744 161.53 288.876 158.37C285.063 155.156 283.156 150.961 283.156 145.786ZM295.822 138.921H305.955C307.099 138.921 307.671 138.268 307.671 136.96C307.671 135.435 307.072 134.236 305.873 133.365C304.729 132.493 303.34 132.057 301.706 132.057C300.126 132.057 298.737 132.493 297.538 133.365C296.394 134.236 295.822 135.435 295.822 136.96V138.921Z" fill="white"/>
<path fill-rule="evenodd" clip-rule="evenodd" d="M217.587 150.203V162.778C215.959 162.716 214.551 162.091 213.364 160.903C212.165 159.65 211.566 158.179 211.566 156.491C211.566 154.747 212.165 153.276 213.364 152.078C214.501 150.889 215.909 150.264 217.587 150.203ZM162.769 103.62C161.571 104.818 160.972 106.289 160.972 108.032C160.972 110.484 162.061 112.336 164.24 113.589L162.197 118.002C161.98 118.438 161.871 118.874 161.871 119.309C161.871 120.236 162.306 120.998 163.178 121.597C164.05 122.197 164.976 122.496 165.956 122.496C167.155 122.496 167.972 122.006 168.408 121.025C171.786 113.181 173.474 108.822 173.474 107.951C173.474 106.262 172.848 104.818 171.595 103.62C170.342 102.367 168.871 101.74 167.182 101.74C165.493 101.74 164.022 102.367 162.769 103.62ZM112.192 158.37V106.398C112.192 105.145 112.819 104.192 114.072 103.538C115.325 102.884 116.823 102.557 118.566 102.557C120.31 102.557 121.808 102.884 123.061 103.538C124.314 104.192 124.94 105.145 124.94 106.398V158.37C124.94 159.623 124.314 160.604 123.061 161.312C121.808 161.966 120.31 162.293 118.566 162.293C116.823 162.293 115.325 161.966 114.072 161.312C112.819 160.604 112.192 159.623 112.192 158.37ZM132.84 148.482V110.321C132.84 109.231 133.494 108.332 134.801 107.624C136.109 106.861 137.552 106.48 139.132 106.48C140.821 106.48 142.292 106.861 143.545 107.624C144.852 108.332 145.506 109.231 145.506 110.321V123.395H154.74C155.721 123.395 156.483 123.858 157.028 124.784C157.573 125.656 157.845 126.691 157.845 127.89C157.845 129.143 157.573 130.205 157.028 131.077C156.483 131.948 155.721 132.384 154.74 132.384H145.506V148.482C145.506 149.681 145.751 150.525 146.242 151.016C146.732 151.451 147.604 151.669 148.856 151.669H152.37C154.114 151.669 155.448 152.214 156.374 153.304C157.301 154.339 157.764 155.564 157.764 156.981C157.764 158.452 157.301 159.705 156.374 160.74C155.448 161.775 154.114 162.293 152.37 162.293H148.856C138.179 162.293 132.84 157.689 132.84 148.482ZM176.37 155.592C176.37 154.448 176.778 153.249 177.595 151.996C178.413 150.689 179.393 150.035 180.537 150.035C181.191 150.035 181.981 150.335 182.907 150.934C183.888 151.533 185.086 152.16 186.502 152.813C187.973 153.413 189.662 153.712 191.569 153.712C194.947 153.712 196.635 152.813 196.635 151.016C196.635 150.035 195.982 149.245 194.674 148.646C193.367 147.992 191.76 147.447 189.853 147.011C188.001 146.576 186.121 146.004 184.214 145.295C182.362 144.587 180.782 143.416 179.475 141.782C178.167 140.147 177.514 138.05 177.514 135.489C177.514 132.003 178.739 129.034 181.191 126.582C183.642 124.131 187.538 122.905 192.876 122.905C196.526 122.905 199.741 123.477 202.519 124.621C205.352 125.711 206.768 127.1 206.768 128.789C206.768 129.878 206.332 131.158 205.461 132.629C204.589 134.046 203.5 134.754 202.192 134.754C201.647 134.754 200.394 134.345 198.433 133.528C196.472 132.711 194.674 132.302 193.04 132.302C191.514 132.302 190.343 132.575 189.526 133.12C188.763 133.61 188.382 134.209 188.382 134.917C188.382 135.735 189.036 136.388 190.343 136.879C191.705 137.369 193.312 137.859 195.164 138.349C197.071 138.785 198.951 139.385 200.803 140.147C202.71 140.855 204.317 142.108 205.624 143.906C206.986 145.65 207.667 147.856 207.667 150.525C207.667 154.448 206.278 157.526 203.5 159.759C200.776 161.993 196.908 163.11 191.896 163.11C187.647 163.11 183.997 162.374 180.946 160.903C177.895 159.378 176.37 157.607 176.37 155.592Z" fill="white"/>
</svg>
