<svg width="192" height="119" viewBox="0 0 192 119" fill="none" xmlns="http://www.w3.org/2000/svg">
<path d="M0.578613 20.8677C0.578613 9.82196 9.53292 0.867676 20.5786 0.867676H91.2363C102.282 0.867676 111.236 9.82198 111.236 20.8677V70.9636C111.236 82.0092 102.282 90.9635 91.2363 90.9635H20.5786C9.53292 90.9635 0.578613 82.0092 0.578613 70.9635V20.8677Z" fill="#0075FF"/>
<path d="M0.578613 48.2505C0.578613 37.2048 9.53292 28.2505 20.5786 28.2505H91.2363C102.282 28.2505 111.236 37.2048 111.236 48.2505V98.3464C111.236 109.392 102.282 118.346 91.2363 118.346H20.5786C9.53292 118.346 0.578613 109.392 0.578613 98.3463V48.2505Z" fill="#0075FF"/>
<path d="M0.578613 32.8677C0.578613 21.822 9.53292 12.8677 20.5786 12.8677H91.2363C102.282 12.8677 111.236 21.822 111.236 32.8677V82.9636C111.236 94.0092 102.282 102.964 91.2363 102.964H20.5786C9.53292 102.964 0.578613 94.0092 0.578613 82.9635V32.8677Z" fill="#000831"/>
<path d="M28.6924 76.3437V35.6397C28.6924 34.6584 29.183 33.9117 30.1644 33.3997C31.1457 32.8877 32.319 32.6317 33.6844 32.6317C35.0497 32.6317 36.223 32.8877 37.2044 33.3997C38.1857 33.9117 38.6764 34.6584 38.6764 35.6397V76.3437C38.6764 77.325 38.1857 78.093 37.2044 78.6477C36.223 79.1597 35.0497 79.4157 33.6844 79.4157C32.319 79.4157 31.1457 79.1597 30.1644 78.6477C29.183 78.093 28.6924 77.325 28.6924 76.3437Z" fill="#000831"/>
<path d="M44.8634 68.5997V38.7117C44.8634 37.8584 45.3754 37.1544 46.3994 36.5997C47.4234 36.0024 48.5541 35.7037 49.7914 35.7037C51.114 35.7037 52.2661 36.0024 53.2474 36.5997C54.2714 37.1544 54.7834 37.8584 54.7834 38.7117V48.9517H62.0154C62.7834 48.9517 63.3807 49.3144 63.8074 50.0397C64.234 50.7224 64.4474 51.533 64.4474 52.4717C64.4474 53.453 64.234 54.285 63.8074 54.9677C63.3807 55.6504 62.7834 55.9917 62.0154 55.9917H54.7834V68.5997C54.7834 69.5384 54.9754 70.1997 55.3594 70.5837C55.7434 70.925 56.4261 71.0957 57.4074 71.0957H60.1594C61.5247 71.0957 62.57 71.5224 63.2954 72.3757C64.0207 73.1864 64.3834 74.1464 64.3834 75.2557C64.3834 76.4077 64.0207 77.389 63.2954 78.1997C62.57 79.0104 61.5247 79.4157 60.1594 79.4157H57.4074C49.0447 79.4157 44.8634 75.8104 44.8634 68.5997Z" fill="#000831"/>
<path d="M66.8959 36.9197C66.8959 35.5544 67.3652 34.4024 68.3039 33.4637C69.2852 32.4824 70.4372 31.9917 71.7599 31.9917C73.0825 31.9917 74.2345 32.4824 75.2159 33.4637C76.1972 34.4024 76.6879 35.533 76.6879 36.8557C76.6879 37.5384 75.3652 40.9517 72.7199 47.0957C72.3785 47.8637 71.7385 48.2477 70.7999 48.2477C70.0319 48.2477 69.3065 48.013 68.6239 47.5437C67.9412 47.0744 67.5999 46.477 67.5999 45.7517C67.5999 45.4104 67.6852 45.069 67.8559 44.7277L69.4559 41.2717C67.7492 40.2904 66.8959 38.8397 66.8959 36.9197Z" fill="#000831"/>
<path d="M78.9554 74.1677C78.9554 73.2717 79.2754 72.333 79.9154 71.3517C80.5554 70.3277 81.3234 69.8157 82.2194 69.8157C82.7314 69.8157 83.35 70.0504 84.0754 70.5197C84.8434 70.989 85.782 71.4797 86.8914 71.9917C88.0434 72.461 89.3661 72.6957 90.8594 72.6957C93.5047 72.6957 94.8274 71.9917 94.8274 70.5837C94.8274 69.8157 94.3154 69.197 93.2914 68.7277C92.2674 68.2157 91.0087 67.789 89.5154 67.4477C88.0647 67.1064 86.5927 66.6584 85.0994 66.1037C83.6487 65.549 82.4114 64.6317 81.3874 63.3517C80.3634 62.0717 79.8514 60.429 79.8514 58.4237C79.8514 55.693 80.8114 53.3677 82.7314 51.4477C84.6514 49.5277 87.702 48.5677 91.8834 48.5677C94.7421 48.5677 97.2594 49.0157 99.4354 49.9117C101.654 50.765 102.763 51.853 102.763 53.1757C102.763 54.029 102.422 55.0317 101.739 56.1837C101.057 57.293 100.203 57.8477 99.1794 57.8477C98.7527 57.8477 97.7714 57.5277 96.2354 56.8877C94.6994 56.2477 93.2914 55.9277 92.0114 55.9277C90.8167 55.9277 89.8994 56.141 89.2594 56.5677C88.6621 56.9517 88.3634 57.421 88.3634 57.9757C88.3634 58.6157 88.8754 59.1277 89.8994 59.5117C90.966 59.8957 92.2247 60.2797 93.6754 60.6637C95.1687 61.005 96.6407 61.4744 98.0914 62.0717C99.5847 62.6264 100.843 63.6077 101.867 65.0157C102.934 66.381 103.467 68.109 103.467 70.1997C103.467 73.2717 102.379 75.6824 100.203 77.4317C98.0701 79.181 95.0407 80.0557 91.1154 80.0557C87.7874 80.0557 84.9287 79.4797 82.5394 78.3277C80.1501 77.133 78.9554 75.7464 78.9554 74.1677Z" fill="#000831"/>
<path d="M106.521 74.8717C106.521 73.5064 106.99 72.3544 107.929 71.4157C108.868 70.4344 110.041 69.9437 111.449 69.9437C112.772 69.9437 113.902 70.4344 114.841 71.4157C115.822 72.397 116.313 73.549 116.313 74.8717C116.313 76.1944 115.822 77.3464 114.841 78.3277C113.902 79.309 112.772 79.7997 111.449 79.7997C110.084 79.7997 108.91 79.309 107.929 78.3277C106.99 77.3464 106.521 76.1944 106.521 74.8717Z" fill="#000831"/>
<path d="M116.302 52.5357C116.302 51.469 117.027 50.5517 118.478 49.7837C119.971 48.973 121.422 48.5677 122.83 48.5677C124.323 48.5677 125.241 49.0797 125.582 50.1037L131.278 66.3597L135.374 52.5997C135.758 51.3197 136.846 50.6797 138.638 50.6797C140.43 50.6797 141.518 51.3197 141.902 52.5997L145.998 66.3597L151.694 50.1037C152.035 49.0797 152.931 48.5677 154.382 48.5677C155.79 48.5677 157.219 48.973 158.67 49.7837C160.163 50.5944 160.91 51.5544 160.91 52.6637C160.91 53.133 160.825 53.5384 160.654 53.8797L150.798 78.5197C150.329 79.6717 149.049 80.2477 146.958 80.2477C144.654 80.2477 143.289 79.6717 142.862 78.5197L138.638 67.3837L134.414 78.5197C133.987 79.6717 132.601 80.2477 130.254 80.2477C128.206 80.2477 126.947 79.6717 126.478 78.5197L116.622 53.8797C116.409 53.325 116.302 52.877 116.302 52.5357Z" fill="#000831"/>
<path d="M162.589 66.4877V61.8157C162.589 58.189 164.019 55.0744 166.877 52.4717C169.779 49.869 173.256 48.5677 177.309 48.5677C181.107 48.5677 184.349 49.7197 187.037 52.0237C189.725 54.285 191.069 57.1864 191.069 60.7277C191.069 62.093 190.899 63.2024 190.557 64.0557C190.216 64.909 189.704 65.5064 189.021 65.8477C188.339 66.189 187.699 66.4237 187.101 66.5517C186.547 66.637 185.8 66.6797 184.861 66.6797H172.509V67.0637C172.509 68.6424 173.107 69.9224 174.301 70.9037C175.496 71.8424 177.075 72.3117 179.037 72.3117C180.531 72.3117 182.088 71.9277 183.709 71.1597C185.373 70.349 186.483 69.9437 187.037 69.9437C188.104 69.9437 188.979 70.4557 189.661 71.4797C190.344 72.461 190.685 73.3997 190.685 74.2957C190.685 75.6184 189.533 76.9197 187.229 78.1997C184.968 79.437 182.152 80.0557 178.781 80.0557C174.003 80.0557 170.099 78.8184 167.069 76.3437C164.083 73.8264 162.589 70.541 162.589 66.4877ZM172.509 61.1117H180.445C181.341 61.1117 181.789 60.5997 181.789 59.5757C181.789 58.381 181.32 57.4424 180.381 56.7597C179.485 56.077 178.397 55.7357 177.117 55.7357C175.88 55.7357 174.792 56.077 173.853 56.7597C172.957 57.4424 172.509 58.381 172.509 59.5757V61.1117Z" fill="#000831"/>
<path fill-rule="evenodd" clip-rule="evenodd" d="M111.236 69.9475V79.7957C109.961 79.7471 108.859 79.2577 107.929 78.3277C106.99 77.3464 106.521 76.1944 106.521 74.8717C106.521 73.5064 106.99 72.3544 107.929 71.4157C108.82 70.4842 109.922 69.9948 111.236 69.9475ZM68.3039 33.4637C67.3652 34.4024 66.8959 35.5544 66.8959 36.9197C66.8959 38.8397 67.7492 40.2904 69.4559 41.2717L67.8559 44.7277C67.6852 45.069 67.5999 45.4104 67.5999 45.7517C67.5999 46.477 67.9412 47.0744 68.6239 47.5437C69.3065 48.013 70.0319 48.2477 70.7999 48.2477C71.7385 48.2477 72.3785 47.8637 72.7199 47.0957C75.3652 40.9517 76.6879 37.5384 76.6879 36.8557C76.6879 35.533 76.1972 34.4024 75.2159 33.4637C74.2345 32.4824 73.0825 31.9917 71.7599 31.9917C70.4372 31.9917 69.2852 32.4824 68.3039 33.4637ZM28.6924 76.3437V35.6397C28.6924 34.6584 29.183 33.9117 30.1644 33.3997C31.1457 32.8877 32.319 32.6317 33.6844 32.6317C35.0497 32.6317 36.223 32.8877 37.2044 33.3997C38.1857 33.9117 38.6764 34.6584 38.6764 35.6397V76.3437C38.6764 77.325 38.1857 78.093 37.2044 78.6477C36.223 79.1597 35.0497 79.4157 33.6844 79.4157C32.319 79.4157 31.1457 79.1597 30.1644 78.6477C29.183 78.093 28.6924 77.325 28.6924 76.3437ZM44.8634 68.5997V38.7117C44.8634 37.8584 45.3754 37.1544 46.3994 36.5997C47.4234 36.0024 48.5541 35.7037 49.7914 35.7037C51.114 35.7037 52.2661 36.0024 53.2474 36.5997C54.2714 37.1544 54.7834 37.8584 54.7834 38.7117V48.9517H62.0154C62.7834 48.9517 63.3807 49.3144 63.8074 50.0397C64.234 50.7224 64.4474 51.533 64.4474 52.4717C64.4474 53.453 64.234 54.285 63.8074 54.9677C63.3807 55.6504 62.7834 55.9917 62.0154 55.9917H54.7834V68.5997C54.7834 69.5384 54.9754 70.1997 55.3594 70.5837C55.7434 70.925 56.4261 71.0957 57.4074 71.0957H60.1594C61.5247 71.0957 62.57 71.5224 63.2954 72.3757C64.0207 73.1864 64.3834 74.1464 64.3834 75.2557C64.3834 76.4077 64.0207 77.389 63.2954 78.1997C62.57 79.0104 61.5247 79.4157 60.1594 79.4157H57.4074C49.0447 79.4157 44.8634 75.8104 44.8634 68.5997ZM78.9554 74.1677C78.9554 73.2717 79.2754 72.333 79.9154 71.3517C80.5554 70.3277 81.3234 69.8157 82.2194 69.8157C82.7314 69.8157 83.35 70.0504 84.0754 70.5197C84.8434 70.989 85.782 71.4797 86.8914 71.9917C88.0434 72.461 89.3661 72.6957 90.8594 72.6957C93.5047 72.6957 94.8274 71.9917 94.8274 70.5837C94.8274 69.8157 94.3154 69.197 93.2914 68.7277C92.2674 68.2157 91.0087 67.789 89.5154 67.4477C88.0647 67.1064 86.5927 66.6584 85.0994 66.1037C83.6487 65.549 82.4114 64.6317 81.3874 63.3517C80.3634 62.0717 79.8514 60.429 79.8514 58.4237C79.8514 55.693 80.8114 53.3677 82.7314 51.4477C84.6514 49.5277 87.702 48.5677 91.8834 48.5677C94.7421 48.5677 97.2594 49.0157 99.4354 49.9117C101.654 50.765 102.763 51.853 102.763 53.1757C102.763 54.029 102.422 55.0317 101.739 56.1837C101.057 57.293 100.203 57.8477 99.1794 57.8477C98.7527 57.8477 97.7714 57.5277 96.2354 56.8877C94.6994 56.2477 93.2914 55.9277 92.0114 55.9277C90.8167 55.9277 89.8994 56.141 89.2594 56.5677C88.6621 56.9517 88.3634 57.421 88.3634 57.9757C88.3634 58.6157 88.8754 59.1277 89.8994 59.5117C90.966 59.8957 92.2247 60.2797 93.6754 60.6637C95.1687 61.005 96.6407 61.4744 98.0914 62.0717C99.5847 62.6264 100.843 63.6077 101.867 65.0157C102.934 66.381 103.467 68.109 103.467 70.1997C103.467 73.2717 102.379 75.6824 100.203 77.4317C98.0701 79.181 95.0407 80.0557 91.1154 80.0557C87.7874 80.0557 84.9287 79.4797 82.5394 78.3277C80.1501 77.133 78.9554 75.7464 78.9554 74.1677Z" fill="white"/>
</svg>
