<svg width="1920" height="316" viewBox="0 0 1920 316" fill="none" xmlns="http://www.w3.org/2000/svg">
<mask id="mask0" mask-type="alpha" maskUnits="userSpaceOnUse" x="0" y="0" width="1920" height="316">
<rect y="0.932129" width="1919.7" height="314.159" fill="white"/>
</mask>
<g mask="url(#mask0)">
<g opacity="0.5">
<path opacity="0.5" fill-rule="evenodd" clip-rule="evenodd" d="M1622.97 -74.9627C1627.18 -80.9547 1634.97 -96.1725 1640.89 -98.3136C1644.7 -99.6927 1643.59 -85.4271 1643.63 -82.707C1643.82 -72.1832 1642.79 -61.7262 1641.53 -51.2908C1639.25 -32.4707 1631.8 -15.7099 1621.57 0.308044C1616.31 8.55023 1610.14 16.8924 1601.6 22.0351C1597.66 24.4034 1592.93 24.8 1589.04 26.8405C1584.52 29.2159 1586.98 27.2956 1584.94 32.0103C1582.11 38.5559 1581.21 47.0005 1579.9 53.9849C1573.88 86.0473 1559.32 255.537 1561.84 288.151C1562.07 291.042 1558.04 291.733 1557.84 288.204C1556.77 269.492 1566.02 139.915 1570.69 97.5394C1575.36 55.1639 1580.08 17.7273 1584.82 3.06667C1590.57 -14.7198 1600.95 -36.1093 1609.59 -52.6959C1613.6 -60.4017 1617.98 -67.842 1622.97 -74.9627Z" fill="#69A1AC"/>
<path opacity="0.5" fill-rule="evenodd" clip-rule="evenodd" d="M1654.16 132.871C1665.1 124.842 1676.94 139.994 1667.04 148.023C1661.57 152.461 1655.85 150.882 1652.63 147.184C1650.54 149.732 1648.59 152.395 1646.71 154.645C1640.98 161.501 1635.57 168.521 1630.39 175.704C1619.65 190.627 1610.44 206.393 1600.81 221.871C1591.31 237.147 1581.88 252.501 1573.27 268.163C1565.97 281.434 1556.25 297.045 1553.75 311.593C1557.54 280.739 1571.92 251.083 1589.05 223.883C1606.04 196.907 1625.53 167.446 1651.83 146.156C1649.15 142.22 1649.08 136.601 1654.16 132.871Z" fill="#C1DEE2"/>
<path opacity="0.5" fill-rule="evenodd" clip-rule="evenodd" d="M1446.66 57.6235C1452.78 58.8203 1462.78 72.6629 1467.83 77.9371C1473.82 84.2047 1479.26 90.8851 1484.39 97.8845C1495.42 112.95 1505.29 128.969 1513.68 145.673C1527.37 172.904 1538.33 200.857 1546.28 230.51C1551.15 248.662 1554.31 267.476 1556.17 286.158C1556.53 289.681 1560.22 316.846 1554.9 317.578C1550.11 318.237 1551.59 296.951 1551.36 294.056C1548.75 261.391 1540.93 229.608 1530.05 198.819C1527.68 192.112 1525.48 183.897 1521.69 177.861C1518.96 173.514 1521.67 175.03 1516.87 173.385C1512.76 171.971 1508.06 172.316 1503.85 170.586C1494.69 166.829 1487.35 159.537 1480.92 152.201C1468.43 137.944 1458.52 122.521 1453.36 104.253C1450.5 94.1244 1447.87 83.9366 1446.41 73.4946C1446.03 70.7957 1442.72 56.8527 1446.66 57.6235Z" fill="#69A1AC"/>
<path opacity="0.5" fill-rule="evenodd" clip-rule="evenodd" d="M1470.81 -172.691C1493.86 -132.717 1512.8 -88.806 1525.03 -44.331C1532.44 -17.3841 1537.63 10.2674 1542.78 37.7192C1550.75 80.2248 1558.29 122.727 1560.43 165.988C1562.59 209.499 1566.86 259.684 1552.61 301.593C1559.73 259.044 1552.95 213.755 1551.75 170.943C1551.18 150.505 1549.52 130.266 1547.34 109.948C1545.22 90.2379 1541.77 70.6217 1538.55 51.0666C1536.98 41.5428 1535.34 32.0335 1533.66 22.5293C1533.16 19.6937 1532.95 11.2796 1531.15 9.34244C1529.34 7.39258 1520.1 6.59769 1517.2 5.16699C1511.37 2.2854 1505.87 -1.80771 1501.01 -6.13258C1491.69 -14.4233 1483.59 -25.2561 1477.19 -35.9347C1462.38 -60.6435 1456.46 -90.7972 1456.76 -119.413C1456.82 -124.969 1465.75 -184.797 1462.17 -185.621C1462.38 -185.874 1462.59 -186.135 1462.78 -186.407C1465.5 -181.858 1468.16 -177.279 1470.81 -172.691Z" fill="#89C5CC"/>
<path opacity="0.5" fill-rule="evenodd" clip-rule="evenodd" d="M1719.6 -28.5199C1719.95 -29.0329 1722.27 -32.6006 1721.1 -32.3726C1723.47 -32.8368 1717.84 -28.4378 1723.75 -31.137C1720.94 -28.4853 1722.56 -25.0407 1722.6 -21.4718C1722.66 -15.6776 1721.69 -9.9308 1720.6 -4.26084C1718.88 4.70164 1716.31 13.4158 1712.58 21.752C1704.45 39.9184 1690.65 57.4069 1674.27 68.7644C1666.18 74.3721 1658.25 76.2813 1649.03 78.8629C1643.2 80.4938 1642.74 83.5078 1639.65 89.1617C1633.21 100.938 1626.89 112.671 1621.21 124.844C1614.43 139.38 1607.85 153.932 1601.64 168.724C1580.72 218.55 1563.7 270.171 1554.76 323.593C1554.54 292.111 1561.82 259.688 1571.01 229.681C1577.7 207.818 1586.41 186.744 1595.7 165.882C1597.95 160.828 1601.36 154.327 1602.32 148.748C1602.99 144.838 1600.94 141.078 1600.01 136.96C1596.35 120.923 1596.61 102.955 1599.82 86.8323C1603.36 69.0534 1613.59 60.8016 1630.9 58.2834C1637.22 57.3622 1645.27 57.6998 1651.07 55.0012C1657.4 52.0625 1660 42.403 1663.6 36.2024C1673.26 19.5462 1684.73 3.57186 1697.91 -10.4624C1701.55 -14.3486 1705.48 -17.934 1709.64 -21.2571C1712.26 -23.3539 1717.81 -25.9371 1719.6 -28.5199Z" fill="#89C5CC"/>
<path opacity="0.5" fill-rule="evenodd" clip-rule="evenodd" d="M1525.54 289.593H1586.96C1589.72 289.593 1591.96 291.831 1591.96 294.593C1591.96 294.837 1591.94 295.081 1591.91 295.322L1587.16 327.511C1585.71 337.323 1577.29 344.593 1567.37 344.593H1545.13C1535.21 344.593 1526.79 337.323 1525.34 327.511L1520.6 295.322C1520.19 292.59 1522.08 290.049 1524.81 289.646C1525.05 289.611 1525.3 289.593 1525.54 289.593Z" fill="#C1DEE2"/>
</g>
<path fill-rule="evenodd" clip-rule="evenodd" d="M1481.58 104.171C1484.45 103.821 1487.5 103.945 1490.17 105.075C1495.83 107.48 1497.44 114.172 1497.36 119.612C1497.28 125.466 1496.04 131.861 1500.49 136.578C1502.53 138.747 1505.08 140.406 1507.09 142.615C1509.23 144.975 1510.92 147.675 1512.17 150.575C1514.46 155.901 1515.58 162.165 1513.49 167.752C1511.64 172.672 1507 177.112 1508.01 182.706C1509.05 188.541 1514.93 193.002 1518.61 197.349C1522.78 202.267 1526.61 208.554 1527.24 215.005C1527.84 221.186 1525.15 227.438 1521.02 232.111C1512.77 241.449 1500.37 246.026 1487.86 245.998C1482.55 245.986 1476.54 245.746 1471.96 242.893C1470.54 242.011 1469.8 241.021 1468.95 239.646C1468.2 238.412 1467.2 237.61 1466.05 236.737C1463.51 234.82 1461.68 232.237 1460.51 229.345C1455.97 218.112 1459.6 204.216 1465.95 194.241C1467.46 191.878 1468.69 189.604 1467.96 186.787C1467.2 183.846 1465.32 181.194 1463.66 178.667C1462.02 176.169 1460.15 173.785 1458.87 171.085C1457.53 168.255 1457.15 165.292 1457.39 162.196C1457.83 156.379 1460.35 151.012 1463.9 146.334C1467.32 141.828 1471.34 137.517 1471.35 131.613C1471.36 125.355 1467.18 119.789 1468.96 113.427C1469.7 110.793 1471.18 108.09 1473.57 106.511C1475.86 104.996 1478.89 104.5 1481.58 104.171Z" fill="#DDE3E9"/>
<path fill-rule="evenodd" clip-rule="evenodd" d="M1479.71 114.174C1479.76 113.334 1480.76 112.83 1481.54 113.049C1482.58 113.338 1482.56 114.303 1482.53 115.163C1482.45 117.806 1482.83 120.375 1483.46 122.94C1484.78 128.272 1487.23 133.184 1489.16 138.306C1491.09 143.424 1492 148.707 1490.86 154.122C1489.8 159.228 1488.12 164.201 1487.02 169.313C1486.06 173.819 1485.04 178.571 1486.5 183.065C1487.91 187.391 1491.04 190.914 1493.29 194.823C1497.94 202.916 1500 211.894 1500.28 221.133C1500.41 225.424 1500.29 229.753 1499.3 233.961C1498.72 236.384 1497.95 239.658 1495.88 241.331C1494.92 242.103 1493.28 242.369 1492.48 241.227C1491.72 240.156 1492.39 238.497 1492.63 237.355C1493.67 232.411 1493.87 227.359 1493.63 222.34C1493.38 217.478 1492.81 212.624 1491.28 207.98C1489.86 203.671 1487.7 199.8 1485.16 196.031C1482.57 192.189 1479.88 188.339 1478.82 183.787C1477.73 179.164 1478.61 174.46 1479.79 169.925C1481.04 165.129 1482.67 160.47 1484.36 155.803C1486.01 151.256 1486.6 146.953 1485.69 142.194C1483.89 132.792 1479.08 123.966 1479.71 114.174Z" fill="#C5CFD6"/>
<path fill-rule="evenodd" clip-rule="evenodd" d="M1557.22 115.58C1560.76 116.657 1564.28 118.393 1566.81 121.116C1572.18 126.907 1570.53 135.659 1567.57 142.051C1564.37 148.931 1559.54 155.847 1562.26 163.741C1563.52 167.37 1565.62 170.657 1566.81 174.314C1568.08 178.222 1568.63 182.292 1568.56 186.37C1568.43 193.86 1566.44 201.853 1561.03 207.371C1556.27 212.23 1548.48 215.068 1546.7 222.204C1544.84 229.649 1549.38 237.986 1551.4 245.04C1553.68 253.022 1554.86 262.451 1552.18 270.407C1549.63 278.032 1543.16 284.026 1535.85 287.404C1521.24 294.154 1504.27 293.115 1489.62 286.576C1483.4 283.8 1476.47 280.389 1472.61 274.631C1471.41 272.851 1471.06 271.292 1470.8 269.228C1470.57 267.376 1469.82 265.909 1468.93 264.276C1466.97 260.69 1466.18 256.682 1466.34 252.654C1466.96 237.009 1478.56 222.462 1491.28 213.97C1494.29 211.958 1496.94 209.91 1497.57 206.198C1498.23 202.324 1497.43 198.211 1496.82 194.359C1496.22 190.552 1495.29 186.761 1495.21 182.9C1495.13 178.856 1496.26 175.155 1498.17 171.617C1501.77 164.97 1507.55 159.928 1514.19 156.245C1520.59 152.698 1527.58 149.691 1530.72 142.713C1534.03 135.318 1532.07 126.559 1537.52 119.962C1539.78 117.231 1542.95 114.805 1546.58 114.18C1550.07 113.581 1553.88 114.568 1557.22 115.58Z" fill="#DDE3E9"/>
<path fill-rule="evenodd" clip-rule="evenodd" d="M1549.97 127.809C1550.48 126.842 1551.91 126.767 1552.71 127.438C1553.77 128.322 1553.24 129.454 1552.75 130.458C1551.27 133.545 1550.38 136.787 1549.77 140.157C1548.53 147.164 1548.81 154.261 1548.39 161.339C1547.96 168.412 1546.26 175.145 1542.1 180.963C1538.17 186.45 1533.61 191.46 1529.65 196.941C1526.16 201.771 1522.48 206.861 1521.84 212.952C1521.22 218.815 1523.03 224.624 1523.61 230.432C1524.81 242.455 1522.53 254.169 1518.01 265.255C1515.91 270.403 1513.51 275.47 1510.14 279.932C1508.21 282.501 1505.59 285.975 1502.29 286.867C1500.76 287.279 1498.71 286.737 1498.36 284.962C1498.04 283.296 1499.69 281.68 1500.56 280.453C1504.37 275.144 1507.26 269.271 1509.6 263.196C1511.86 257.312 1513.73 251.263 1514.38 244.962C1514.97 239.114 1514.48 233.399 1513.48 227.604C1512.47 221.699 1511.34 215.73 1512.47 209.779C1513.62 203.734 1517.12 198.626 1520.87 193.874C1524.84 188.848 1529.2 184.188 1533.62 179.547C1537.92 175.025 1540.86 170.236 1542.29 164.124C1545.11 152.047 1544.11 139.076 1549.97 127.809Z" fill="#C5CFD6"/>
<path fill-rule="evenodd" clip-rule="evenodd" d="M1447.63 159.998C1453.52 159.998 1458.71 163.122 1462.28 167.556C1466.46 172.746 1467.3 179.084 1469 185.27C1469.84 188.348 1471.29 191.404 1473.84 193.496C1476.16 195.398 1479.09 195.778 1481.87 196.708C1487.4 198.565 1491.88 203.039 1493.64 208.498C1495.8 215.156 1493.52 221.871 1493.91 228.62C1494.27 234.817 1500.38 238.683 1505.3 241.654C1510.14 244.584 1514.51 247.326 1515.97 253.033C1517.52 259.086 1518.04 265.842 1515.89 271.821C1512.32 281.777 1501.88 286.161 1491.78 286.841C1482.62 287.457 1471.09 286.489 1464.21 279.838C1460.1 275.858 1458.6 270.291 1458.79 264.753C1458.9 261.309 1459.59 257.897 1460.47 254.569C1461.09 252.211 1461.94 249.862 1462.18 247.425C1462.82 240.94 1456.83 239.695 1451.72 237.914C1445.24 235.652 1440.7 231.378 1437.55 225.423C1434.61 219.88 1433.37 213.656 1435.14 207.552C1436.04 204.436 1437.67 201.608 1439.88 199.203C1440.86 198.144 1442.23 197.261 1443.11 196.149C1443.93 195.11 1443.75 193.764 1443.47 192.548C1442.16 186.929 1438.08 182.276 1436.63 176.666C1435.31 171.603 1436.09 165.302 1440.72 162.036C1442.72 160.625 1445.18 160.014 1447.63 159.998Z" fill="#C5CFD6"/>
<path fill-rule="evenodd" clip-rule="evenodd" d="M1455.66 174.639C1461.91 181.294 1463.61 190.323 1464.1 199.074C1464.38 203.981 1464.09 209.157 1465.53 213.917C1466.77 217.991 1469.66 221.105 1472.64 224.049C1478.64 229.973 1485.33 235.997 1487.09 244.572C1488.12 249.604 1487.42 254.802 1488.85 259.778C1490.14 264.302 1492.42 268.746 1495.19 272.566C1497.42 275.643 1500.33 277.998 1502.77 280.865C1503.51 281.741 1504.58 283.029 1504.27 284.265C1503.91 285.712 1502.07 286.17 1500.76 285.943C1497.71 285.413 1495.14 282.501 1493.15 280.384C1490.23 277.289 1487.76 273.96 1485.74 270.225C1483.51 266.078 1481.71 261.677 1480.94 257.024C1480.14 252.197 1480.54 247.166 1478.71 242.533C1475.65 234.738 1468.21 230.138 1462.83 224.062C1456.13 216.492 1457.13 207.07 1457.82 197.757C1458.19 192.639 1458.57 186.86 1455.98 182.188C1454.99 180.404 1452.79 178.741 1452.37 176.714C1451.98 174.856 1454.1 172.979 1455.66 174.639Z" fill="#AFB9C5"/>
<path fill-rule="evenodd" clip-rule="evenodd" d="M1462.32 283.998C1462.32 322.057 1468.53 341.998 1501.32 341.998C1534.11 341.998 1540.32 322.057 1540.32 283.998H1462.32Z" fill="#89C5CC"/>
<path fill-rule="evenodd" clip-rule="evenodd" d="M1554.69 95.5611C1559.1 90.3838 1562.09 84.0389 1561.59 76.9293C1560.15 56.4447 1531.64 60.951 1526.09 71.2899C1520.54 81.6288 1521.2 107.854 1528.37 109.702C1531.23 110.439 1537.32 108.634 1543.52 104.898L1539.63 132.423H1562.6L1554.69 95.5611Z" fill="#F9D3B1"/>
<path fill-rule="evenodd" clip-rule="evenodd" d="M1542.37 79.192C1541.49 91.4416 1539.17 97.5663 1535.39 97.5663C1529.73 97.5663 1524.93 93.9733 1522.45 93.9733C1520.64 93.9733 1521.04 96.2387 1522.24 97.9184C1523.23 99.3041 1528.05 100.64 1528.05 102.788C1528.05 104.937 1524.24 103.275 1524.24 104.549C1524.24 106.656 1523.57 110.619 1527.23 110.619C1530.93 110.619 1541.55 109.27 1543.37 103.776C1544.54 100.23 1545.3 92.8816 1545.64 81.7318C1545.87 81.7051 1546.1 81.6914 1546.33 81.6914C1549.5 81.6914 1552.07 84.2627 1552.07 87.4346C1552.07 89.0448 1551.41 90.5003 1550.34 91.5431C1551.67 93.4189 1553.16 95.3783 1554.87 97.4003C1561.28 93.5537 1566.04 82.2934 1559.77 71.4763C1558.04 66.1772 1554.11 63.3467 1549.48 62.0325C1545.73 60.4628 1541.83 60.2859 1538.55 61.2268C1532.1 61.7797 1526.34 63.7452 1524.71 64.9124C1524.71 71.0148 1525.89 72.8254 1535.99 72.6658C1538.48 73.9764 1540.38 76.2332 1542.37 79.192Z" fill="#191847"/>
<path fill-rule="evenodd" clip-rule="evenodd" d="M1448.8 229.193C1441.93 219.872 1424.75 226.042 1424.76 233.759C1424.79 254.018 1443.28 350.199 1444.24 356.272C1445.21 362.344 1455.55 364.331 1456.15 356.743C1457.11 344.67 1458.89 302.818 1457.11 283.348C1456.59 277.66 1456.04 272.163 1455.49 267.013C1465.21 284.469 1479.98 309.142 1499.82 341.031L1510.84 335.995C1502.18 307.474 1495.08 287.338 1489.54 275.589C1480.06 255.472 1471.16 238.244 1467.42 232.176C1462.48 224.16 1454.46 225.224 1448.8 229.193Z" fill="#B28B67"/>
<path fill-rule="evenodd" clip-rule="evenodd" d="M1510.05 320.156L1472.22 230.525C1463.15 215.944 1437.74 233.492 1440.83 241.949C1447.85 261.148 1483.54 323.304 1485.63 329.024L1510.05 320.156Z" fill="#1F28CF"/>
<path fill-rule="evenodd" clip-rule="evenodd" d="M1423.81 240.757C1423.81 266.162 1434.94 325.881 1434.95 331.475L1461.93 330.565C1457.21 278.644 1455.22 252.507 1455.96 252.155C1457.62 251.363 1524.06 261.351 1543.99 262.105C1572.72 263.192 1584.61 245.564 1585.57 212.111H1529.92C1482.32 217.792 1451.04 221.744 1436.07 223.965C1426.46 225.392 1423.81 233.758 1423.81 240.757Z" fill="#2B44FF"/>
<path fill-rule="evenodd" clip-rule="evenodd" d="M1483.58 315.295L1477.4 316.835C1469.19 318.881 1464.2 327.193 1466.24 335.401L1468.1 342.831C1470.14 351.038 1478.45 356.032 1486.66 353.986L1492.84 352.446C1501.05 350.4 1506.04 342.088 1503.99 333.88L1502.14 326.45C1500.09 318.243 1491.78 313.249 1483.58 315.295ZM1489.97 322.61C1492.03 322.098 1494.1 323.347 1494.62 325.399L1497.84 338.342C1498.35 340.393 1497.11 342.471 1495.05 342.983L1480.26 346.671C1478.21 347.183 1476.13 345.934 1475.62 343.882L1472.39 330.939C1471.88 328.888 1473.13 326.81 1475.18 326.298L1489.97 322.61Z" fill="#C5CFD6"/>
<path fill-rule="evenodd" clip-rule="evenodd" d="M1588.45 217.615H1486.02C1480.74 217.615 1476.45 221.9 1476.45 227.187V274.09H1594.19C1596.3 274.09 1598.02 272.376 1598.02 270.261V227.187C1598.02 221.9 1593.73 217.615 1588.45 217.615Z" fill="#2F3676"/>
<path fill-rule="evenodd" clip-rule="evenodd" d="M1486.02 217.615H1483.93C1479.24 217.615 1475.24 221.01 1474.48 225.636L1453.48 353.538H1463.71" fill="#2F3676"/>
<path fill-rule="evenodd" clip-rule="evenodd" d="M1585.57 370.768C1625.75 370.768 1658.32 338.198 1658.32 298.02C1658.32 257.843 1625.75 225.272 1585.57 225.272C1545.4 225.272 1512.83 257.843 1512.83 298.02C1512.83 338.198 1545.4 370.768 1585.57 370.768ZM1585.57 357.367C1552.8 357.367 1526.23 330.796 1526.23 298.02C1526.23 265.244 1552.8 238.673 1585.57 238.673C1618.35 238.673 1644.92 265.244 1644.92 298.02C1644.92 330.796 1618.35 357.367 1585.57 357.367Z" fill="#191847"/>
<path d="M1581.75 234.845H1589.4V361.196H1581.75V234.845Z" fill="#191847"/>
<path d="M1539.55 254.702L1542.26 251.994C1543 251.247 1544.22 251.247 1544.96 251.994L1631.6 338.631C1632.35 339.378 1632.35 340.591 1631.6 341.338L1628.89 344.046C1628.14 344.793 1626.93 344.793 1626.19 344.046L1539.55 257.409C1538.8 256.661 1538.8 255.449 1539.55 254.702Z" fill="#191847"/>
<path d="M1522.4 299.935V296.106C1522.4 295.049 1523.26 294.191 1524.31 294.191H1646.84C1647.89 294.191 1648.75 295.049 1648.75 296.106V299.935C1648.75 300.992 1647.89 301.849 1646.84 301.849H1524.31C1523.26 301.849 1522.4 300.992 1522.4 299.935Z" fill="#191847"/>
<path d="M1542.26 344.046L1539.55 341.339C1538.8 340.591 1538.8 339.379 1539.55 338.631L1626.19 251.995C1626.93 251.247 1628.15 251.247 1628.89 251.995L1631.6 254.702C1632.35 255.45 1632.35 256.662 1631.6 257.41L1544.96 344.046C1544.22 344.794 1543 344.794 1542.26 344.046Z" fill="#191847"/>
<path fill-rule="evenodd" clip-rule="evenodd" d="M1489.11 199.63L1458.57 222.052C1450.29 224.286 1443.37 227.066 1437.82 230.392C1436.5 231.588 1434.92 234.01 1440.36 233.591C1445.8 233.173 1451.55 232.977 1452.3 234.834C1453.05 236.691 1449.76 238.911 1451.27 241.416C1452.29 243.086 1457.07 238.898 1465.62 228.853L1495.86 216.315L1489.11 199.63ZM1606.34 200.404L1586.34 200.483C1598.69 240.354 1605.35 261.509 1606.34 263.949C1608.55 269.438 1603.87 277.798 1601.86 282.291C1608.39 285.212 1607.69 274.393 1615.93 278.225C1623.45 281.722 1629.16 288.058 1637.85 282.7C1638.92 282.041 1640.09 279.56 1637.26 277.622C1630.22 272.793 1620.07 264.341 1618.7 261.559C1616.83 257.765 1612.71 237.38 1606.34 200.404Z" fill="#F9D3B1"/>
<path fill-rule="evenodd" clip-rule="evenodd" d="M1549.49 116.469L1541.22 115.049C1510.51 141.579 1497.89 192.545 1460.25 219.544L1469.31 230.774C1534.61 222.689 1550.8 160.522 1549.49 116.469Z" fill="#E87613"/>
<path fill-rule="evenodd" clip-rule="evenodd" d="M1585.57 220.486C1552.39 220.486 1527.97 220.486 1512.34 220.486C1508.99 220.486 1509.62 215.654 1510.11 213.216C1515.69 185.073 1537.48 154.737 1537.48 114.677L1558.61 111.365C1576.08 139.467 1582.12 174.066 1585.57 220.486Z" fill="#DDE3E9"/>
<path fill-rule="evenodd" clip-rule="evenodd" d="M1584.99 138.988C1588.05 138.106 1590.48 136.049 1592.28 132.817C1600 118.885 1597.21 111.214 1588.96 108.693C1580.7 106.171 1573.35 111.365 1560.2 111.365C1559.48 111.365 1558.83 111.41 1558.23 111.499L1551.62 111.877C1532.65 176.182 1527.41 219.086 1535.92 240.588H1593.57C1596.98 248.552 1600.25 255.252 1603.37 260.689H1619.08C1620.56 212.893 1609.19 172.326 1584.99 138.988Z" fill="#FF9B21"/>
<path fill-rule="evenodd" clip-rule="evenodd" d="M1581.01 207.562C1579.2 222.73 1576.25 233.738 1572.17 240.587H1593.57C1589.58 231.298 1585.4 220.289 1581.01 207.562Z" fill="black" fill-opacity="0.1"/>
<path fill-rule="evenodd" clip-rule="evenodd" d="M1677.58 118.171C1680.45 117.821 1683.5 117.945 1686.17 119.075C1691.83 121.48 1693.44 128.172 1693.36 133.612C1693.28 139.466 1692.04 145.861 1696.49 150.578C1698.53 152.747 1701.08 154.406 1703.09 156.615C1705.23 158.975 1706.92 161.675 1708.17 164.575C1710.46 169.901 1711.58 176.165 1709.49 181.752C1707.64 186.672 1703 191.112 1704.01 196.706C1705.05 202.541 1710.93 207.002 1714.61 211.349C1718.78 216.267 1722.61 222.554 1723.24 229.005C1723.84 235.186 1721.15 241.438 1717.02 246.111C1708.77 255.449 1696.37 260.026 1683.86 259.998C1678.55 259.986 1672.54 259.746 1667.96 256.893C1666.54 256.011 1665.8 255.021 1664.95 253.646C1664.2 252.412 1663.2 251.61 1662.05 250.737C1659.51 248.82 1657.68 246.237 1656.51 243.345C1651.97 232.112 1655.6 218.216 1661.95 208.241C1663.46 205.878 1664.69 203.604 1663.96 200.787C1663.2 197.846 1661.32 195.194 1659.66 192.667C1658.02 190.169 1656.15 187.785 1654.87 185.085C1653.53 182.255 1653.15 179.292 1653.39 176.196C1653.83 170.379 1656.35 165.012 1659.9 160.334C1663.32 155.828 1667.34 151.517 1667.35 145.613C1667.36 139.355 1663.18 133.789 1664.96 127.427C1665.7 124.793 1667.18 122.09 1669.57 120.511C1671.86 118.996 1674.89 118.5 1677.58 118.171Z" fill="#DDE3E9"/>
<path fill-rule="evenodd" clip-rule="evenodd" d="M1675.71 128.174C1675.76 127.334 1676.76 126.83 1677.54 127.049C1678.58 127.338 1678.56 128.303 1678.53 129.163C1678.45 131.806 1678.83 134.375 1679.46 136.94C1680.78 142.272 1683.23 147.184 1685.16 152.306C1687.09 157.424 1688 162.707 1686.86 168.122C1685.8 173.228 1684.12 178.201 1683.02 183.313C1682.06 187.819 1681.04 192.571 1682.5 197.065C1683.91 201.391 1687.04 204.914 1689.29 208.823C1693.94 216.916 1696 225.894 1696.28 235.133C1696.41 239.424 1696.29 243.753 1695.3 247.961C1694.72 250.384 1693.95 253.658 1691.88 255.331C1690.92 256.103 1689.28 256.369 1688.48 255.227C1687.72 254.156 1688.39 252.497 1688.63 251.355C1689.67 246.411 1689.87 241.359 1689.63 236.34C1689.38 231.478 1688.81 226.624 1687.28 221.98C1685.86 217.671 1683.7 213.8 1681.16 210.031C1678.57 206.189 1675.88 202.339 1674.82 197.787C1673.73 193.164 1674.61 188.46 1675.79 183.925C1677.04 179.129 1678.67 174.47 1680.36 169.803C1682.01 165.256 1682.6 160.953 1681.69 156.194C1679.89 146.792 1675.08 137.966 1675.71 128.174Z" fill="#C5CFD6"/>
<path fill-rule="evenodd" clip-rule="evenodd" d="M1753.22 129.58C1756.76 130.657 1760.28 132.393 1762.81 135.116C1768.18 140.907 1766.53 149.659 1763.57 156.051C1760.37 162.931 1755.54 169.847 1758.26 177.741C1759.52 181.37 1761.62 184.657 1762.81 188.314C1764.08 192.222 1764.63 196.292 1764.56 200.37C1764.43 207.86 1762.44 215.853 1757.03 221.371C1752.27 226.23 1744.48 229.068 1742.7 236.204C1740.84 243.649 1745.38 251.986 1747.4 259.04C1749.68 267.022 1750.86 276.451 1748.18 284.407C1745.63 292.032 1739.16 298.026 1731.85 301.404C1717.24 308.154 1700.27 307.115 1685.62 300.576C1679.4 297.8 1672.47 294.389 1668.61 288.631C1667.41 286.851 1667.06 285.292 1666.8 283.228C1666.57 281.376 1665.82 279.909 1664.93 278.276C1662.97 274.69 1662.18 270.682 1662.34 266.654C1662.96 251.009 1674.56 236.462 1687.28 227.97C1690.29 225.958 1692.94 223.91 1693.57 220.198C1694.23 216.324 1693.43 212.211 1692.82 208.359C1692.22 204.552 1691.29 200.761 1691.21 196.9C1691.13 192.856 1692.26 189.155 1694.17 185.617C1697.77 178.97 1703.55 173.928 1710.19 170.245C1716.59 166.698 1723.58 163.691 1726.72 156.713C1730.03 149.318 1728.07 140.559 1733.52 133.962C1735.78 131.231 1738.95 128.805 1742.58 128.18C1746.07 127.581 1749.88 128.568 1753.22 129.58Z" fill="#DDE3E9"/>
<path fill-rule="evenodd" clip-rule="evenodd" d="M1745.97 141.809C1746.48 140.842 1747.91 140.767 1748.71 141.438C1749.77 142.322 1749.24 143.454 1748.75 144.458C1747.27 147.545 1746.38 150.787 1745.77 154.157C1744.53 161.164 1744.81 168.261 1744.39 175.339C1743.96 182.412 1742.26 189.145 1738.1 194.963C1734.17 200.45 1729.61 205.46 1725.65 210.941C1722.16 215.771 1718.48 220.861 1717.84 226.952C1717.22 232.815 1719.03 238.624 1719.61 244.432C1720.81 256.455 1718.53 268.169 1714.01 279.255C1711.91 284.403 1709.51 289.47 1706.14 293.932C1704.21 296.501 1701.59 299.975 1698.29 300.867C1696.76 301.279 1694.71 300.737 1694.36 298.962C1694.04 297.296 1695.69 295.68 1696.56 294.453C1700.37 289.144 1703.26 283.271 1705.6 277.196C1707.86 271.312 1709.73 265.263 1710.38 258.962C1710.97 253.114 1710.48 247.399 1709.48 241.604C1708.47 235.699 1707.34 229.73 1708.47 223.779C1709.62 217.734 1713.12 212.626 1716.87 207.874C1720.84 202.848 1725.2 198.188 1729.62 193.547C1733.92 189.025 1736.86 184.236 1738.29 178.124C1741.11 166.047 1740.11 153.076 1745.97 141.809Z" fill="#C5CFD6"/>
<path fill-rule="evenodd" clip-rule="evenodd" d="M1643.63 173.998C1649.52 173.998 1654.71 177.122 1658.28 181.556C1662.46 186.746 1663.3 193.084 1665 199.27C1665.84 202.348 1667.29 205.404 1669.84 207.496C1672.16 209.398 1675.09 209.778 1677.87 210.708C1683.4 212.565 1687.88 217.039 1689.64 222.498C1691.8 229.156 1689.52 235.871 1689.91 242.62C1690.27 248.817 1696.38 252.683 1701.3 255.654C1706.14 258.584 1710.51 261.326 1711.97 267.033C1713.52 273.086 1714.04 279.842 1711.89 285.821C1708.32 295.777 1697.88 300.161 1687.78 300.841C1678.62 301.457 1667.09 300.489 1660.21 293.838C1656.1 289.858 1654.6 284.291 1654.79 278.753C1654.9 275.309 1655.59 271.897 1656.47 268.569C1657.09 266.211 1657.94 263.862 1658.18 261.425C1658.82 254.94 1652.83 253.695 1647.72 251.914C1641.24 249.652 1636.7 245.378 1633.55 239.423C1630.61 233.88 1629.37 227.656 1631.14 221.552C1632.04 218.436 1633.67 215.608 1635.88 213.203C1636.86 212.144 1638.23 211.261 1639.11 210.149C1639.93 209.11 1639.75 207.764 1639.47 206.548C1638.16 200.929 1634.08 196.276 1632.63 190.666C1631.31 185.603 1632.09 179.302 1636.72 176.036C1638.72 174.625 1641.18 174.014 1643.63 173.998Z" fill="#C5CFD6"/>
<path fill-rule="evenodd" clip-rule="evenodd" d="M1651.66 188.639C1657.91 195.294 1659.61 204.323 1660.1 213.074C1660.38 217.981 1660.09 223.157 1661.53 227.917C1662.77 231.991 1665.66 235.105 1668.64 238.049C1674.64 243.973 1681.33 249.997 1683.09 258.572C1684.12 263.604 1683.42 268.802 1684.85 273.778C1686.14 278.302 1688.42 282.746 1691.19 286.566C1693.42 289.643 1696.33 291.998 1698.77 294.865C1699.51 295.741 1700.58 297.029 1700.27 298.265C1699.91 299.712 1698.07 300.17 1696.76 299.943C1693.71 299.413 1691.14 296.501 1689.15 294.384C1686.23 291.289 1683.76 287.96 1681.74 284.225C1679.51 280.078 1677.71 275.677 1676.94 271.024C1676.14 266.197 1676.54 261.166 1674.71 256.533C1671.65 248.738 1664.21 244.138 1658.83 238.062C1652.13 230.492 1653.13 221.07 1653.82 211.757C1654.19 206.639 1654.57 200.86 1651.98 196.188C1650.99 194.404 1648.79 192.741 1648.37 190.714C1647.98 188.856 1650.1 186.979 1651.66 188.639Z" fill="#AFB9C5"/>
<path fill-rule="evenodd" clip-rule="evenodd" d="M1658.32 297.998C1658.32 336.057 1664.53 355.998 1697.32 355.998C1730.11 355.998 1736.32 336.057 1736.32 297.998H1658.32Z" fill="#89C5CC"/>
<g opacity="0.5">
<path opacity="0.5" fill-rule="evenodd" clip-rule="evenodd" d="M1815.97 -72.9627C1820.18 -78.9547 1827.97 -94.1725 1833.89 -96.3136C1837.7 -97.6927 1836.59 -83.4271 1836.63 -80.707C1836.82 -70.1832 1835.79 -59.7262 1834.53 -49.2908C1832.25 -30.4707 1824.8 -13.7099 1814.57 2.30804C1809.31 10.5502 1803.14 18.8924 1794.6 24.0351C1790.66 26.4034 1785.93 26.8 1782.04 28.8405C1777.52 31.2159 1779.98 29.2956 1777.94 34.0103C1775.11 40.5559 1774.21 49.0005 1772.9 55.9849C1766.88 88.0473 1752.32 257.537 1754.84 290.151C1755.07 293.042 1751.04 293.733 1750.84 290.204C1749.77 271.492 1759.02 141.915 1763.69 99.5394C1768.36 57.1639 1773.08 19.7273 1777.82 5.06667C1783.57 -12.7198 1793.95 -34.1093 1802.59 -50.6959C1806.6 -58.4017 1810.98 -65.842 1815.97 -72.9627Z" fill="#69A1AC"/>
<path opacity="0.5" fill-rule="evenodd" clip-rule="evenodd" d="M1847.16 134.871C1858.1 126.842 1869.94 141.994 1860.04 150.023C1854.57 154.461 1848.85 152.882 1845.63 149.184C1843.54 151.732 1841.59 154.395 1839.71 156.645C1833.98 163.501 1828.57 170.521 1823.39 177.704C1812.65 192.627 1803.44 208.393 1793.81 223.871C1784.31 239.147 1774.88 254.501 1766.27 270.163C1758.97 283.434 1749.25 299.045 1746.75 313.593C1750.54 282.739 1764.92 253.083 1782.05 225.883C1799.04 198.907 1818.53 169.446 1844.83 148.156C1842.15 144.22 1842.08 138.601 1847.16 134.871Z" fill="#C1DEE2"/>
<path opacity="0.5" fill-rule="evenodd" clip-rule="evenodd" d="M1639.66 59.6235C1645.78 60.8203 1655.78 74.6629 1660.83 79.9371C1666.82 86.2047 1672.26 92.8851 1677.39 99.8845C1688.42 114.95 1698.29 130.969 1706.68 147.673C1720.37 174.904 1731.33 202.857 1739.28 232.51C1744.15 250.662 1747.31 269.476 1749.17 288.158C1749.53 291.681 1753.22 318.846 1747.9 319.578C1743.11 320.237 1744.59 298.951 1744.36 296.056C1741.75 263.391 1733.93 231.608 1723.05 200.819C1720.68 194.112 1718.48 185.897 1714.69 179.861C1711.96 175.514 1714.67 177.03 1709.87 175.385C1705.76 173.971 1701.06 174.316 1696.85 172.586C1687.69 168.829 1680.35 161.537 1673.92 154.201C1661.43 139.944 1651.52 124.521 1646.36 106.253C1643.5 96.1244 1640.87 85.9366 1639.41 75.4946C1639.03 72.7957 1635.72 58.8527 1639.66 59.6235Z" fill="#69A1AC"/>
<path opacity="0.5" fill-rule="evenodd" clip-rule="evenodd" d="M1663.81 -170.691C1686.86 -130.717 1705.8 -86.806 1718.03 -42.331C1725.44 -15.3841 1730.63 12.2674 1735.78 39.7192C1743.75 82.2248 1751.29 124.727 1753.43 167.988C1755.59 211.499 1759.86 261.684 1745.61 303.593C1752.73 261.044 1745.95 215.755 1744.75 172.943C1744.18 152.505 1742.52 132.266 1740.34 111.948C1738.22 92.2379 1734.77 72.6217 1731.55 53.0666C1729.98 43.5428 1728.34 34.0335 1726.66 24.5293C1726.16 21.6937 1725.95 13.2796 1724.15 11.3424C1722.34 9.39258 1713.1 8.59769 1710.2 7.16699C1704.37 4.2854 1698.87 0.192291 1694.01 -4.13258C1684.69 -12.4233 1676.59 -23.2561 1670.19 -33.9347C1655.38 -58.6435 1649.46 -88.7972 1649.76 -117.413C1649.82 -122.969 1658.75 -182.797 1655.17 -183.621C1655.38 -183.874 1655.59 -184.135 1655.78 -184.407C1658.5 -179.858 1661.16 -175.279 1663.81 -170.691Z" fill="#89C5CC"/>
<path opacity="0.5" fill-rule="evenodd" clip-rule="evenodd" d="M1912.6 -26.5199C1912.95 -27.0329 1915.27 -30.6006 1914.1 -30.3726C1916.47 -30.8368 1910.84 -26.4378 1916.75 -29.137C1913.94 -26.4853 1915.56 -23.0407 1915.6 -19.4718C1915.66 -13.6776 1914.69 -7.9308 1913.6 -2.26084C1911.88 6.70164 1909.31 15.4158 1905.58 23.752C1897.45 41.9184 1883.65 59.4069 1867.27 70.7644C1859.18 76.3721 1851.25 78.2813 1842.03 80.8629C1836.2 82.4938 1835.74 85.5078 1832.65 91.1617C1826.21 102.938 1819.89 114.671 1814.21 126.844C1807.43 141.38 1800.85 155.932 1794.64 170.724C1773.72 220.55 1756.7 272.171 1747.76 325.593C1747.54 294.111 1754.82 261.688 1764.01 231.681C1770.7 209.818 1779.41 188.744 1788.7 167.882C1790.95 162.828 1794.36 156.327 1795.32 150.748C1795.99 146.838 1793.94 143.078 1793.01 138.96C1789.35 122.923 1789.61 104.955 1792.82 88.8323C1796.36 71.0534 1806.59 62.8016 1823.9 60.2834C1830.22 59.3622 1838.27 59.6998 1844.07 57.0012C1850.4 54.0625 1853 44.403 1856.6 38.2024C1866.26 21.5462 1877.73 5.57186 1890.91 -8.46237C1894.55 -12.3486 1898.48 -15.934 1902.64 -19.2571C1905.26 -21.3539 1910.81 -23.9371 1912.6 -26.5199Z" fill="#89C5CC"/>
<path opacity="0.5" fill-rule="evenodd" clip-rule="evenodd" d="M1718.54 291.593H1779.96C1782.72 291.593 1784.96 293.831 1784.96 296.593C1784.96 296.837 1784.94 297.081 1784.91 297.322L1780.16 329.511C1778.71 339.323 1770.29 346.593 1760.37 346.593H1738.13C1728.21 346.593 1719.79 339.323 1718.34 329.511L1713.6 297.322C1713.19 294.59 1715.08 292.049 1717.81 291.646C1718.05 291.611 1718.3 291.593 1718.54 291.593Z" fill="#C1DEE2"/>
</g>
<g opacity="0.5">
<path opacity="0.5" fill-rule="evenodd" clip-rule="evenodd" d="M1895.97 -72.9627C1900.18 -78.9547 1907.97 -94.1725 1913.89 -96.3136C1917.7 -97.6927 1916.59 -83.4271 1916.63 -80.707C1916.82 -70.1832 1915.79 -59.7262 1914.53 -49.2908C1912.25 -30.4707 1904.8 -13.7099 1894.57 2.30804C1889.31 10.5502 1883.14 18.8924 1874.6 24.0351C1870.66 26.4034 1865.93 26.8 1862.04 28.8405C1857.52 31.2159 1859.98 29.2956 1857.94 34.0103C1855.11 40.5559 1854.21 49.0005 1852.9 55.9849C1846.88 88.0473 1832.32 257.537 1834.84 290.151C1835.07 293.042 1831.04 293.733 1830.84 290.204C1829.77 271.492 1839.02 141.915 1843.69 99.5394C1848.36 57.1639 1853.08 19.7273 1857.82 5.06667C1863.57 -12.7198 1873.95 -34.1093 1882.59 -50.6959C1886.6 -58.4017 1890.98 -65.842 1895.97 -72.9627Z" fill="#69A1AC"/>
<path opacity="0.5" fill-rule="evenodd" clip-rule="evenodd" d="M1927.16 134.871C1938.1 126.842 1949.94 141.994 1940.04 150.023C1934.57 154.461 1928.85 152.882 1925.63 149.184C1923.54 151.732 1921.59 154.395 1919.71 156.645C1913.98 163.501 1908.57 170.521 1903.39 177.704C1892.65 192.627 1883.44 208.393 1873.81 223.871C1864.31 239.147 1854.88 254.501 1846.27 270.163C1838.97 283.434 1829.25 299.045 1826.75 313.593C1830.54 282.739 1844.92 253.083 1862.05 225.883C1879.04 198.907 1898.53 169.446 1924.83 148.156C1922.15 144.22 1922.08 138.601 1927.16 134.871Z" fill="#C1DEE2"/>
<path opacity="0.5" fill-rule="evenodd" clip-rule="evenodd" d="M1719.66 59.6235C1725.78 60.8203 1735.78 74.6629 1740.83 79.9371C1746.82 86.2047 1752.26 92.8851 1757.39 99.8845C1768.42 114.95 1778.29 130.969 1786.68 147.673C1800.37 174.904 1811.33 202.857 1819.28 232.51C1824.15 250.662 1827.31 269.476 1829.17 288.158C1829.53 291.681 1833.22 318.846 1827.9 319.578C1823.11 320.237 1824.59 298.951 1824.36 296.056C1821.75 263.391 1813.93 231.608 1803.05 200.819C1800.68 194.112 1798.48 185.897 1794.69 179.861C1791.96 175.514 1794.67 177.03 1789.87 175.385C1785.76 173.971 1781.06 174.316 1776.85 172.586C1767.69 168.829 1760.35 161.537 1753.92 154.201C1741.43 139.944 1731.52 124.521 1726.36 106.253C1723.5 96.1244 1720.87 85.9366 1719.41 75.4946C1719.03 72.7957 1715.72 58.8527 1719.66 59.6235Z" fill="#69A1AC"/>
<path opacity="0.5" fill-rule="evenodd" clip-rule="evenodd" d="M1743.81 -170.691C1766.86 -130.717 1785.8 -86.806 1798.03 -42.331C1805.44 -15.3841 1810.63 12.2674 1815.78 39.7192C1823.75 82.2248 1831.29 124.727 1833.43 167.988C1835.59 211.499 1839.86 261.684 1825.61 303.593C1832.73 261.044 1825.95 215.755 1824.75 172.943C1824.18 152.505 1822.52 132.266 1820.34 111.948C1818.22 92.2379 1814.77 72.6217 1811.55 53.0666C1809.98 43.5428 1808.34 34.0335 1806.66 24.5293C1806.16 21.6937 1805.95 13.2796 1804.15 11.3424C1802.34 9.39258 1793.1 8.59769 1790.2 7.16699C1784.37 4.2854 1778.87 0.192291 1774.01 -4.13258C1764.69 -12.4233 1756.59 -23.2561 1750.19 -33.9347C1735.38 -58.6435 1729.46 -88.7972 1729.76 -117.413C1729.82 -122.969 1738.75 -182.797 1735.17 -183.621C1735.38 -183.874 1735.59 -184.135 1735.78 -184.407C1738.5 -179.858 1741.16 -175.279 1743.81 -170.691Z" fill="#89C5CC"/>
<path opacity="0.5" fill-rule="evenodd" clip-rule="evenodd" d="M1992.6 -26.5199C1992.95 -27.0329 1995.27 -30.6006 1994.1 -30.3726C1996.47 -30.8368 1990.84 -26.4378 1996.75 -29.137C1993.94 -26.4853 1995.56 -23.0407 1995.6 -19.4718C1995.66 -13.6776 1994.69 -7.9308 1993.6 -2.26084C1991.88 6.70164 1989.31 15.4158 1985.58 23.752C1977.45 41.9184 1963.65 59.4069 1947.27 70.7644C1939.18 76.3721 1931.25 78.2813 1922.03 80.8629C1916.2 82.4938 1915.74 85.5078 1912.65 91.1617C1906.21 102.938 1899.89 114.671 1894.21 126.844C1887.43 141.38 1880.85 155.932 1874.64 170.724C1853.72 220.55 1836.7 272.171 1827.76 325.593C1827.54 294.111 1834.82 261.688 1844.01 231.681C1850.7 209.818 1859.41 188.744 1868.7 167.882C1870.95 162.828 1874.36 156.327 1875.32 150.748C1875.99 146.838 1873.94 143.078 1873.01 138.96C1869.35 122.923 1869.61 104.955 1872.82 88.8323C1876.36 71.0534 1886.59 62.8016 1903.9 60.2834C1910.22 59.3622 1918.27 59.6998 1924.07 57.0012C1930.4 54.0625 1933 44.403 1936.6 38.2024C1946.26 21.5462 1957.73 5.57186 1970.91 -8.46237C1974.55 -12.3486 1978.48 -15.934 1982.64 -19.2571C1985.26 -21.3539 1990.81 -23.9371 1992.6 -26.5199Z" fill="#89C5CC"/>
<path opacity="0.5" fill-rule="evenodd" clip-rule="evenodd" d="M1798.54 291.593H1859.96C1862.72 291.593 1864.96 293.831 1864.96 296.593C1864.96 296.837 1864.94 297.081 1864.91 297.322L1860.16 329.511C1858.71 339.323 1850.29 346.593 1840.37 346.593H1818.13C1808.21 346.593 1799.79 339.323 1798.34 329.511L1793.6 297.322C1793.19 294.59 1795.08 292.049 1797.81 291.646C1798.05 291.611 1798.3 291.593 1798.54 291.593Z" fill="#C1DEE2"/>
</g>
<path opacity="0.2" fill-rule="evenodd" clip-rule="evenodd" d="M127.457 -178.549C130.969 -180.29 135.65 -178.271 133.697 -173.668C131.605 -168.739 123.872 -168.679 119.505 -168.776C119.942 -168.799 121.349 -173.319 121.831 -174.002C123.252 -176.017 125.299 -177.477 127.457 -178.549ZM87.0285 -88.742C85.7883 -87.6816 86.9276 -88.6426 87.0285 -88.742V-88.742ZM131.538 -155.665C133.638 -154.076 133.737 -151.269 132.02 -149.368C129.976 -147.104 126.245 -147.185 123.461 -147.404C122.201 -147.503 115.476 -148.033 117.07 -149.124C116.948 -149.078 116.691 -148.967 116.417 -148.815C116.27 -148.281 116.114 -147.749 115.953 -147.22C115.992 -147.197 116.026 -147.172 116.068 -147.149C116.022 -147.169 115.99 -147.191 115.95 -147.211C114.33 -141.918 112.025 -136.877 109.008 -132.161C110.136 -132.602 111.304 -132.935 112.489 -133.084C115.998 -133.525 123.379 -130.829 119.451 -126.2C115.686 -121.762 109.829 -126.518 105.558 -127.172C101.412 -121.444 96.8417 -115.953 92.052 -110.647C92.3452 -110.556 92.6025 -110.366 92.7499 -110.071C94.6708 -111.037 96.6727 -112.418 98.4502 -112.793C101.015 -113.333 106.274 -113.662 108.212 -111.39C110.594 -108.595 108.038 -106.323 105.22 -105.786C101.136 -105.006 95.7901 -106.98 91.8607 -108.313C91.4111 -108.234 90.9204 -108.364 90.6274 -108.72C90.5405 -108.748 90.4537 -108.776 90.3693 -108.803C85.5189 -103.522 80.4831 -98.4148 75.4781 -93.4198C75.5313 -93.4226 75.5846 -93.4259 75.6401 -93.4288C76.9455 -94.277 78.3455 -94.9732 79.8629 -95.3382C83.373 -96.1872 87.5024 -96.1934 90.3493 -93.6799C93.1851 -91.1771 94.1878 -86.798 91.2513 -83.9845C85.3735 -78.3528 76.7242 -91.1824 73.761 -91.7166C68.6748 -86.6938 63.297 -82.0007 57.8347 -77.4021C58.4549 -77.5894 59.0908 -77.7271 59.7481 -77.7893C65.1023 -78.2996 77.6658 -71.8054 71.0919 -65.4064C65.3632 -59.8302 58.7414 -70.554 54.1289 -74.3032C48.9817 -70.0171 43.8065 -65.7604 38.7765 -61.3379C41.519 -62.0604 44.1692 -62.168 47.1083 -61.2898C50.1496 -60.3797 55.0567 -58.1076 53.1318 -54.0394C51.1739 -49.9023 45.2809 -51.7814 42.2117 -53.0931C40.5378 -53.8083 37.1821 -56.2239 34.2352 -57.2406C26.2083 -49.7351 19.2548 -41.4691 13.9888 -31.7333C10.7012 -25.6545 8.2054 -19.1606 6.44761 -12.4865C5.32562 -8.22662 3.11556 -1.07176 3.55444 4.47175C1.4547 -6.62386 5.26843 -19.9531 9.37446 -29.8737C13.1498 -38.9962 18.7971 -47.0058 25.4106 -54.2162C23.7545 -59.1562 9.79659 -66.2753 18.1453 -70.87C22.5787 -73.2993 27.1161 -69.2743 28.0828 -65.0094C28.7467 -62.0787 27.731 -58.3954 26.6536 -55.5501C28.734 -57.7481 30.8967 -59.8755 33.1252 -61.9324C36.2049 -64.7751 39.3582 -67.5355 42.5417 -70.2611C37.3006 -75.1371 32.345 -89.0817 39.377 -91.3663C49.7608 -94.7302 44.7521 -75.7033 44.026 -72.1373C43.8203 -72.1252 43.6601 -72.1867 43.5423 -72.3185C43.6004 -71.992 43.6681 -71.6429 43.7499 -71.2908C49.8431 -76.4803 56.0265 -81.5679 62.0064 -86.8813C61.4681 -87.2752 60.6127 -88.781 59.9403 -89.5824C58.4228 -91.3889 56.9709 -93.2761 55.9102 -95.3898C54.2347 -98.73 52.6198 -104.058 57.0668 -106.026C61.9032 -108.17 64.1978 -102.143 64.2297 -98.5475C64.2514 -96.0607 63.5663 -93.698 63.2088 -91.2603C63.0971 -90.5 63.5241 -87.0734 62.4792 -88.547C62.5282 -88.0035 62.5351 -87.6099 62.5105 -87.3308C63.5841 -88.2895 64.6494 -89.2586 65.7079 -90.2346C65.659 -90.3578 65.6228 -90.4921 65.6146 -90.6478C65.5584 -91.7197 66.6478 -92.1332 67.4115 -91.8196C68.8084 -93.1343 70.1916 -94.4655 71.5501 -95.8231C74.4295 -98.6994 77.3506 -101.658 80.2516 -104.679C79.6229 -105.214 79.8734 -105.955 79.2854 -106.523C78.6983 -107.09 77.5416 -107.403 76.8513 -107.929C75.1148 -109.253 73.6752 -111.183 72.6344 -113.083C70.9161 -116.222 68.6967 -122.807 73.722 -124.306C78.9018 -125.853 81.5274 -119.514 81.8583 -115.551C81.9228 -114.783 81.3387 -107.864 80.8929 -105.351C86.2608 -110.966 91.5405 -116.791 96.3242 -122.718C94.8747 -122.731 90.7666 -125.67 89.9363 -126.472C87.9101 -128.428 84.6899 -132.752 88.245 -135.043C91.406 -137.074 95.2994 -134.136 96.6493 -131.279C96.8711 -130.808 97.6521 -126.429 97.7121 -124.464C99.6921 -126.977 101.581 -129.505 103.338 -132.041C104.51 -133.727 105.605 -135.458 106.63 -137.225C106.384 -137.363 106.152 -137.604 105.933 -137.904C100.663 -138.787 93.9484 -146.928 100.14 -149.764C103.088 -151.113 106.283 -148.333 107.726 -146.057C108.021 -145.592 108.499 -143.25 108.888 -141.403C111.837 -147.257 114.091 -153.455 115.808 -159.809C115.349 -159.922 114.961 -160.269 114.91 -160.865C112.352 -162.309 110.332 -163.511 108.547 -166.288C107.438 -168.013 105.442 -171.954 108.703 -172.913C112.947 -174.162 115.609 -167.745 115.954 -164.583C115.995 -164.216 115.993 -163.149 115.978 -162.171C116.125 -162.191 116.274 -162.189 116.42 -162.163C117.397 -166.098 118.177 -170.083 118.797 -174.075C116.482 -174.812 116.088 -186.857 117.63 -188.573C121.079 -192.415 123.508 -186.869 123.322 -183.936C123.103 -180.479 121.52 -177.334 119.635 -174.542C119.433 -174.246 119.49 -174.26 119.438 -174.672C119.409 -174.469 119.34 -174.318 119.238 -174.209C119.334 -172.39 119.523 -170.527 119.431 -168.916C119.168 -164.305 118.623 -159.666 117.833 -155.114C117.641 -154.006 117.421 -152.908 117.175 -151.819C119.037 -153.391 121.547 -154.788 122.53 -155.224C125.079 -156.357 129.008 -157.581 131.538 -155.665ZM3.1374 4.03398C3.26045 5.5158 3.6259 6.86818 4.34538 7.97616C3.81722 6.7096 3.4211 5.39063 3.1374 4.03398Z" fill="#C1DEE2"/>
<g opacity="0.5">
<path opacity="0.5" fill-rule="evenodd" clip-rule="evenodd" d="M95.4642 -27.5506C99.6665 -33.5426 107.465 -48.7603 113.38 -50.9015C117.189 -52.2806 116.078 -38.015 116.125 -35.2949C116.309 -24.7711 115.284 -14.3141 114.019 -3.87873C111.74 14.9415 104.286 31.7022 94.0632 47.7202C88.8027 55.9623 82.6326 64.3045 74.0867 69.4472C70.153 71.8155 65.4198 72.2121 61.535 74.2526C57.0106 76.628 59.4746 74.7077 57.4356 79.4224C54.604 85.968 53.6983 94.4126 52.3882 101.397C46.3728 133.459 31.8095 302.949 34.3342 335.563C34.5585 338.454 30.5277 339.145 30.3265 335.616C29.257 316.904 38.5117 187.327 43.1808 144.952C47.8499 102.576 52.5748 65.1394 57.3125 50.4788C63.0601 32.6924 73.4404 11.3028 82.0813 -5.28382C86.095 -12.9896 90.4699 -20.4299 95.4642 -27.5506Z" fill="#69A1AC"/>
<path opacity="0.5" fill-rule="evenodd" clip-rule="evenodd" d="M126.655 180.283C137.59 172.255 149.427 187.406 139.532 195.435C134.061 199.873 128.343 198.295 125.123 194.596C123.033 197.144 121.077 199.807 119.197 202.057C113.471 208.913 108.058 215.933 102.885 223.116C92.1392 238.04 82.9302 253.806 73.3015 269.283C63.7993 284.559 54.373 299.913 45.7603 315.576C38.4641 328.846 28.7392 344.457 26.2412 359.005C30.0313 328.151 44.4131 298.495 61.5392 271.295C78.526 244.319 98.0204 214.858 124.322 193.568C121.645 189.632 121.571 184.013 126.655 180.283Z" fill="#C1DEE2"/>
<path opacity="0.5" fill-rule="evenodd" clip-rule="evenodd" d="M-80.8456 105.036C-74.7263 106.232 -64.7276 120.075 -59.6835 125.349C-53.6889 131.617 -48.2504 138.297 -43.1239 145.297C-32.0877 160.362 -22.2177 176.381 -13.8249 193.085C-0.142342 220.316 10.8191 248.269 18.7744 277.923C23.644 296.074 26.7969 314.888 28.6655 333.57C29.0184 337.093 32.7124 364.258 27.3896 364.99C22.6023 365.649 24.0809 344.363 23.85 341.468C21.2393 308.803 13.4184 277.02 2.53973 246.231C0.170197 239.524 -2.0312 231.309 -5.82065 225.273C-8.54958 220.926 -5.84022 222.442 -10.636 220.797C-14.7539 219.383 -19.4457 219.729 -23.6625 217.998C-32.8232 214.242 -40.1582 206.949 -46.5879 199.613C-59.083 185.356 -68.9848 169.933 -74.1462 151.665C-77.0093 141.536 -79.6404 131.349 -81.1005 120.907C-81.4782 118.208 -84.787 104.265 -80.8456 105.036Z" fill="#69A1AC"/>
<path opacity="0.5" fill-rule="evenodd" clip-rule="evenodd" d="M-56.6974 -125.279C-33.6475 -85.3047 -14.706 -41.3939 -2.47536 3.08112C4.93495 30.028 10.1172 57.6795 15.2662 85.1313C23.2385 127.637 30.7793 170.139 32.9243 213.4C35.0824 256.911 39.3497 307.097 25.102 349.005C32.2188 306.457 25.4432 261.167 24.2435 218.355C23.6702 197.917 22.0088 177.679 19.8295 157.36C17.7146 137.65 14.2596 118.034 11.0421 98.4787C9.47485 88.955 7.82886 79.4456 6.15301 69.9414C5.65271 67.1058 5.44138 58.6917 3.64265 56.7545C1.83227 54.8047 -7.4045 54.0098 -10.3044 52.5791C-16.1439 49.6975 -21.6366 45.6044 -26.4979 41.2795C-35.817 32.9888 -43.9241 22.156 -50.3229 11.4774C-65.1281 -13.2314 -71.0472 -43.3851 -70.748 -72.001C-70.6905 -77.5569 -61.7554 -137.385 -65.3439 -138.209C-65.1278 -138.462 -64.9235 -138.723 -64.7308 -138.995C-62.0139 -134.446 -59.348 -129.867 -56.6974 -125.279Z" fill="#89C5CC"/>
<path opacity="0.5" fill-rule="evenodd" clip-rule="evenodd" d="M192.087 18.8922C192.443 18.3792 194.758 14.8115 193.592 15.0395C195.965 14.5753 190.328 18.9743 196.241 16.2751C193.434 18.9268 195.054 22.3714 195.091 25.9403C195.153 31.7345 194.183 37.4813 193.092 43.1513C191.367 52.1138 188.798 60.8279 185.07 69.1641C176.943 87.3305 163.143 104.819 146.76 116.177C138.672 121.784 130.745 123.693 121.521 126.275C115.694 127.906 115.232 130.92 112.14 136.574C105.701 148.35 99.3769 160.083 93.6985 172.256C86.9181 186.792 80.336 201.344 74.1271 216.136C53.2106 265.962 36.1865 317.583 27.246 371.005C27.0271 339.523 34.3098 307.1 43.4963 277.093C50.1881 255.231 58.8995 234.156 68.1911 213.294C70.4427 208.24 73.8547 201.739 74.8108 196.16C75.4803 192.25 73.4335 188.49 72.4963 184.372C68.8427 168.335 69.1042 150.368 72.3126 134.244C75.8501 116.466 86.0804 108.214 103.386 105.695C109.715 104.774 117.76 105.112 123.563 102.413C129.886 99.4746 132.494 89.8151 136.09 83.6145C145.747 66.9583 157.221 50.984 170.396 36.9497C174.044 33.0635 177.968 29.4781 182.13 26.155C184.754 24.0582 190.299 21.4751 192.087 18.8922Z" fill="#89C5CC"/>
</g>
<path opacity="0.2" fill-rule="evenodd" clip-rule="evenodd" d="M186.846 -152.144C190.357 -153.885 195.038 -151.866 193.086 -147.263C190.994 -142.335 183.261 -142.274 178.893 -142.371C179.33 -142.394 180.738 -146.914 181.22 -147.597C182.641 -149.612 184.688 -151.072 186.846 -152.144ZM146.417 -62.3372C145.177 -61.2769 146.316 -62.2378 146.417 -62.3372V-62.3372ZM190.927 -129.26C193.027 -127.671 193.125 -124.864 191.409 -122.963C189.364 -120.7 185.634 -120.78 182.849 -120.999C181.59 -121.098 174.864 -121.628 176.459 -122.719C176.336 -122.673 176.08 -122.562 175.806 -122.41C175.658 -121.876 175.503 -121.345 175.341 -120.815C175.381 -120.792 175.415 -120.767 175.457 -120.745C175.411 -120.765 175.379 -120.786 175.339 -120.806C173.718 -115.513 171.414 -110.472 168.396 -105.756C169.525 -106.197 170.693 -106.53 171.878 -106.679C175.387 -107.121 182.767 -104.424 178.84 -99.7949C175.074 -95.3574 169.218 -100.113 164.947 -100.767C160.801 -95.0388 156.23 -89.5487 151.441 -84.2418C151.734 -84.151 151.991 -83.9615 152.139 -83.6665C154.06 -84.6324 156.061 -86.0137 157.839 -86.3883C160.404 -86.9281 165.663 -87.2573 167.6 -84.9848C169.983 -82.1904 167.426 -79.9184 164.609 -79.3809C160.524 -78.6012 155.179 -80.5748 151.249 -81.9081C150.8 -81.8292 150.309 -81.9592 150.016 -82.3151C149.929 -82.3433 149.842 -82.3709 149.758 -82.3978C144.908 -77.1169 139.872 -72.01 134.867 -67.015C134.92 -67.0178 134.973 -67.0211 135.029 -67.024C136.334 -67.8722 137.734 -68.5684 139.252 -68.9335C142.762 -69.7824 146.891 -69.7887 149.738 -67.2751C152.574 -64.7723 153.577 -60.3932 150.64 -57.5797C144.762 -51.9481 136.113 -64.7776 133.15 -65.3118C128.063 -60.289 122.686 -55.5959 117.223 -50.9973C117.844 -51.1846 118.479 -51.3223 119.137 -51.3845C124.491 -51.8948 137.054 -45.4007 130.481 -39.0017C124.752 -33.4254 118.13 -44.1492 113.518 -47.8984C108.37 -43.6123 103.195 -39.3556 98.1652 -34.9331C100.908 -35.6556 103.558 -35.7632 106.497 -34.885C109.538 -33.9749 114.445 -31.7028 112.52 -27.6346C110.563 -23.4975 104.67 -25.3766 101.6 -26.6883C99.9265 -27.4036 96.5707 -29.8192 93.6238 -30.8359C85.597 -23.3303 78.6435 -15.0643 73.3774 -5.32853C70.0898 0.750266 67.5941 7.2442 65.8363 13.9183C64.7143 18.1782 62.5042 25.333 62.9431 30.8765C60.8434 19.7809 64.6571 6.45168 68.7631 -3.46892C72.5385 -12.5914 78.1858 -20.601 84.7993 -27.8114C83.1431 -32.7514 69.1853 -39.8706 77.534 -44.4652C81.9674 -46.8945 86.5048 -42.8695 87.4715 -38.6047C88.1354 -35.674 87.1197 -31.9907 86.0422 -29.1453C88.1227 -31.3433 90.2854 -33.4707 92.5138 -35.5276C95.5935 -38.3703 98.7469 -41.1307 101.93 -43.8563C96.6892 -48.7323 91.7337 -62.6769 98.7656 -64.9615C109.149 -68.3255 104.141 -49.2985 103.415 -45.7326C103.209 -45.7204 103.049 -45.7819 102.931 -45.9137C102.989 -45.5872 103.057 -45.2381 103.139 -44.886C109.232 -50.0755 115.415 -55.1631 121.395 -60.4765C120.857 -60.8704 120.001 -62.3762 119.329 -63.1776C117.811 -64.9841 116.36 -66.8713 115.299 -68.985C113.623 -72.3252 112.008 -77.6537 116.455 -79.6212C121.292 -81.7648 123.586 -75.7385 123.618 -72.1427C123.64 -69.6559 122.955 -67.2932 122.598 -64.8555C122.486 -64.0952 122.913 -60.6686 121.868 -62.1422C121.917 -61.5987 121.924 -61.2051 121.899 -60.926C122.973 -61.8847 124.038 -62.8538 125.097 -63.8298C125.048 -63.953 125.011 -64.0873 125.003 -64.243C124.947 -65.315 126.037 -65.7284 126.8 -65.4148C128.197 -66.7295 129.58 -68.0607 130.939 -69.4184C133.818 -72.2946 136.739 -75.253 139.64 -78.2743C139.012 -78.8092 139.262 -79.5504 138.674 -80.1184C138.087 -80.685 136.93 -80.9979 136.24 -81.5242C134.503 -82.8485 133.064 -84.7785 132.023 -86.6781C130.305 -89.8168 128.085 -96.4019 133.111 -97.9008C138.29 -99.4483 140.916 -93.1097 141.247 -89.1461C141.311 -88.3782 140.727 -81.4588 140.282 -78.9461C145.649 -84.5611 150.929 -90.3866 155.713 -96.3132C154.263 -96.3258 150.155 -99.2648 149.325 -100.067C147.299 -102.023 144.079 -106.347 147.634 -108.638C150.795 -110.67 154.688 -107.731 156.038 -104.874C156.26 -104.404 157.041 -100.024 157.101 -98.0591C159.081 -100.572 160.97 -103.1 162.727 -105.636C163.899 -107.322 164.994 -109.053 166.019 -110.82C165.773 -110.958 165.541 -111.2 165.322 -111.5C160.052 -112.383 153.337 -120.523 159.529 -123.359C162.477 -124.708 165.672 -121.929 167.115 -119.652C167.41 -119.187 167.888 -116.845 168.277 -114.998C171.226 -120.853 173.48 -127.05 175.197 -133.404C174.738 -133.517 174.349 -133.864 174.299 -134.461C171.741 -135.904 169.721 -137.106 167.936 -139.883C166.827 -141.608 164.831 -145.549 168.092 -146.509C172.335 -147.757 174.997 -141.34 175.343 -138.179C175.383 -137.812 175.381 -136.744 175.367 -135.766C175.514 -135.786 175.663 -135.784 175.809 -135.759C176.786 -139.693 177.565 -143.678 178.186 -147.67C175.871 -148.407 175.476 -160.452 177.019 -162.168C180.468 -166.01 182.897 -160.464 182.711 -157.532C182.492 -154.074 180.908 -150.929 179.023 -148.137C178.821 -147.841 178.879 -147.856 178.827 -148.267C178.798 -148.064 178.729 -147.913 178.627 -147.805C178.723 -145.985 178.912 -144.122 178.82 -142.512C178.557 -137.9 178.012 -133.261 177.222 -128.709C177.03 -127.602 176.81 -126.503 176.563 -125.415C178.426 -126.986 180.936 -128.383 181.918 -128.82C184.468 -129.952 188.396 -131.176 190.927 -129.26ZM62.5261 30.4388C62.6491 31.9206 63.0146 33.273 63.734 34.3809C63.2059 33.1144 62.8098 31.7954 62.5261 30.4388Z" fill="#C1DEE2"/>
<g opacity="0.5">
<path opacity="0.5" fill-rule="evenodd" clip-rule="evenodd" d="M154.853 -1.14581C159.055 -7.13783 166.854 -22.3556 172.768 -24.4967C176.578 -25.8758 175.467 -11.6102 175.514 -8.89009C175.697 1.63365 174.673 12.0907 173.408 22.5261C171.128 41.3462 163.675 58.107 153.452 74.1249C148.191 82.3671 142.021 90.7093 133.475 95.852C129.542 98.2203 124.808 98.6169 120.924 100.657C116.399 103.033 118.863 101.113 116.824 105.827C113.993 112.373 113.087 120.817 111.777 127.802C105.761 159.864 91.1982 329.354 93.7229 361.968C93.9471 364.858 89.9164 365.55 89.7152 362.021C88.6457 343.309 97.9003 213.732 102.569 171.356C107.239 128.981 111.964 91.5442 116.701 76.8836C122.449 59.0971 132.829 37.7076 141.47 21.121C145.484 13.4152 149.859 5.97491 154.853 -1.14581Z" fill="#69A1AC"/>
<path opacity="0.5" fill-rule="evenodd" clip-rule="evenodd" d="M186.044 206.687C196.979 198.659 208.815 213.811 198.92 221.84C193.45 226.278 187.731 224.699 184.512 221.001C182.422 223.548 180.466 226.212 178.586 228.462C172.859 235.318 167.447 242.338 162.274 249.521C151.528 264.444 142.319 280.21 132.69 295.688C123.188 310.964 113.762 326.318 105.149 341.98C97.8528 355.25 88.1279 370.862 85.6299 385.41C89.42 354.556 103.802 324.9 120.928 297.7C137.915 270.724 157.409 241.262 183.711 219.973C181.034 216.037 180.96 210.418 186.044 206.687Z" fill="#C1DEE2"/>
<path opacity="0.5" fill-rule="evenodd" clip-rule="evenodd" d="M-21.4569 131.44C-15.3377 132.637 -5.3389 146.48 -0.294819 151.754C5.69973 158.022 11.1383 164.702 16.2648 171.701C27.301 186.767 37.171 202.785 45.5638 219.49C59.2463 246.721 70.2078 274.674 78.163 304.327C83.0327 322.479 86.1856 341.293 88.0542 359.975C88.4071 363.498 92.1011 390.663 86.7783 391.395C81.991 392.054 83.4696 370.768 83.2386 367.873C80.628 335.208 72.8071 303.424 61.9284 272.636C59.5589 265.929 57.3575 257.714 53.568 251.678C50.8391 247.331 53.5485 248.847 48.7527 247.202C44.6348 245.788 39.943 246.133 35.7262 244.403C26.5655 240.646 19.2305 233.353 12.8008 226.018C0.305641 211.761 -9.59611 196.338 -14.7575 178.07C-17.6206 167.941 -20.2518 157.754 -21.7119 147.311C-22.0896 144.613 -25.3983 130.67 -21.4569 131.44Z" fill="#69A1AC"/>
<path opacity="0.5" fill-rule="evenodd" clip-rule="evenodd" d="M2.69125 -98.8743C25.7412 -58.8999 44.6827 -14.9891 56.9133 29.4859C64.3236 56.4328 69.5059 84.0843 74.6549 111.536C82.6271 154.042 90.168 196.544 92.313 239.805C94.471 283.316 98.7384 333.501 84.4907 375.41C91.6075 332.861 84.8318 287.572 83.6321 244.759C83.0588 224.322 81.3975 204.083 79.2182 183.765C77.1033 164.055 73.6482 144.439 70.4308 124.883C68.8635 115.36 67.2175 105.85 65.5417 96.3462C65.0414 93.5106 64.83 85.0965 63.0313 83.1593C61.2209 81.2095 51.9842 80.4146 49.0843 78.9839C43.2448 76.1023 37.752 72.0092 32.8908 67.6843C23.5717 59.3936 15.4645 48.5608 9.06574 37.8822C-5.73943 13.1734 -11.6585 -16.9803 -11.3594 -45.5962C-11.3019 -51.1521 -2.36672 -110.98 -5.95522 -111.804C-5.73916 -112.057 -5.53479 -112.319 -5.34208 -112.59C-2.62528 -108.042 0.0406952 -103.462 2.69125 -98.8743Z" fill="#89C5CC"/>
<path opacity="0.5" fill-rule="evenodd" clip-rule="evenodd" d="M251.476 45.2969C251.832 44.784 254.146 41.2163 252.981 41.4443C255.354 40.9801 249.717 45.3791 255.63 42.6799C252.822 45.3316 254.443 48.7762 254.48 52.345C254.541 58.1393 253.572 63.8861 252.48 69.5561C250.756 78.5185 248.187 87.2327 244.458 95.5689C236.331 113.735 222.531 131.224 206.148 142.581C198.06 148.189 190.134 150.098 180.91 152.68C175.083 154.311 174.621 157.325 171.528 162.979C165.09 174.754 158.766 186.488 153.087 198.661C146.307 213.197 139.725 227.749 133.516 242.541C112.599 292.367 95.5752 343.988 86.6347 397.41C86.4158 365.928 93.6985 333.505 102.885 303.498C109.577 281.635 118.288 260.561 127.58 239.699C129.831 234.645 133.243 228.144 134.2 222.564C134.869 218.655 132.822 214.895 131.885 210.777C128.231 194.739 128.493 176.772 131.701 160.649C135.239 142.87 145.469 134.619 162.775 132.1C169.104 131.179 177.149 131.517 182.952 128.818C189.275 125.879 191.883 116.22 195.479 110.019C205.136 93.3631 216.61 77.3888 229.785 63.3545C233.433 59.4683 237.356 55.8829 241.518 52.5598C244.143 50.463 249.687 47.8798 251.476 45.2969Z" fill="#89C5CC"/>
</g>
<path opacity="0.2" fill-rule="evenodd" clip-rule="evenodd" d="M134.313 -153.829C137.824 -155.57 142.505 -153.551 140.552 -148.948C138.461 -144.019 130.727 -143.958 126.36 -144.056C126.797 -144.079 128.205 -148.599 128.687 -149.282C130.108 -151.296 132.154 -152.757 134.313 -153.829ZM93.884 -64.0218C92.6438 -62.9614 93.7831 -63.9224 93.884 -64.0218V-64.0218ZM138.394 -130.945C140.493 -129.356 140.592 -126.549 138.875 -124.647C136.831 -122.384 133.101 -122.465 130.316 -122.684C129.057 -122.783 122.331 -123.313 123.926 -124.404C123.803 -124.358 123.547 -124.246 123.273 -124.095C123.125 -123.561 122.97 -123.029 122.808 -122.499C122.848 -122.477 122.881 -122.452 122.924 -122.429C122.878 -122.449 122.846 -122.471 122.805 -122.491C121.185 -117.197 118.88 -112.157 115.863 -107.441C116.991 -107.881 118.16 -108.215 119.345 -108.364C122.854 -108.805 130.234 -106.108 126.307 -101.479C122.541 -97.042 116.684 -101.798 112.414 -102.452C108.268 -96.7234 103.697 -91.2332 98.9074 -85.9264C99.2007 -85.8355 99.458 -85.6461 99.6054 -85.3511C101.526 -86.3169 103.528 -87.6983 105.306 -88.0729C107.871 -88.6127 113.13 -88.9418 115.067 -86.6693C117.45 -83.875 114.893 -81.603 112.076 -81.0654C107.991 -80.2858 102.646 -82.2594 98.7161 -83.5927C98.2665 -83.5138 97.7758 -83.6437 97.4829 -83.9997C97.396 -84.0278 97.3092 -84.0555 97.2247 -84.0824C92.3743 -78.8014 87.3386 -73.6946 82.3335 -68.6996C82.3868 -68.7024 82.44 -68.7056 82.4956 -68.7086C83.8009 -69.5568 85.201 -70.253 86.7184 -70.618C90.2285 -71.467 94.3579 -71.4732 97.2047 -68.9597C100.041 -66.4569 101.043 -62.0778 98.1068 -59.2643C92.229 -53.6326 83.5797 -66.4622 80.6165 -66.9964C75.5303 -61.9736 70.1524 -57.2805 64.6902 -52.6819C65.3103 -52.8692 65.9463 -53.0069 66.6036 -53.0691C71.9578 -53.5793 84.5212 -47.0852 77.9473 -40.6862C72.2186 -35.11 65.5969 -45.8338 60.9844 -49.583C55.8372 -45.2969 50.662 -41.0402 45.6319 -36.6177C48.3745 -37.3402 51.0246 -37.4478 53.9638 -36.5696C57.0051 -35.6595 61.9122 -33.3874 59.9872 -29.3192C58.0294 -25.1821 52.1364 -27.0612 49.0672 -28.3729C47.3933 -29.0881 44.0375 -31.5037 41.0906 -32.5204C33.0638 -25.0149 26.1103 -16.7489 20.8442 -7.0131C17.5566 -0.934304 15.0609 5.55963 13.3031 12.2337C12.1811 16.4936 9.97103 23.6485 10.4099 29.192C8.31017 18.0964 12.1239 4.76711 16.2299 -5.15349C20.0053 -14.276 25.6526 -22.2855 32.2661 -29.496C30.6099 -34.436 16.6521 -41.5551 25.0008 -46.1497C29.4342 -48.5791 33.9716 -44.5541 34.9383 -40.2892C35.6022 -37.3585 34.5865 -33.6752 33.509 -30.8298C35.5895 -33.0278 37.7522 -35.1553 39.9806 -37.2121C43.0603 -40.0549 46.2137 -42.8152 49.3972 -45.5409C44.156 -50.4169 39.2005 -64.3615 46.2324 -66.646C56.6163 -70.01 51.6076 -50.9831 50.8815 -47.4171C50.6758 -47.405 50.5156 -47.4665 50.3977 -47.5983C50.4559 -47.2718 50.5235 -46.9226 50.6054 -46.5706C56.6986 -51.7601 62.882 -56.8477 68.8618 -62.1611C68.3235 -62.555 67.4682 -64.0608 66.7958 -64.8622C65.2782 -66.6687 63.8263 -68.5558 62.7656 -70.6696C61.0901 -74.0098 59.4752 -79.3383 63.9223 -81.3058C68.7586 -83.4494 71.0533 -77.423 71.0852 -73.8273C71.1068 -71.3405 70.4218 -68.9778 70.0643 -66.54C69.9526 -65.7798 70.3796 -62.3532 69.3346 -63.8268C69.3837 -63.2833 69.3906 -62.8897 69.366 -62.6106C70.4396 -63.5692 71.5049 -64.5384 72.5634 -65.5144C72.5145 -65.6376 72.4782 -65.7719 72.4701 -65.9276C72.4139 -66.9995 73.5033 -67.413 74.267 -67.0994C75.6638 -68.4141 77.047 -69.7453 78.4056 -71.1029C81.2849 -73.9792 84.2061 -76.9376 87.1071 -79.9589C86.4783 -80.4938 86.7289 -81.235 86.1408 -81.8029C85.5538 -82.3695 84.3971 -82.6825 83.7067 -83.2087C81.9703 -84.5331 80.5307 -86.4631 79.4899 -88.3627C77.7716 -91.5014 75.5522 -98.0864 80.5775 -99.5854C85.7573 -101.133 88.3828 -94.7942 88.7138 -90.8307C88.7782 -90.0628 88.1941 -83.1434 87.7484 -80.6307C93.1163 -86.2457 98.396 -92.0712 103.18 -97.9978C101.73 -98.0103 97.6221 -100.949 96.7917 -101.752C94.7656 -103.708 91.5454 -108.032 95.1005 -110.322C98.2614 -112.354 102.155 -109.416 103.505 -106.559C103.727 -106.088 104.508 -101.709 104.568 -99.7437C106.548 -102.257 108.436 -104.785 110.194 -107.321C111.366 -109.007 112.461 -110.737 113.486 -112.505C113.239 -112.643 113.008 -112.884 112.789 -113.184C107.519 -114.067 100.804 -122.207 106.996 -125.044C109.944 -126.393 113.139 -123.613 114.581 -121.337C114.877 -120.871 115.355 -118.53 115.744 -116.683C118.692 -122.537 120.947 -128.735 122.663 -135.089C122.205 -135.201 121.816 -135.548 121.765 -136.145C119.207 -137.589 117.187 -138.791 115.403 -141.568C114.294 -143.293 112.297 -147.234 115.558 -148.193C119.802 -149.441 122.464 -143.024 122.81 -139.863C122.85 -139.496 122.848 -138.429 122.834 -137.451C122.981 -137.471 123.13 -137.469 123.276 -137.443C124.252 -141.378 125.032 -145.363 125.653 -149.354C123.337 -150.091 122.943 -162.137 124.486 -163.853C127.935 -167.695 130.363 -162.148 130.178 -159.216C129.959 -155.759 128.375 -152.613 126.49 -149.821C126.288 -149.526 126.346 -149.54 126.293 -149.952C126.264 -149.748 126.196 -149.598 126.094 -149.489C126.19 -147.669 126.378 -145.806 126.287 -144.196C126.023 -139.584 125.479 -134.946 124.689 -130.393C124.497 -129.286 124.277 -128.188 124.03 -127.099C125.892 -128.671 128.403 -130.067 129.385 -130.504C131.935 -131.637 135.863 -132.86 138.394 -130.945ZM9.99287 28.7542C10.1159 30.236 10.4814 31.5884 11.2008 32.6964C10.6727 31.4298 10.2766 30.1108 9.99287 28.7542Z" fill="#C1DEE2"/>
<g opacity="0.5">
<path opacity="0.5" fill-rule="evenodd" clip-rule="evenodd" d="M102.32 -2.83039C106.522 -8.8224 114.32 -24.0401 120.235 -26.1813C124.045 -27.5603 122.934 -13.2948 122.981 -10.5747C123.164 -0.0509205 122.14 10.4061 120.874 20.8415C118.595 39.6617 111.142 56.4225 100.919 72.4404C95.6582 80.6826 89.4881 89.0247 80.9422 94.1674C77.0085 96.5358 72.2752 96.9323 68.3904 98.9728C63.8661 101.348 66.33 99.4279 64.291 104.143C61.4595 110.688 60.5538 119.133 59.2437 126.117C53.2282 158.18 38.665 327.67 41.1897 360.283C41.4139 363.174 37.3832 363.865 37.182 360.336C36.1125 341.625 45.3671 212.047 50.0363 169.672C54.7054 127.296 59.4303 89.8596 64.168 75.199C69.9155 57.4126 80.2959 36.023 88.9368 19.4364C92.9505 11.7306 97.3254 4.29033 102.32 -2.83039Z" fill="#69A1AC"/>
<path opacity="0.5" fill-rule="evenodd" clip-rule="evenodd" d="M133.511 205.003C144.446 196.975 156.282 212.126 146.387 220.155C140.917 224.594 135.198 223.015 131.979 219.316C129.889 221.864 127.932 224.528 126.053 226.778C120.326 233.634 114.913 240.653 109.741 247.837C98.9947 262.76 89.7857 278.526 80.157 294.004C70.6547 309.279 61.2285 324.633 52.6158 340.296C45.3196 353.566 35.5947 369.177 33.0967 383.725C36.8868 352.871 51.2685 323.216 68.3947 296.016C85.3815 269.039 104.876 239.578 131.178 218.289C128.501 214.352 128.427 208.733 133.511 205.003Z" fill="#C1DEE2"/>
<path opacity="0.5" fill-rule="evenodd" clip-rule="evenodd" d="M-73.9901 129.756C-67.8709 130.953 -57.8721 144.795 -52.828 150.069C-46.8335 156.337 -41.3949 163.017 -36.2685 170.017C-25.2322 185.083 -15.3622 201.101 -6.9694 217.805C6.71313 245.036 17.6746 272.99 25.6298 302.643C30.4995 320.794 33.6524 339.608 35.521 358.29C35.8739 361.814 39.5679 388.978 34.2451 389.71C29.4578 390.369 30.9364 369.084 30.7054 366.188C28.0947 333.523 20.2739 301.74 9.3952 270.951C7.02567 264.244 4.82427 256.029 1.03482 249.994C-1.69411 245.646 1.01525 247.162 -3.78049 245.517C-7.89841 244.103 -12.5902 244.449 -16.807 242.718C-25.9677 238.962 -33.3027 231.669 -39.7324 224.333C-52.2276 210.076 -62.1293 194.653 -67.2907 176.386C-70.1539 166.257 -72.785 156.069 -74.2451 145.627C-74.6228 142.928 -77.9315 128.985 -73.9901 129.756Z" fill="#69A1AC"/>
<path opacity="0.5" fill-rule="evenodd" clip-rule="evenodd" d="M-49.842 -100.559C-26.792 -60.5845 -7.85055 -16.6737 4.3801 27.8013C11.7904 54.7483 16.9727 82.3997 22.1217 109.852C30.0939 152.357 37.6348 194.859 39.7798 238.12C41.9378 281.632 46.2052 331.817 31.9575 373.725C39.0743 331.177 32.2986 285.887 31.0989 243.075C30.5256 222.637 28.8643 202.399 26.685 182.08C24.5701 162.37 21.115 142.754 17.8976 123.199C16.3303 113.675 14.6843 104.166 13.0085 94.6616C12.5082 91.826 12.2968 83.4119 10.4981 81.4748C8.68774 79.5249 -0.549034 78.73 -3.44895 77.2993C-9.28839 74.4177 -14.7812 70.3246 -19.6424 65.9997C-28.9615 57.709 -37.0687 46.8763 -43.4675 36.1976C-58.2726 11.4888 -64.1917 -18.6649 -63.8926 -47.2807C-63.8351 -52.8367 -54.8999 -112.665 -58.4884 -113.489C-58.2724 -113.742 -58.068 -114.003 -57.8753 -114.275C-55.1585 -109.726 -52.4925 -105.147 -49.842 -100.559Z" fill="#89C5CC"/>
<path opacity="0.5" fill-rule="evenodd" clip-rule="evenodd" d="M198.943 43.6124C199.298 43.0994 201.613 39.5318 200.448 39.7598C202.821 39.2955 197.183 43.6945 203.097 40.9953C200.289 43.647 201.909 47.0916 201.947 50.6605C202.008 56.4548 201.039 62.2015 199.947 67.8715C198.223 76.834 195.654 85.5481 191.925 93.8843C183.798 112.051 169.998 129.539 153.615 140.897C145.527 146.504 137.601 148.414 128.376 150.995C122.55 152.626 122.088 155.64 118.995 161.294C112.556 173.07 106.232 184.803 100.554 196.977C93.7736 211.513 87.1914 226.065 80.9826 240.857C60.0661 290.683 43.042 342.303 34.1015 395.725C33.8826 364.244 41.1653 331.82 50.3518 301.813C57.0436 279.951 65.755 258.876 75.0466 238.015C77.2981 232.961 80.7101 226.46 81.6663 220.88C82.3358 216.97 80.2889 213.211 79.3518 209.092C75.6982 193.055 75.9597 175.088 79.1681 158.965C82.7056 141.186 92.9359 132.934 110.242 130.416C116.571 129.495 124.615 129.832 130.419 127.134C136.742 124.195 139.35 114.535 142.945 108.335C152.602 91.6785 164.076 75.7042 177.252 61.67C180.9 57.7837 184.823 54.1983 188.985 50.8752C191.61 48.7784 197.154 46.1953 198.943 43.6124Z" fill="#89C5CC"/>
</g>
<path fill-rule="evenodd" clip-rule="evenodd" d="M107.207 177.719C104.968 176.608 101.983 177.896 103.228 180.832C104.562 183.976 109.494 184.014 112.28 183.952C112.001 183.937 111.103 181.055 110.796 180.619C109.889 179.334 108.584 178.403 107.207 177.719ZM133.01 234.08C133.575 234.563 133.056 234.125 133.01 234.08V234.08ZM105.05 191.937C103.74 192.939 103.677 194.708 104.748 195.905C106.022 197.33 108.35 197.278 110.087 197.139C110.873 197.077 115.07 196.741 114.075 196.054C114.152 196.083 114.312 196.153 114.483 196.248C114.575 196.584 114.671 196.92 114.772 197.253C114.747 197.268 114.726 197.283 114.7 197.297C114.728 197.285 114.749 197.271 114.774 197.259C115.783 200.593 117.219 203.768 119.1 206.738C118.397 206.461 117.668 206.251 116.928 206.158C114.739 205.881 110.133 207.582 112.582 210.497C114.931 213.292 118.586 210.294 121.251 209.88C123.836 213.488 126.686 216.945 129.673 220.287C129.49 220.345 129.329 220.464 129.237 220.65C128.039 220.042 126.79 219.172 125.682 218.937C124.081 218.598 120.8 218.392 119.591 219.824C118.103 221.586 119.698 223.016 121.455 223.354C124.003 223.844 127.339 222.599 129.792 221.757C130.072 221.807 130.378 221.725 130.561 221.501C130.615 221.483 130.67 221.465 130.722 221.448C133.747 224.774 136.887 227.99 140.009 231.135C139.975 231.133 139.942 231.131 139.907 231.129C139.093 230.595 138.22 230.157 137.273 229.928C135.083 229.394 132.507 229.391 130.73 230.976C128.96 232.554 128.333 235.313 130.164 237.084C133.83 240.631 139.23 232.545 141.079 232.208C144.251 235.37 147.605 238.325 151.012 241.221C150.625 241.103 150.228 241.016 149.818 240.978C146.478 240.658 138.637 244.753 142.736 248.783C146.309 252.294 150.444 245.536 153.323 243.172C156.533 245.871 159.761 248.551 162.898 251.335C161.187 250.881 159.533 250.814 157.699 251.368C155.801 251.943 152.739 253.376 153.939 255.938C155.159 258.544 158.836 257.358 160.752 256.531C161.797 256.08 163.891 254.557 165.73 253.915C170.736 258.641 175.072 263.847 178.354 269.979C180.404 273.808 181.959 277.898 183.054 282.102C183.752 284.786 185.129 289.293 184.853 292.785C186.167 285.794 183.792 277.398 181.233 271.149C178.88 265.403 175.359 260.359 171.235 255.818C172.27 252.705 180.981 248.216 175.773 245.324C173.008 243.794 170.176 246.332 169.571 249.019C169.156 250.866 169.789 253.186 170.46 254.978C169.163 253.594 167.814 252.254 166.424 250.959C164.504 249.169 162.537 247.431 160.551 245.715C163.823 242.641 166.92 233.854 162.533 232.417C156.055 230.301 159.174 242.287 159.626 244.533C159.754 244.541 159.854 244.502 159.928 244.419C159.891 244.625 159.849 244.845 159.798 245.067C155.998 241.799 152.141 238.596 148.412 235.25C148.748 235.002 149.282 234.053 149.702 233.548C150.649 232.409 151.556 231.22 152.218 229.888C153.265 227.783 154.274 224.425 151.5 223.187C148.483 221.838 147.05 225.636 147.029 227.901C147.014 229.468 147.441 230.956 147.663 232.492C147.733 232.971 147.465 235.13 148.118 234.201C148.087 234.543 148.082 234.791 148.098 234.967C147.428 234.363 146.764 233.753 146.104 233.139C146.134 233.061 146.157 232.976 146.162 232.878C146.197 232.203 145.518 231.943 145.041 232.141C144.17 231.313 143.307 230.475 142.46 229.62C140.665 227.808 138.843 225.946 137.034 224.043C137.426 223.706 137.27 223.239 137.637 222.881C138.004 222.524 138.725 222.326 139.156 221.995C140.24 221.16 141.139 219.943 141.789 218.746C142.862 216.768 144.249 212.619 141.114 211.676C137.883 210.703 136.243 214.697 136.035 217.194C135.994 217.678 136.357 222.037 136.634 223.62C133.286 220.084 129.994 216.416 127.011 212.683C127.916 212.675 130.48 210.822 130.998 210.316C132.263 209.083 134.273 206.358 132.056 204.916C130.084 203.637 127.654 205.49 126.811 207.29C126.673 207.586 126.184 210.346 126.146 211.584C124.911 210.001 123.734 208.409 122.638 206.812C121.907 205.75 121.224 204.66 120.585 203.547C120.739 203.46 120.884 203.308 121.021 203.119C124.309 202.561 128.501 197.43 124.639 195.645C122.8 194.796 120.806 196.548 119.905 197.983C119.72 198.276 119.421 199.752 119.178 200.916C117.34 197.228 115.935 193.324 114.866 189.322C115.153 189.251 115.395 189.032 115.427 188.656C117.024 187.746 118.284 186.988 119.399 185.238C120.091 184.15 121.338 181.667 119.304 181.063C116.656 180.278 114.993 184.322 114.777 186.314C114.751 186.545 114.752 187.217 114.761 187.834C114.669 187.821 114.576 187.822 114.485 187.839C113.877 185.36 113.392 182.85 113.006 180.335C114.451 179.87 114.701 172.281 113.738 171.201C111.588 168.781 110.071 172.276 110.186 174.123C110.321 176.301 111.308 178.283 112.483 180.041C112.609 180.227 112.573 180.218 112.606 179.959C112.624 180.087 112.667 180.182 112.731 180.25C112.67 181.397 112.552 182.571 112.609 183.585C112.771 186.49 113.11 189.413 113.601 192.281C113.721 192.978 113.858 193.67 114.011 194.356C112.85 193.366 111.284 192.487 110.671 192.212C109.081 191.499 106.63 190.73 105.05 191.937ZM185.04 292.795C184.966 293.808 184.783 294.736 184.442 295.501C184.698 294.63 184.894 293.725 185.04 292.795Z" fill="#F2F2F2"/>
<g opacity="0.7">
<path opacity="0.7" fill-rule="evenodd" clip-rule="evenodd" d="M150.769 246.339C156.989 246.016 164.681 249.647 165.344 256.407C165.826 261.319 165.677 266.218 166.423 271.122C167.019 275.042 168.281 278.805 170.001 282.376C171.656 285.81 175.088 288.732 175.98 292.401C176.549 294.738 176.231 298.026 175.446 300.312C174.492 303.092 174.999 302.872 176.9 305.204C180.626 309.775 183.98 314.462 186.352 319.921C189.769 327.784 192.009 336.975 190.741 345.582C190.58 346.676 190.388 350.598 188.883 350.872C187.202 351.178 187.988 348.935 188.078 348.211C188.65 343.587 189.158 339.546 188.468 334.85C185.806 316.732 172.809 304.795 164.346 289.417C163.88 288.624 162.898 286.736 162.215 285.49C161.137 283.524 160.053 279.781 158.594 278.323C155.845 275.575 158.372 281.099 158.908 282.153C159.585 283.487 160.33 284.904 161.024 286.073C164.199 291.491 167.743 297.404 171.023 302.988C156.84 306.22 146.851 289.169 143.045 277.959C139.909 268.723 136.157 247.129 150.769 246.339Z" fill="#69A1AC"/>
<path opacity="0.7" fill-rule="evenodd" clip-rule="evenodd" d="M234.13 229.188C223.733 230.012 217.058 236.873 213.951 246.469C212.276 251.64 212.084 256.953 211.153 262.267C209.754 270.263 206.741 276.322 200.855 282.018C199.031 283.782 197.688 285.593 196.733 287.531C194.837 289.466 193.186 291.656 191.974 294.333C190.425 297.751 189.986 301.853 191.775 305.261C192.256 306.177 193.455 308.017 194.698 308.852C190.044 318.765 187.485 329.622 187.773 340.465C187.947 347.011 188.267 353.559 188.64 360.096C188.74 361.851 189.312 364.75 190.17 361.806C190.956 359.114 189.971 354.886 189.879 352.073C189.436 338.37 189.056 325.91 194.698 313.107C195.289 311.765 195.916 310.434 196.569 309.113C196.608 309.091 196.643 309.064 196.679 309.038C196.704 309.057 196.727 309.078 196.752 309.097C196.794 309.022 196.851 308.934 196.917 308.835C197.105 308.641 197.268 308.397 197.424 308.124C197.924 307.431 198.49 306.616 198.494 306.17C198.494 306.167 198.492 306.162 198.492 306.158C201.984 300.458 205.984 295.071 210.069 289.79C210.039 289.829 214.501 283.753 213.811 287.113C213.478 288.732 210.196 291.816 208.87 293.531C205.938 297.346 202.494 302.181 199.633 306.856C199.248 307.077 198.704 308.164 198.31 308.973C198.093 309.383 197.891 309.796 197.691 310.156C207.831 313.506 215.718 306.758 221.096 298.91C221.103 298.901 221.108 298.891 221.115 298.882C222.751 296.713 224.428 294.56 226.522 292.845C230.017 289.985 233.759 289.48 237.879 288.072C249.115 284.233 253.892 269.672 255.409 258.867C257.121 246.677 248.748 227.986 234.13 229.188Z" fill="#89C5CC"/>
<path opacity="0.7" fill-rule="evenodd" clip-rule="evenodd" d="M213.591 195.052C202.92 206.158 197.765 221.562 193.683 236.044C189.124 252.218 186.112 268.642 185.997 285.459C185.921 296.507 185.62 307.625 186.265 318.661C186.494 322.58 186.885 326.506 187.506 330.383C187.557 330.702 188.947 339.359 190.277 337.342C191.033 336.195 188.852 328.361 188.687 327.057C187.76 319.708 187.545 312.305 187.59 304.904C187.664 292.717 187.305 280.593 188.54 268.451C188.724 266.639 188.87 264.735 189.301 262.961C189.758 261.076 189.175 261.899 190.665 261.152C192.112 260.427 193.9 260.53 195.401 259.62C201.357 256.009 204.403 246.733 206.774 240.647C209.486 233.687 211.134 226.265 212.451 218.94C213.417 213.559 214.109 208.21 214.5 202.76C214.623 201.042 214.63 199.245 214.968 197.556C215.059 197.101 215.515 196.295 215.499 195.891C215.464 195.037 214.948 194.535 214.906 193.817C214.459 194.219 214.021 194.631 213.591 195.052Z" fill="#89C5CC"/>
<path opacity="0.7" fill-rule="evenodd" clip-rule="evenodd" d="M191.33 343.129H189.573C189.695 340.924 189.856 338.723 190.225 336.543C191.634 328.205 196.042 315.958 205.709 314.605C206.066 314.554 207.378 314.546 208.967 314.639C209.72 314.218 210.564 313.964 211.453 313.905C219.683 313.299 228.875 319.939 232.845 326.849C236.046 332.42 235.507 339.736 233.53 345.655C232.206 349.618 229.317 355.267 224.499 355.322C218.471 355.391 218.18 347.941 218.064 343.586C217.909 337.795 217.177 332.751 212.614 328.804C211.551 327.885 210.389 327.076 209.315 326.169C207.633 324.75 205.774 323.297 205.557 320.949C205.258 317.71 207.086 317.127 209.878 317.729C210.354 317.831 215.148 319.982 214.438 318.282C214.222 317.763 213.43 317.351 212.431 317.043C209.846 316.761 206.763 316.435 205.877 316.63C196.312 318.729 192.588 331.978 191.599 340.395C191.492 341.304 191.406 342.216 191.33 343.129Z" fill="#69A1AC"/>
</g>
<path fill-rule="evenodd" clip-rule="evenodd" d="M127.095 67.4237C122.609 62.1579 119.572 55.7045 120.08 48.4733C121.542 27.6381 150.545 32.2216 156.186 42.7374C161.828 53.2532 161.158 79.9273 153.866 81.8068C150.959 82.5563 144.764 80.7203 138.46 76.9202L142.417 104.916H119.051L127.095 67.4237Z" fill="#F9D3B1"/>
<path fill-rule="evenodd" clip-rule="evenodd" d="M139.628 50.7739C140.522 63.233 142.888 69.4625 146.725 69.4625C152.482 69.4625 157.366 65.808 159.892 65.808C161.733 65.808 161.322 68.1122 160.102 69.8206C159.095 71.2301 154.191 72.5886 154.191 74.7738C154.191 76.9589 158.065 75.2684 158.065 76.5644C158.065 78.7081 158.746 82.7386 155.026 82.7386C151.26 82.7386 140.464 81.3664 138.614 75.778C137.42 72.1713 136.648 64.6977 136.298 53.3571C136.07 53.3299 135.837 53.316 135.601 53.316C132.375 53.316 129.76 55.9313 129.76 59.1575C129.76 60.7952 130.434 62.2756 131.52 63.3363C130.168 65.2441 128.653 67.2371 126.917 69.2936C120.396 65.3813 115.557 53.9283 121.933 42.9262C123.695 37.5364 127.684 34.6575 132.396 33.3207C136.212 31.7242 140.174 31.5442 143.519 32.5013C150.075 33.0636 155.929 35.0628 157.588 36.25C157.588 42.4568 156.385 44.2983 146.113 44.136C143.589 45.469 141.649 47.7645 139.628 50.7739Z" fill="#191847"/>
<path fill-rule="evenodd" clip-rule="evenodd" d="M111.262 185.723L146.559 309.589L172.312 400.885H191.096L163.729 185.723H111.262Z" fill="#191847"/>
<path fill-rule="evenodd" clip-rule="evenodd" d="M101.822 185.723C101.006 249.565 98.2215 284.386 97.3643 290.187C96.5071 295.987 83.5457 332.886 58.48 400.885H77.9383C109.849 335.652 127.662 298.752 131.378 290.187C135.094 281.621 146.562 246.8 163.835 185.723H101.822Z" fill="#2F3676"/>
<path fill-rule="evenodd" clip-rule="evenodd" d="M193.392 169.767L222.781 194.683C231.025 197.537 237.848 200.849 243.249 204.618C244.496 205.924 245.934 208.494 240.441 207.683C234.948 206.872 229.133 206.267 228.24 208.097C227.346 209.927 230.53 212.414 228.812 214.848C227.667 216.47 223.112 211.882 215.149 201.084L185.36 186.217L193.392 169.767ZM60.3113 158.985L77.5552 161.49C59.0454 201.649 49.1221 222.888 47.7853 225.206C44.7773 230.421 48.3148 239.505 49.6977 244.314C42.709 246.332 44.9409 235.534 36.1041 238.227C28.0382 240.685 21.3822 246.258 13.3937 239.631C12.4115 238.817 11.5842 236.153 14.7059 234.601C22.4832 230.733 33.902 223.657 35.677 221.049C38.0976 217.493 46.309 196.805 60.3113 158.985Z" fill="#F9D3B1"/>
<path fill-rule="evenodd" clip-rule="evenodd" d="M132.384 88.6888L143.069 85.1553C157.563 121.363 179.179 156.396 215.296 185.987L206.365 201.395C174.623 182.698 144.576 168.173 132.384 140.116C128.291 130.699 132.05 99.9482 132.384 88.6888Z" fill="#C5CFD6"/>
<path fill-rule="evenodd" clip-rule="evenodd" d="M95.6846 190.592C126.292 193.837 150.384 193.837 167.96 190.592C170.137 190.19 170.481 186.544 169.471 184.07C153.746 145.539 142.962 111.918 142.962 85.1553C140.077 86.61 135.027 86.828 127.813 85.8093C108.425 113.389 99.5132 145.034 95.6846 190.592Z" fill="#323337"/>
<path fill-rule="evenodd" clip-rule="evenodd" d="M122.993 83.4977H131.072C132.954 94.5623 138.887 244.394 157.205 293.408H58.0896C60.2384 248.508 77.1889 194.571 94.36 149.437C79.1766 163.331 65.943 186.874 54.6592 220.065L36.0938 215.299C49.8978 155.816 78.2789 112.097 121.237 84.1393C121.33 83.9244 121.423 83.7105 121.515 83.4977H122.23C122.493 83.3287 122.757 83.1604 123.021 82.9927L122.993 83.4977Z" fill="#DDE3E9"/>
</g>
</svg>
